<?xml version="1.0" encoding="UTF-8"?>
<!DOCTYPE svg PUBLIC "-//W3C//DTD SVG 1.1//EN" "http://www.w3.org/Graphics/SVG/1.1/DTD/svg11.dtd">
<svg width="849" height="755px" viewBox="14, 51, 849, 755" xmlns="http://www.w3.org/2000/svg" xmlns:xlink="http://www.w3.org/1999/xlink" xmlns:xml="http://www.w3.org/XML/1998/namespace" version="1.1">
  <defs>
    <marker refX="5" refY="5" orient="auto" markerWidth="10" markerHeight="10" id="startMessageFlowddb86e65-7cc0-48ee-87ae-af5306ce15a0">
      <circle cx="5" cy="5" r="4" stroke-width="1px" style="fill:white;stroke:black;"/>
    </marker>
    <marker refX="15" refY="6.5" orient="auto" markerWidth="16" markerHeight="14" id="endMessageFlowddb86e65-7cc0-48ee-87ae-af5306ce15a0">
      <path d="M0 1 L0 13 L15 6.5 z" stroke-width="1px" style="fill:white;stroke:black;"/>
    </marker>
  </defs>
  <g class="djs-group">
    <g transform="matrix(1, 0, 0, 1, 30, 67)" id="gfx-648efe98-065a-42e6-9c77-f166789c8017" display="block" class="djs-element djs-shape" data-element-id="648efe98-065a-42e6-9c77-f166789c8017">
      <g class="djs-visual">
        <g>
          <rect x="0" y="0" width="817" height="240" opacity="0" fill-opacity="0" style="fill:transparent;"/>
          <path d="M817 0 L0 0 L0 240 L817 240 z M50 0 L50 240" stroke-width="1px" shape-rendering="crispEdges" fill-opacity="0" class="" style="fill:transparent;stroke:black;"/>
        </g>
      </g>
      <svg width="50" height="240" class="djs-svg-text">
        <text transform="matrix(-1.83697E-16, -1, 1, -1.83697E-16, 0, 240)" font-family="'Segoe UI'" font-size="13.2815px" font-style="normal" font-weight="bold" lineHeight="1.2" textDirection="270" textAlign="center" class="djs-label" style="fill:black;">
          <tspan x="22.23521" y="28.75">Supplier --- Economic Operator</tspan>
        </text>
      </svg>
    </g>
  </g>
  <g class="djs-group">
    <g transform="matrix(1, 0, 0, 1, 30, 432)" id="gfx-a5d57baa-7dd9-4349-b7b7-0246942dca36" display="block" class="djs-element djs-shape" data-element-id="a5d57baa-7dd9-4349-b7b7-0246942dca36">
      <g class="djs-visual">
        <g>
          <rect x="0" y="0" width="817" height="245" opacity="0" fill-opacity="0" style="fill:transparent;"/>
          <path d="M817 0 L0 0 L0 245 L817 245 z M50 0 L50 245" stroke-width="1px" shape-rendering="crispEdges" fill-opacity="0" class="" style="fill:transparent;stroke:black;"/>
        </g>
      </g>
      <svg width="50" height="245" class="djs-svg-text">
        <text transform="matrix(-1.83697E-16, -1, 1, -1.83697E-16, 0, 245)" font-family="'Segoe UI'" font-size="13.2815px" font-style="normal" font-weight="bold" lineHeight="1.2" textDirection="270" textAlign="center" class="djs-label" style="fill:black;">
          <tspan x="38.12868" y="28.75">Buyer --- Contracting Body</tspan>
        </text>
      </svg>
    </g>
  </g>
  <g class="djs-group">
    <g transform="matrix(1, 0, 0, 1, 510, 201)" id="gfx-45c03fcb-026e-4727-8725-fe011e311401" display="block" class="djs-element djs-shape" data-element-id="45c03fcb-026e-4727-8725-fe011e311401">
      <g class="djs-visual">
        <g>
          <rect x="0" y="0" width="90" height="60" rx="8" stroke-width="2px" class="" style="fill:#ECEFFF;stroke:#03689A;"/>
          <g/>
        </g>
      </g>
      <svg width="90" height="56" class="djs-svg-text">
        <text font-family="'Segoe UI'" font-size="10.6252px" font-style="normal" font-weight="normal" lineHeight="1.2" textDirection="0" textAlign="center" class="djs-label" style="fill:black;">
          <tspan x="14.56606" y="26.75">Send Tender </tspan>
          <tspan x="18.45004" y="39.75">Withdrawal</tspan>
        </text>
      </svg>
    </g>
  </g>
  <g class="djs-group">
    <g transform="matrix(1, 0, 0, 1, 635, 201)" id="gfx-ed94d62f-cf66-48a9-bbed-ec10f1523de8" display="block" class="djs-element djs-shape" data-element-id="ed94d62f-cf66-48a9-bbed-ec10f1523de8">
      <g class="djs-visual">
        <g>
          <rect x="0" y="0" width="90" height="60" rx="8" stroke-width="2px" class="" style="fill:#ECEFFF;stroke:#03689A;"/>
          <g/>
        </g>
      </g>
      <svg width="90" height="56" class="djs-svg-text">
        <text font-family="'Segoe UI'" font-size="10.6252px" font-style="normal" font-weight="normal" lineHeight="1.2" textDirection="0" textAlign="center" class="djs-label" style="fill:black;">
          <tspan x="8.662331" y="13.75">Receive Tender </tspan>
          <tspan x="16.99549" y="26.75">Withdrawal </tspan>
          <tspan x="26.31133" y="39.75">Receipt </tspan>
          <tspan x="17.52702" y="52.75">Notification</tspan>
        </text>
      </svg>
    </g>
  </g>
  <g class="djs-group">
    <g transform="matrix(1, 0, 0, 1, 206, 527)" id="gfx-222ff604-fc5f-4523-b628-6d599401ea1c" display="block" class="djs-element djs-shape" data-element-id="222ff604-fc5f-4523-b628-6d599401ea1c">
      <g class="djs-visual">
        <g>
          <rect x="0" y="0" width="90" height="60" rx="8" stroke-width="2px" class="" style="fill:#ECEFFF;stroke:#03689A;"/>
          <g/>
        </g>
      </g>
      <svg width="90" height="56" class="djs-svg-text">
        <text font-family="'Segoe UI'" font-size="10.6252px" font-style="normal" font-weight="normal" lineHeight="1.2" textDirection="0" textAlign="center" class="djs-label" style="fill:black;">
          <tspan x="8.662331" y="26.75">Receive Tender </tspan>
          <tspan x="18.45004" y="39.75">Withdrawal</tspan>
        </text>
      </svg>
    </g>
  </g>
  <g class="djs-group">
    <g transform="matrix(1, 0, 0, 1, 526, 527)" id="gfx-6dd16c6b-7376-4575-9a8b-1e3667870cf1" display="block" class="djs-element djs-shape" data-element-id="6dd16c6b-7376-4575-9a8b-1e3667870cf1">
      <g class="djs-visual">
        <g>
          <rect x="0" y="0" width="90" height="60" rx="8" stroke-width="2px" class="" style="fill:#ECEFFF;stroke:#03689A;"/>
          <g/>
        </g>
      </g>
      <svg width="90" height="56" class="djs-svg-text">
        <text font-family="'Segoe UI'" font-size="10.6252px" font-style="normal" font-weight="normal" lineHeight="1.2" textDirection="0" textAlign="center" class="djs-label" style="fill:black;">
          <tspan x="14.56606" y="13.75">Send Tender </tspan>
          <tspan x="16.99549" y="26.75">Withdrawal </tspan>
          <tspan x="26.31133" y="39.75">Receipt </tspan>
          <tspan x="17.52702" y="52.75">Notification</tspan>
        </text>
      </svg>
    </g>
  </g>
  <g class="djs-group">
    <g transform="matrix(1, 0, 0, 1, 375, 527)" id="gfx-71351f69-8471-4d07-9410-8be8bebed6a9" display="block" class="djs-element djs-shape" data-element-id="71351f69-8471-4d07-9410-8be8bebed6a9">
      <g class="djs-visual">
        <g>
          <rect x="0" y="0" width="90" height="60" rx="8" stroke-width="2px" class="" style="fill:#ECEFFF;stroke:#03689A;"/>
          <g/>
        </g>
      </g>
      <svg width="90" height="56" class="djs-svg-text">
        <text font-family="'Segoe UI'" font-size="10.6252px" font-style="normal" font-weight="normal" lineHeight="1.2" textDirection="0" textAlign="center" class="djs-label" style="fill:black;">
          <tspan x="11.10731" y="13.75">Create Tender </tspan>
          <tspan x="16.99549" y="26.75">Withdrawal </tspan>
          <tspan x="26.31133" y="39.75">Receipt </tspan>
          <tspan x="17.52702" y="52.75">Notification</tspan>
        </text>
      </svg>
    </g>
  </g>
  <g class="djs-group">
    <g transform="matrix(1, 0, 0, 1, 238, 108)" id="gfx-cb48832b-c256-41ea-84bb-e6712556b021" display="block" class="djs-element djs-shape" data-element-id="cb48832b-c256-41ea-84bb-e6712556b021">
      <g class="djs-visual">
        <g>
          <rect x="0" y="0" width="90" height="60" rx="5" stroke-width="2.4px" class="" style="fill:#ECEFFF;stroke:#03689A;"/>
          <g>
            <g transform="translate(37, 44)">
              <rect x="0" y="0" width="15" height="15" stroke-width="2px" style="fill:#ECEFFF;stroke:#03689A;"/>
              <path d="M7.5 3 L7.5 12 M3 7.5 L12 7.5" stroke-width="3px" style="fill:#ECEFFF;stroke:#03689A;"/>
            </g>
          </g>
        </g>
      </g>
    </g>
  </g>
  <g class="djs-group">
    <g transform="matrix(1, 0, 0, 1, 238, 116)" id="gfx-25e79639-c068-4d32-90ba-bbebbb17eca8" display="block" class="djs-element djs-shape" data-element-id="25e79639-c068-4d32-90ba-bbebbb17eca8">
      <g class="djs-visual">
        <rect x="0" y="0" width="90" height="36" fill-opacity="0" stroke-opacity="0" style="fill:#FFFFFF;stroke:transparent;"/>
        <svg width="90" height="31" class="djs-svg-text">
          <text font-family="'Segoe UI'" font-size="10.6252px" font-style="normal" font-weight="normal" lineHeight="1.2" textDirection="0" textAlign="center" class="djs-label" style="fill:black;">
            <tspan x="20.74204" y="14.75">Send new </tspan>
            <tspan x="14.67236" y="27.75">Tender to CA</tspan>
          </text>
        </svg>
      </g>
    </g>
  </g>
  <g class="djs-group">
    <g transform="matrix(1, 0, 0, 1, 95, 216)" id="gfx-e5afce39-6de3-49cc-acbf-690077f28967" display="block" class="djs-element djs-shape" data-element-id="e5afce39-6de3-49cc-acbf-690077f28967">
      <g class="djs-visual">
        <g>
          <g transform="translate(-8.90625, -8.90625) scale(1.5)">
            <path d="M16 25.2 C10.9 25.2 6.8 21.1 6.8 16 C6.8 10.9 10.9 6.8 16 6.8 C21.1 6.8 25.2 10.9 25.2 16 C25.2 21.1 21.1 25.2 16 25.2 L16 25.2 z" style="fill:#E6FF97;"/>
            <path d="M15.9 7 C20.9 7 24.9 11 24.9 16 C24.9 21 20.9 25 15.9 25 C10.9 25 6.9 21 6.9 16 C6.9 11 10.9 7 15.9 7 M15.9 6 C10.4 6 5.9 10.5 5.9 16 C5.9 21.5 10.4 26 15.9 26 C21.4 26 25.9 21.5 25.9 16 C25.9 10.5 21.4 6 15.9 6 z" stroke-width="0.2px" class="" style="fill:#62A716;stroke:#62A716;"/>
          </g>
        </g>
      </g>
    </g>
  </g>
  <g class="djs-group">
    <g transform="matrix(1, 0, 0, 1, 83, 251)" id="gfx-ff7eb9a7-1a2a-47c5-964c-bc289bc52be0" display="block" class="djs-element djs-shape" data-element-id="ff7eb9a7-1a2a-47c5-964c-bc289bc52be0">
      <g class="djs-visual">
        <rect x="0" y="0" width="56" height="58" fill-opacity="0" stroke-opacity="0" style="fill:#FFFFFF;stroke:transparent;"/>
        <svg width="56" height="53" class="djs-svg-text">
          <text font-family="'Segoe UI'" font-size="10.6252px" font-style="normal" font-weight="normal" lineHeight="1.2" textDirection="0" textAlign="center" class="djs-label" style="fill:black;">
            <tspan x="10.7503" y="14.75">Tender </tspan>
            <tspan x="12.60673" y="27.75">needs </tspan>
            <tspan x="11.4685" y="40.75">update</tspan>
          </text>
        </svg>
      </g>
    </g>
  </g>
  <g class="djs-group">
    <g transform="matrix(1, 0, 0, 1, 124, 542)" id="gfx-4293742b-89aa-4938-8853-021684423f2e" display="block" class="djs-element djs-shape" data-element-id="4293742b-89aa-4938-8853-021684423f2e">
      <g class="djs-visual">
        <g>
          <g transform="translate(-8.90625, -8.90625) scale(1.5)">
            <path d="M16 25.2 C10.9 25.2 6.8 21.1 6.8 16 C6.8 10.9 10.9 6.8 16 6.8 C21.1 6.8 25.2 10.9 25.2 16 C25.2 21.1 21.1 25.2 16 25.2 L16 25.2 z" style="fill:#E6FF97;"/>
            <path d="M15.9 7 C20.9 7 24.9 11 24.9 16 C24.9 21 20.9 25 15.9 25 C10.9 25 6.9 21 6.9 16 C6.9 11 10.9 7 15.9 7 M15.9 6 C10.4 6 5.9 10.5 5.9 16 C5.9 21.5 10.4 26 15.9 26 C21.4 26 25.9 21.5 25.9 16 C25.9 10.5 21.4 6 15.9 6 z" stroke-width="0.2px" class="" style="fill:#62A716;stroke:#62A716;"/>
          </g>
        </g>
      </g>
    </g>
  </g>
  <g class="djs-group">
    <g transform="matrix(1, 0, 0, 1, 96, 578)" id="gfx-2af6d2a8-a5a8-4fc8-aa25-245bf51f1fa8" display="block" class="djs-element djs-shape" data-element-id="2af6d2a8-a5a8-4fc8-aa25-245bf51f1fa8">
      <g class="djs-visual">
        <rect x="0" y="0" width="86" height="44" fill-opacity="0" stroke-opacity="0" style="fill:#FFFFFF;stroke:transparent;"/>
        <svg width="86" height="39" class="djs-svg-text">
          <text font-family="'Segoe UI'" font-size="10.6252px" font-style="normal" font-weight="normal" lineHeight="1.2" textDirection="0" textAlign="center" class="djs-label" style="fill:black;">
            <tspan x="6.164513" y="14.75">Tender received</tspan>
          </text>
        </svg>
      </g>
    </g>
  </g>
  <g class="djs-group">
    <g transform="matrix(1, 0, 0, 1, 781, 216)" id="gfx-a34698da-d071-4cc8-8623-f8c62e1af9f4" display="block" class="djs-element djs-shape" data-element-id="a34698da-d071-4cc8-8623-f8c62e1af9f4">
      <g class="djs-visual">
        <g>
          <g transform="translate(-8.90625, -8.90625) scale(1.5)">
            <path d="M16 25.2 A9.2 9.2 0 1 1 25.2 16 A9.2 9.2 0 0 1 16 25.2 z" style="fill:#EEAAAA;"/>
            <path d="M16 7.5 A8.5 8.5 0 1 1 7.5 16 A8.5 8.5 0 0 1 16 7.5 M16 6 A10 10 0 1 0 26 16 A10 10 0 0 0 16 6 z" stroke-width="0.4px" class="" style="fill:#990000;stroke:#990000;"/>
          </g>
        </g>
      </g>
    </g>
  </g>
  <g class="djs-group">
    <g transform="matrix(1, 0, 0, 1, 756, 252)" id="gfx-8c4a43ce-76e9-41a8-9beb-45faf5d484e3" display="block" class="djs-element djs-shape" data-element-id="8c4a43ce-76e9-41a8-9beb-45faf5d484e3">
      <g class="djs-visual">
        <rect x="0" y="0" width="79" height="44" fill-opacity="0" stroke-opacity="0" style="fill:#FFFFFF;stroke:transparent;"/>
        <svg width="79" height="39" class="djs-svg-text">
          <text font-family="'Segoe UI'" font-size="10.6252px" font-style="normal" font-weight="normal" lineHeight="1.2" textDirection="0" textAlign="center" class="djs-label" style="fill:black;">
            <tspan x="22.2503" y="14.75">Tender </tspan>
            <tspan x="15.05536" y="27.75">withdrawn</tspan>
          </text>
        </svg>
      </g>
    </g>
  </g>
  <g class="djs-group">
    <g transform="matrix(1, 0, 0, 1, 527, 123)" id="gfx-5032ce13-62a3-4454-ac5f-e6158c7535fb" display="block" class="djs-element djs-shape" data-element-id="5032ce13-62a3-4454-ac5f-e6158c7535fb">
      <g class="djs-visual">
        <g>
          <g transform="translate(-8.90625, -8.90625) scale(1.5)">
            <path d="M16 25.2 A9.2 9.2 0 1 1 25.2 16 A9.2 9.2 0 0 1 16 25.2 z" style="fill:#EEAAAA;"/>
            <path d="M16 7.5 A8.5 8.5 0 1 1 7.5 16 A8.5 8.5 0 0 1 16 7.5 M16 6 A10 10 0 1 0 26 16 A10 10 0 0 0 16 6 z" stroke-width="0.4px" class="" style="fill:#990000;stroke:#990000;"/>
          </g>
        </g>
      </g>
    </g>
  </g>
  <g class="djs-group">
    <g transform="matrix(1, 0, 0, 1, 558, 118)" id="gfx-1665f3d7-0d76-4c35-8cec-ef90c40a707b" display="block" class="djs-element djs-shape" data-element-id="1665f3d7-0d76-4c35-8cec-ef90c40a707b">
      <g class="djs-visual">
        <rect x="0" y="0" width="104" height="49" fill-opacity="0" stroke-opacity="0" style="fill:#FFFFFF;stroke:transparent;"/>
        <svg width="104" height="44" class="djs-svg-text">
          <text font-family="'Segoe UI'" font-size="10.6252px" font-style="normal" font-weight="normal" lineHeight="1.2" textDirection="0" textAlign="center" class="djs-label" style="fill:black;">
            <tspan x="22.70947" y="14.75">New Tender </tspan>
            <tspan x="7.505493" y="27.75">submitted without </tspan>
            <tspan x="9.322998" y="40.75">Tender withdrawal</tspan>
          </text>
        </svg>
      </g>
    </g>
  </g>
  <g class="djs-group">
    <g transform="matrix(1, 0, 0, 1, 685, 542)" id="gfx-00f0e4c7-9245-49d3-84ab-5a03ca1847c4" display="block" class="djs-element djs-shape" data-element-id="00f0e4c7-9245-49d3-84ab-5a03ca1847c4">
      <g class="djs-visual">
        <g>
          <g transform="translate(-8.90625, -8.90625) scale(1.5)">
            <path d="M16 25.2 A9.2 9.2 0 1 1 25.2 16 A9.2 9.2 0 0 1 16 25.2 z" style="fill:#EEAAAA;"/>
            <path d="M16 7.5 A8.5 8.5 0 1 1 7.5 16 A8.5 8.5 0 0 1 16 7.5 M16 6 A10 10 0 1 0 26 16 A10 10 0 0 0 16 6 z" stroke-width="0.4px" class="" style="fill:#990000;stroke:#990000;"/>
          </g>
        </g>
      </g>
    </g>
  </g>
  <g class="djs-group">
    <g transform="matrix(1, 0, 0, 1, 668, 582)" id="gfx-c6c88568-2d6d-4307-9048-2889afbdb7af" display="block" class="djs-element djs-shape" data-element-id="c6c88568-2d6d-4307-9048-2889afbdb7af">
      <g class="djs-visual">
        <rect x="0" y="0" width="64" height="44" fill-opacity="0" stroke-opacity="0" style="fill:#FFFFFF;stroke:transparent;"/>
        <svg width="64" height="39" class="djs-svg-text">
          <text font-family="'Segoe UI'" font-size="10.6252px" font-style="normal" font-weight="normal" lineHeight="1.2" textDirection="0" textAlign="center" class="djs-label" style="fill:black;">
            <tspan x="13.29575" y="14.75">Tender  </tspan>
            <tspan x="7.555359" y="27.75">withdrawn</tspan>
          </text>
        </svg>
      </g>
    </g>
  </g>
  <g class="djs-group">
    <g transform="matrix(1, 0, 0, 1, 187, 211)" id="gfx-188128da-4470-4cd5-b56c-04d05eb59d1f" display="block" class="djs-element djs-shape" data-element-id="188128da-4470-4cd5-b56c-04d05eb59d1f">
      <g class="djs-visual">
        <g>
          <path d="M0 20 L20 40 L40 20 L20 0 z" stroke-width="1.8px" class="" style="fill:#FFFFCC;stroke:#A6A61D;"/>
          <polygon points="19.3,13.4 18.6,12.7 16,15.3 13.4,12.7 12.7,13.4 15.3,16 12.7,18.6 13.4,19.3 16,16.7 18.6,19.3 19.3,18.6 16.7,16 19.3,13.4" transform="translate(-16.8, -16.8) scale(2.3)" stroke-width="1px" style="fill:#A6A61D;stroke:#A6A61D;"/>
        </g>
      </g>
    </g>
  </g>
  <g class="djs-group">
    <g transform="matrix(1, 0, 0, 1, 166, 256)" id="gfx-1ebba45f-965d-4f7f-a0be-1c29ece5e7e4" display="block" class="djs-element djs-shape" data-element-id="1ebba45f-965d-4f7f-a0be-1c29ece5e7e4">
      <g class="djs-visual">
        <rect x="0" y="0" width="83" height="56" fill-opacity="0" stroke-opacity="0" style="fill:#FFFFFF;stroke:transparent;"/>
        <svg width="83" height="51" class="djs-svg-text">
          <text font-family="'Segoe UI'" font-size="10.6252px" font-style="normal" font-weight="normal" lineHeight="1.2" textDirection="0" textAlign="center" class="djs-label" style="fill:black;">
            <tspan x="24.2503" y="14.75">Tender </tspan>
            <tspan x="7.083565" y="27.75">Withdrawal or </tspan>
            <tspan x="9.523369" y="40.75">Modification?</tspan>
          </text>
        </svg>
      </g>
    </g>
  </g>
  <g class="djs-group">
    <g transform="matrix(1, 0, 0, 1, 427, 211)" id="gfx-154320f6-27e7-4f00-9360-c26f0e460062" display="block" class="djs-element djs-shape" data-element-id="154320f6-27e7-4f00-9360-c26f0e460062">
      <g class="djs-visual">
        <g>
          <path d="M0 20 L20 40 L40 20 L20 0 z" stroke-width="1.8px" class="" style="fill:#FFFFCC;stroke:#A6A61D;"/>
          <polygon points="19.3,13.4 18.6,12.7 16,15.3 13.4,12.7 12.7,13.4 15.3,16 12.7,18.6 13.4,19.3 16,16.7 18.6,19.3 19.3,18.6 16.7,16 19.3,13.4" transform="translate(-16.8, -16.8) scale(2.3)" stroke-width="1px" style="fill:#A6A61D;stroke:#A6A61D;"/>
        </g>
      </g>
    </g>
  </g>
  <g class="djs-group">
    <g transform="matrix(1, 0, 0, 1, 427, 118)" id="gfx-3eba71e9-0d66-4a5f-b50a-47042e8ca9b2" display="block" class="djs-element djs-shape" data-element-id="3eba71e9-0d66-4a5f-b50a-47042e8ca9b2">
      <g class="djs-visual">
        <g>
          <path d="M0 20 L20 40 L40 20 L20 0 z" stroke-width="1.8px" class="" style="fill:#FFFFCC;stroke:#A6A61D;"/>
          <polygon points="19.3,13.4 18.6,12.7 16,15.3 13.4,12.7 12.7,13.4 15.3,16 12.7,18.6 13.4,19.3 16,16.7 18.6,19.3 19.3,18.6 16.7,16 19.3,13.4" transform="translate(-16.8, -16.8) scale(2.3)" stroke-width="1px" style="fill:#A6A61D;stroke:#A6A61D;"/>
        </g>
      </g>
    </g>
  </g>
  <g class="djs-group">
    <g transform="matrix(1, 0, 0, 1, 410, 84)" id="gfx-6b31ea15-10e1-4554-ab44-20e47d8cf67d" display="block" class="djs-element djs-shape" data-element-id="6b31ea15-10e1-4554-ab44-20e47d8cf67d">
      <g class="djs-visual">
        <rect x="0" y="0" width="83" height="56" fill-opacity="0" stroke-opacity="0" style="fill:#FFFFFF;stroke:transparent;"/>
        <svg width="83" height="51" class="djs-svg-text">
          <text font-family="'Segoe UI'" font-size="10.6252px" font-style="normal" font-weight="normal" lineHeight="1.2" textDirection="0" textAlign="center" class="djs-label" style="fill:black;">
            <tspan x="8.504402" y="14.75">Withdraw old </tspan>
            <tspan x="23.32468" y="27.75">Tender?</tspan>
          </text>
        </svg>
      </g>
    </g>
  </g>
  <g class="djs-group">
    <g transform="matrix(1, 0, 0, 1, 358, 123)" id="gfx-edc3f790-c47d-4ff5-8c13-cbc4204aa1be" display="block" class="djs-element djs-shape" data-element-id="edc3f790-c47d-4ff5-8c13-cbc4204aa1be">
      <g class="djs-visual">
        <g>
          <g transform="translate(-8.90625, -8.90625) scale(1.5)">
            <path d="M15.9 25.5 A9.5 9.5 0 1 1 25.4 16 A9.6 9.6 0 0 1 15.9 25.5 z" style="fill:#FEFAEF;"/>
            <path d="M15.9 7 A9 9 0 1 1 6.9 16 A9 9 0 0 1 15.9 7 M15.9 6 A10 10 0 1 0 25.9 16 A10 10 0 0 0 15.9 6 z" class="" style="fill:#969149;"/>
            <path d="M15.9 8.8 A7.2 7.2 0 1 1 8.7 16 A7.3 7.3 0 0 1 15.9 8.8 M15.9 7.8 A8.2 8.2 0 0 0 15.9 24.2 A8.2 8.2 0 1 0 15.9 7.800001 z" class="" style="fill:#969149;"/>
            <g>
              <polygon points="20,13.5 20,13.8 15.9,16.3 12,13.7 12,13.5 20,13.5" style="fill:#969149;"/>
              <polygon points="15.9,17.5 20,15 20,18.5 12,18.5 12,14.9 15.9,17.5" style="fill:#969149;"/>
            </g>
          </g>
        </g>
      </g>
    </g>
  </g>
  <g class="djs-group">
    <g transform="matrix(1, 0, 0, 1, 331, 152)" id="gfx-81ccd46c-e28e-4648-b75c-53d11aab331c" display="block" class="djs-element djs-shape" data-element-id="81ccd46c-e28e-4648-b75c-53d11aab331c">
      <g class="djs-visual">
        <rect x="0" y="0" width="87" height="49" fill-opacity="0" stroke-opacity="0" style="fill:#FFFFFF;stroke:transparent;"/>
        <svg width="87" height="44" class="djs-svg-text">
          <text font-family="'Segoe UI'" font-size="10.6252px" font-style="normal" font-weight="normal" lineHeight="1.2" textDirection="0" textAlign="center" class="djs-label" style="fill:black;">
            <tspan x="13.42645" y="14.75">T006 Tender </tspan>
            <tspan x="18.69498" y="27.75">Reception </tspan>
            <tspan x="14.57248" y="40.75">Notification </tspan>
            <tspan x="23.91422" y="53.75">received</tspan>
          </text>
        </svg>
      </g>
    </g>
  </g>
  <g class="djs-group">
    <g id="gfx-ddb86e65-7cc0-48ee-87ae-af5306ce15a0" display="block" class="djs-element djs-connection" data-element-id="ddb86e65-7cc0-48ee-87ae-af5306ce15a0">
      <g class="djs-visual">
        <g>
          <defs>
            <marker refX="5" refY="5" orient="auto" markerWidth="10" markerHeight="10" id="startMessageFlowddb86e65-7cc0-48ee-87ae-af5306ce15a0#1">
              <circle cx="5" cy="5" r="4" stroke-width="1px" style="fill:white;stroke:black;"/>
            </marker>
            <marker refX="15" refY="6.5" orient="auto" markerWidth="16" markerHeight="14" id="endMessageFlowddb86e65-7cc0-48ee-87ae-af5306ce15a0#1">
              <path d="M0 1 L0 13 L15 6.5 z" stroke-width="1px" style="fill:white;stroke:black;"/>
            </marker>
          </defs>
          <path d="M555 261 L555 384 C555 384 555 390 549 390 L257 390 C257 390 251 390 251 396 L251 527" marker-end="url(#endMessageFlowddb86e65-7cc0-48ee-87ae-af5306ce15a0)" marker-start="url(#startMessageFlowddb86e65-7cc0-48ee-87ae-af5306ce15a0)" stroke-width="1px" stroke-linecap="round" stroke-linejoin="round" stroke-dasharray="6 4" shape-rendering="crispEdges" fill-opacity="0" class="" style="fill:transparent;stroke:black;"/>
        </g>
      </g>
    </g>
  </g>
  <g class="djs-group">
    <g transform="matrix(1, 0, 0, 1, 389, 341)" id="gfx-a0535340-09d8-44c2-af3b-992c6565a684" display="block" class="djs-element djs-shape" data-element-id="a0535340-09d8-44c2-af3b-992c6565a684">
      <g class="djs-visual">
        <rect x="0" y="0" width="66" height="59" fill-opacity="0" stroke-opacity="0" style="fill:#FFFFFF;stroke:transparent;"/>
        <svg width="66" height="54" class="djs-svg-text">
          <text font-family="'Segoe UI'" font-size="10.6252px" font-style="normal" font-weight="normal" lineHeight="1.2" textDirection="0" textAlign="left" class="djs-label" style="fill:black;">
            <tspan x="6" y="14.75">T013 </tspan>
            <tspan x="6" y="27.75">Tender </tspan>
            <tspan x="6" y="40.75">Withdrawal</tspan>
          </text>
        </svg>
      </g>
    </g>
  </g>
  <g class="djs-group">
    <g id="gfx-4841d756-86eb-4456-b02c-a13d2fe4f913" display="block" class="djs-element djs-connection" data-element-id="4841d756-86eb-4456-b02c-a13d2fe4f913">
      <g class="djs-visual">
        <g>
          <defs>
            <marker refX="5" refY="5" orient="auto" markerWidth="10" markerHeight="10" id="startMessageFlow4841d756-86eb-4456-b02c-a13d2fe4f913">
              <circle cx="5" cy="5" r="4" stroke-width="1px" style="fill:white;stroke:black;"/>
            </marker>
            <marker refX="15" refY="6.5" orient="auto" markerWidth="16" markerHeight="14" id="endMessageFlow4841d756-86eb-4456-b02c-a13d2fe4f913">
              <path d="M0 1 L0 13 L15 6.5 z" stroke-width="1px" style="fill:white;stroke:black;"/>
            </marker>
          </defs>
          <path d="M571 527 L571 414 C571 414 571 408 577 408 L674 408 C674 408 680 408 680 402 L680 261" marker-end="url(#endMessageFlow4841d756-86eb-4456-b02c-a13d2fe4f913)" marker-start="url(#startMessageFlow4841d756-86eb-4456-b02c-a13d2fe4f913)" stroke-width="1px" stroke-linecap="round" stroke-linejoin="round" stroke-dasharray="6 4" shape-rendering="crispEdges" fill-opacity="0" class="" style="fill:transparent;stroke:black;"/>
        </g>
      </g>
    </g>
  </g>
  <g class="djs-group">
    <g transform="matrix(1, 0, 0, 1, 604, 349)" id="gfx-527d80e7-1535-4308-8b04-66ac7fddf048" display="block" class="djs-element djs-shape" data-element-id="527d80e7-1535-4308-8b04-66ac7fddf048">
      <g class="djs-visual">
        <rect x="0" y="0" width="65" height="62" fill-opacity="0" stroke-opacity="0" style="fill:#FFFFFF;stroke:transparent;"/>
        <svg width="65" height="57" class="djs-svg-text">
          <text font-family="'Segoe UI'" font-size="10.6252px" font-style="normal" font-weight="normal" lineHeight="1.2" textDirection="0" textAlign="left" class="djs-label" style="fill:black;">
            <tspan x="6" y="14.75">T014 </tspan>
            <tspan x="6" y="27.75">Tender </tspan>
            <tspan x="6" y="40.75">Withdrawal</tspan>
            <tspan x="6" y="53.75">Receipt </tspan>
            <tspan x="6" y="66.75">Notificatio</tspan>
            <tspan x="6" y="79.75">n</tspan>
          </text>
        </svg>
      </g>
    </g>
  </g>
  <g class="djs-group">
    <g id="gfx-3c08998a-a730-44ca-bc69-00da5823f4ec" display="block" class="djs-element djs-connection" data-element-id="3c08998a-a730-44ca-bc69-00da5823f4ec">
      <g class="djs-visual">
        <g>
          <defs>
            <marker refX="9.8" refY="6" orient="auto" markerWidth="12" markerHeight="12" markerUnits="strokeWidth" id="arrowSecuenceFlow3c08998a-a730-44ca-bc69-00da5823f4ec">
              <path d="M0 0 L2 6 L0 12 L10 6 z" style="fill:black;"/>
            </marker>
          </defs>
          <path d="M125 231 L187 231" marker-end="url(#arrowSecuenceFlow3c08998a-a730-44ca-bc69-00da5823f4ec)" stroke-width="1px" stroke-linejoin="round" shape-rendering="crispEdges" fill-opacity="0" class="" style="fill:transparent;stroke:black;"/>
        </g>
      </g>
    </g>
  </g>
  <g class="djs-group">
    <g id="gfx-f1ebbeba-bfb0-482a-b6a8-a12eaa328bc8" display="block" class="djs-element djs-connection" data-element-id="f1ebbeba-bfb0-482a-b6a8-a12eaa328bc8">
      <g class="djs-visual">
        <g>
          <defs>
            <marker refX="9.8" refY="6" orient="auto" markerWidth="12" markerHeight="12" markerUnits="strokeWidth" id="arrowSecuenceFlowf1ebbeba-bfb0-482a-b6a8-a12eaa328bc8">
              <path d="M0 0 L2 6 L0 12 L10 6 z" style="fill:black;"/>
            </marker>
          </defs>
          <path d="M600 231 L635 231" marker-end="url(#arrowSecuenceFlowf1ebbeba-bfb0-482a-b6a8-a12eaa328bc8)" stroke-width="1px" stroke-linejoin="round" shape-rendering="crispEdges" fill-opacity="0" class="" style="fill:transparent;stroke:black;"/>
        </g>
      </g>
    </g>
  </g>
  <g class="djs-group">
    <g id="gfx-dd9e9dc3-a896-4644-8113-0305353c7789" display="block" class="djs-element djs-connection" data-element-id="dd9e9dc3-a896-4644-8113-0305353c7789">
      <g class="djs-visual">
        <g>
          <defs>
            <marker refX="9.8" refY="6" orient="auto" markerWidth="12" markerHeight="12" markerUnits="strokeWidth" id="arrowSecuenceFlowdd9e9dc3-a896-4644-8113-0305353c7789">
              <path d="M0 0 L2 6 L0 12 L10 6 z" style="fill:black;"/>
            </marker>
          </defs>
          <path d="M725 231 L781 231" marker-end="url(#arrowSecuenceFlowdd9e9dc3-a896-4644-8113-0305353c7789)" stroke-width="1px" stroke-linejoin="round" shape-rendering="crispEdges" fill-opacity="0" class="" style="fill:transparent;stroke:black;"/>
        </g>
      </g>
    </g>
  </g>
  <g class="djs-group">
    <g id="gfx-fa1f19aa-9095-4574-a203-67e9f07590f4" display="block" class="djs-element djs-connection" data-element-id="fa1f19aa-9095-4574-a203-67e9f07590f4">
      <g class="djs-visual">
        <g>
          <defs>
            <marker refX="9.8" refY="6" orient="auto" markerWidth="12" markerHeight="12" markerUnits="strokeWidth" id="arrowSecuenceFlowfa1f19aa-9095-4574-a203-67e9f07590f4">
              <path d="M0 0 L2 6 L0 12 L10 6 z" style="fill:black;"/>
            </marker>
          </defs>
          <path d="M207 211 L207 144 C207 144 207 138 213 138 L238 138" marker-end="url(#arrowSecuenceFlowfa1f19aa-9095-4574-a203-67e9f07590f4)" stroke-width="1px" stroke-linejoin="round" shape-rendering="crispEdges" fill-opacity="0" class="" style="fill:transparent;stroke:black;"/>
        </g>
      </g>
    </g>
  </g>
  <g class="djs-group">
    <g transform="matrix(1, 0, 0, 1, 131, 163)" id="gfx-9eeea3bd-da08-411f-a825-0a07cf8e3c3b" display="block" class="djs-element djs-shape" data-element-id="9eeea3bd-da08-411f-a825-0a07cf8e3c3b">
      <g class="djs-visual">
        <rect x="0" y="0" width="90" height="30" fill-opacity="0" stroke-opacity="0" style="fill:#FFFFFF;stroke:transparent;"/>
        <svg width="90" height="25" class="djs-svg-text">
          <text font-family="'Segoe UI'" font-size="10.6252px" font-style="normal" font-weight="normal" lineHeight="1.2" textDirection="0" textAlign="center" class="djs-label" style="fill:black;">
            <tspan x="28.47627" y="14.75">Modify</tspan>
          </text>
        </svg>
      </g>
    </g>
  </g>
  <g class="djs-group">
    <g id="gfx-9e1539e1-3cea-40ef-ab1e-b6a33bba486d" display="block" class="djs-element djs-connection" data-element-id="9e1539e1-3cea-40ef-ab1e-b6a33bba486d">
      <g class="djs-visual">
        <g>
          <defs>
            <marker refX="9.8" refY="6" orient="auto" markerWidth="12" markerHeight="12" markerUnits="strokeWidth" id="arrowSecuenceFlow9e1539e1-3cea-40ef-ab1e-b6a33bba486d">
              <path d="M0 0 L2 6 L0 12 L10 6 z" style="fill:black;"/>
            </marker>
          </defs>
          <path d="M467 231 L510 231" marker-end="url(#arrowSecuenceFlow9e1539e1-3cea-40ef-ab1e-b6a33bba486d)" stroke-width="1px" stroke-linejoin="round" shape-rendering="crispEdges" fill-opacity="0" class="" style="fill:transparent;stroke:black;"/>
        </g>
      </g>
    </g>
  </g>
  <g class="djs-group">
    <g id="gfx-0cde7a1b-671c-4103-b4ef-5eaada07a554" display="block" class="djs-element djs-connection" data-element-id="0cde7a1b-671c-4103-b4ef-5eaada07a554">
      <g class="djs-visual">
        <g>
          <defs>
            <marker refX="9.8" refY="6" orient="auto" markerWidth="12" markerHeight="12" markerUnits="strokeWidth" id="arrowSecuenceFlow0cde7a1b-671c-4103-b4ef-5eaada07a554">
              <path d="M0 0 L2 6 L0 12 L10 6 z" style="fill:black;"/>
            </marker>
          </defs>
          <path d="M227 231 L427 231" marker-end="url(#arrowSecuenceFlow0cde7a1b-671c-4103-b4ef-5eaada07a554)" stroke-width="1px" stroke-linejoin="round" shape-rendering="crispEdges" fill-opacity="0" class="" style="fill:transparent;stroke:black;"/>
        </g>
      </g>
    </g>
  </g>
  <g class="djs-group">
    <g transform="matrix(1, 0, 0, 1, 257, 233)" id="gfx-1b149cbc-cb7e-44bf-bfa1-2121374e3692" display="block" class="djs-element djs-shape" data-element-id="1b149cbc-cb7e-44bf-bfa1-2121374e3692">
      <g class="djs-visual">
        <rect x="0" y="0" width="90" height="30" fill-opacity="0" stroke-opacity="0" style="fill:#FFFFFF;stroke:transparent;"/>
        <svg width="90" height="25" class="djs-svg-text">
          <text font-family="'Segoe UI'" font-size="10.6252px" font-style="normal" font-weight="normal" lineHeight="1.2" textDirection="0" textAlign="center" class="djs-label" style="fill:black;">
            <tspan x="22.43771" y="14.75">Withdraw</tspan>
          </text>
        </svg>
      </g>
    </g>
  </g>
  <g class="djs-group">
    <g id="gfx-27f526b4-d072-4992-af15-f37168155243" display="block" class="djs-element djs-connection" data-element-id="27f526b4-d072-4992-af15-f37168155243">
      <g class="djs-visual">
        <g>
          <defs>
            <marker refX="9.8" refY="6" orient="auto" markerWidth="12" markerHeight="12" markerUnits="strokeWidth" id="arrowSecuenceFlow27f526b4-d072-4992-af15-f37168155243">
              <path d="M0 0 L2 6 L0 12 L10 6 z" style="fill:black;"/>
            </marker>
          </defs>
          <path d="M328 138 L358 138" marker-end="url(#arrowSecuenceFlow27f526b4-d072-4992-af15-f37168155243)" stroke-width="1px" stroke-linejoin="round" shape-rendering="crispEdges" fill-opacity="0" class="" style="fill:transparent;stroke:black;"/>
        </g>
      </g>
    </g>
  </g>
  <g class="djs-group">
    <g id="gfx-771f121a-29c6-4b62-9721-6b82c31fd8c2" display="block" class="djs-element djs-connection" data-element-id="771f121a-29c6-4b62-9721-6b82c31fd8c2">
      <g class="djs-visual">
        <g>
          <defs>
            <marker refX="9.8" refY="6" orient="auto" markerWidth="12" markerHeight="12" markerUnits="strokeWidth" id="arrowSecuenceFlow771f121a-29c6-4b62-9721-6b82c31fd8c2">
              <path d="M0 0 L2 6 L0 12 L10 6 z" style="fill:black;"/>
            </marker>
          </defs>
          <path d="M388 138 L427 138" marker-end="url(#arrowSecuenceFlow771f121a-29c6-4b62-9721-6b82c31fd8c2)" stroke-width="1px" stroke-linejoin="round" shape-rendering="crispEdges" fill-opacity="0" class="" style="fill:transparent;stroke:black;"/>
        </g>
      </g>
    </g>
  </g>
  <g class="djs-group">
    <g id="gfx-0fefb7a7-9090-4584-9626-0773859371d5" display="block" class="djs-element djs-connection" data-element-id="0fefb7a7-9090-4584-9626-0773859371d5">
      <g class="djs-visual">
        <g>
          <defs>
            <marker refX="9.8" refY="6" orient="auto" markerWidth="12" markerHeight="12" markerUnits="strokeWidth" id="arrowSecuenceFlow0fefb7a7-9090-4584-9626-0773859371d5">
              <path d="M0 0 L2 6 L0 12 L10 6 z" style="fill:black;"/>
            </marker>
          </defs>
          <path d="M447 158 L447 211" marker-end="url(#arrowSecuenceFlow0fefb7a7-9090-4584-9626-0773859371d5)" stroke-width="1px" stroke-linejoin="round" shape-rendering="crispEdges" fill-opacity="0" class="" style="fill:transparent;stroke:black;"/>
        </g>
      </g>
    </g>
  </g>
  <g class="djs-group">
    <g transform="matrix(1, 0, 0, 1, 415, 169)" id="gfx-6c3a1cd8-48f0-4651-9f27-43a937c7e855" display="block" class="djs-element djs-shape" data-element-id="6c3a1cd8-48f0-4651-9f27-43a937c7e855">
      <g class="djs-visual">
        <rect x="0" y="0" width="90" height="30" fill-opacity="0" stroke-opacity="0" style="fill:#FFFFFF;stroke:transparent;"/>
        <svg width="90" height="25" class="djs-svg-text">
          <text font-family="'Segoe UI'" font-size="10.6252px" font-style="normal" font-weight="normal" lineHeight="1.2" textDirection="0" textAlign="center" class="djs-label" style="fill:black;">
            <tspan x="37.50172" y="14.75">Yes</tspan>
          </text>
        </svg>
      </g>
    </g>
  </g>
  <g class="djs-group">
    <g id="gfx-7e0bc27c-24eb-4305-b01a-c32780a17ec0" display="block" class="djs-element djs-connection" data-element-id="7e0bc27c-24eb-4305-b01a-c32780a17ec0">
      <g class="djs-visual">
        <g>
          <defs>
            <marker refX="9.8" refY="6" orient="auto" markerWidth="12" markerHeight="12" markerUnits="strokeWidth" id="arrowSecuenceFlow7e0bc27c-24eb-4305-b01a-c32780a17ec0">
              <path d="M0 0 L2 6 L0 12 L10 6 z" style="fill:black;"/>
            </marker>
          </defs>
          <path d="M467 138 L527 138" marker-end="url(#arrowSecuenceFlow7e0bc27c-24eb-4305-b01a-c32780a17ec0)" stroke-width="1px" stroke-linejoin="round" shape-rendering="crispEdges" fill-opacity="0" class="" style="fill:transparent;stroke:black;"/>
        </g>
      </g>
    </g>
  </g>
  <g class="djs-group">
    <g transform="matrix(1, 0, 0, 1, 447, 115)" id="gfx-fdd5758a-79cb-4983-9203-29b015f4b3de" display="block" class="djs-element djs-shape" data-element-id="fdd5758a-79cb-4983-9203-29b015f4b3de">
      <g class="djs-visual">
        <rect x="0" y="0" width="90" height="30" fill-opacity="0" stroke-opacity="0" style="fill:#FFFFFF;stroke:transparent;"/>
        <svg width="90" height="25" class="djs-svg-text">
          <text font-family="'Segoe UI'" font-size="10.6252px" font-style="normal" font-weight="normal" lineHeight="1.2" textDirection="0" textAlign="center" class="djs-label" style="fill:black;">
            <tspan x="37.91655" y="14.75">No</tspan>
          </text>
        </svg>
      </g>
    </g>
  </g>
  <g class="djs-group">
    <g id="gfx-3876be1e-9f6f-4d36-90a0-119738f753e1" display="block" class="djs-element djs-connection" data-element-id="3876be1e-9f6f-4d36-90a0-119738f753e1">
      <g class="djs-visual">
        <g>
          <defs>
            <marker refX="9.8" refY="6" orient="auto" markerWidth="12" markerHeight="12" markerUnits="strokeWidth" id="arrowSecuenceFlow3876be1e-9f6f-4d36-90a0-119738f753e1">
              <path d="M0 0 L2 6 L0 12 L10 6 z" style="fill:black;"/>
            </marker>
          </defs>
          <path d="M296 557 L375 557" marker-end="url(#arrowSecuenceFlow3876be1e-9f6f-4d36-90a0-119738f753e1)" stroke-width="1px" stroke-linejoin="round" shape-rendering="crispEdges" fill-opacity="0" class="" style="fill:transparent;stroke:black;"/>
        </g>
      </g>
    </g>
  </g>
  <g class="djs-group">
    <g id="gfx-871561a3-02d5-4d27-8862-babc0ec4e5d5" display="block" class="djs-element djs-connection" data-element-id="871561a3-02d5-4d27-8862-babc0ec4e5d5">
      <g class="djs-visual">
        <g>
          <defs>
            <marker refX="9.8" refY="6" orient="auto" markerWidth="12" markerHeight="12" markerUnits="strokeWidth" id="arrowSecuenceFlow871561a3-02d5-4d27-8862-babc0ec4e5d5">
              <path d="M0 0 L2 6 L0 12 L10 6 z" style="fill:black;"/>
            </marker>
          </defs>
          <path d="M465 557 L526 557" marker-end="url(#arrowSecuenceFlow871561a3-02d5-4d27-8862-babc0ec4e5d5)" stroke-width="1px" stroke-linejoin="round" shape-rendering="crispEdges" fill-opacity="0" class="" style="fill:transparent;stroke:black;"/>
        </g>
      </g>
    </g>
  </g>
  <g class="djs-group">
    <g id="gfx-af553495-056a-4e09-9243-56e39f5d4632" display="block" class="djs-element djs-connection" data-element-id="af553495-056a-4e09-9243-56e39f5d4632">
      <g class="djs-visual">
        <g>
          <defs>
            <marker refX="9.8" refY="6" orient="auto" markerWidth="12" markerHeight="12" markerUnits="strokeWidth" id="arrowSecuenceFlowaf553495-056a-4e09-9243-56e39f5d4632">
              <path d="M0 0 L2 6 L0 12 L10 6 z" style="fill:black;"/>
            </marker>
          </defs>
          <path d="M154 557 L206 557" marker-end="url(#arrowSecuenceFlowaf553495-056a-4e09-9243-56e39f5d4632)" stroke-width="1px" stroke-linejoin="round" shape-rendering="crispEdges" fill-opacity="0" class="" style="fill:transparent;stroke:black;"/>
        </g>
      </g>
    </g>
  </g>
  <g class="djs-group">
    <g id="gfx-6df908e6-f485-4797-b265-fce4d7fbdb89" display="block" class="djs-element djs-connection" data-element-id="6df908e6-f485-4797-b265-fce4d7fbdb89">
      <g class="djs-visual">
        <g>
          <defs>
            <marker refX="9.8" refY="6" orient="auto" markerWidth="12" markerHeight="12" markerUnits="strokeWidth" id="arrowSecuenceFlow6df908e6-f485-4797-b265-fce4d7fbdb89">
              <path d="M0 0 L2 6 L0 12 L10 6 z" style="fill:black;"/>
            </marker>
          </defs>
          <path d="M616 557 L685 557" marker-end="url(#arrowSecuenceFlow6df908e6-f485-4797-b265-fce4d7fbdb89)" stroke-width="1px" stroke-linejoin="round" shape-rendering="crispEdges" fill-opacity="0" class="" style="fill:transparent;stroke:black;"/>
        </g>
      </g>
    </g>
  </g>
  
</svg>