<?xml version="1.0" encoding="utf-8"?>
<!DOCTYPE svg PUBLIC "-//W3C//DTD SVG 1.1//EN" "http://www.w3.org/Graphics/SVG/1.1/DTD/svg11.dtd">
<svg width="846" height="769px" viewBox="14, 15, 846, 769" xmlns="http://www.w3.org/2000/svg" xmlns:xlink="http://www.w3.org/1999/xlink" xmlns:xml="http://www.w3.org/XML/1998/namespace" version="1.1">
  <defs>
    <marker refX="5" refY="5" orient="auto" markerWidth="10" markerHeight="10" id="startMessageFlow74528831-cea4-41cc-bc0f-2eb8ee49c44f">
      <circle cx="5" cy="5" r="4" stroke-width="1px" style="fill:white;stroke:black;" />
    </marker>
    <marker refX="15" refY="6.5" orient="auto" markerWidth="16" markerHeight="14" id="endMessageFlow74528831-cea4-41cc-bc0f-2eb8ee49c44f">
      <path d="M0 1 L0 13 L15 6.5 z" stroke-width="1px" style="fill:white;stroke:black;" />
    </marker>
  </defs>
  <g class="djs-group">
    <g transform="matrix(1, 0, 0, 1, 30, 31)" id="gfx-c4f772bb-44fe-480b-8e4b-9865a06448b6" display="block" class="djs-element djs-shape" data-element-id="c4f772bb-44fe-480b-8e4b-9865a06448b6">
      <g class="djs-visual">
        <g>
          <rect x="0" y="0" width="814" height="229" opacity="0" fill-opacity="0" style="fill:transparent;" />
          <path d="M814 0 L0 0 L0 229 L814 229 z M50 0 L50 229" stroke-width="1px" shape-rendering="crispEdges" fill-opacity="0" class="" style="fill:transparent;stroke:black;" />
        </g>
      </g>
      <svg width="50" height="229" class="djs-svg-text">
        <text transform="matrix(-1.83697E-16, -1, 1, -1.83697E-16, 0, 229)" font-family="'Segoe UI'" font-size="13.2815px" font-style="normal" font-weight="bold" lineHeight="1.2" textDirection="270" textAlign="center" class="djs-label" style="fill:black;">
          <tspan x="54.43532" y="28.75">Economic Operator</tspan>
        </text>
      </svg>
    </g>
  </g>
  <g class="djs-group">
    <g transform="matrix(1, 0, 0, 1, 32, 359)" id="gfx-4be366c5-4164-4775-a302-8a6d80fa9488" display="block" class="djs-element djs-shape" data-element-id="4be366c5-4164-4775-a302-8a6d80fa9488">
      <g class="djs-visual">
        <g>
          <rect x="0" y="0" width="812" height="279" opacity="0" fill-opacity="0" style="fill:transparent;" />
          <path d="M812 0 L0 0 L0 279 L812 279 z M50 0 L50 279" stroke-width="1px" shape-rendering="crispEdges" fill-opacity="0" class="" style="fill:transparent;stroke:black;" />
        </g>
      </g>
      <svg width="50" height="279" class="djs-svg-text">
        <text transform="matrix(-1.83697E-16, -1, 1, -1.83697E-16, 0, 279)" font-family="'Segoe UI'" font-size="13.2815px" font-style="normal" font-weight="bold" lineHeight="1.2" textDirection="270" textAlign="center" class="djs-label" style="fill:black;">
          <tspan x="84.86272" y="28.75">Contracting Body</tspan>
        </text>
      </svg>
    </g>
  </g>
  <g class="djs-group">
    <g transform="matrix(1, 0, 0, 1, 200, 81)" id="gfx-6038e43e-3869-4942-a5bb-e600872f8af0" display="block" class="djs-element djs-shape" data-element-id="6038e43e-3869-4942-a5bb-e600872f8af0">
      <g class="djs-visual">
        <g>
          <rect x="0" y="0" width="90" height="80" rx="8" stroke-width="2px" class="" style="fill:#ECEFFF;stroke:#03689A;" />
          <g />
        </g>
      </g>
      <svg width="90" height="76" class="djs-svg-text">
        <text font-family="'Segoe UI'" font-size="10.6252px" font-style="normal" font-weight="normal" lineHeight="1.2" textDirection="0" textAlign="center" class="djs-label" style="fill:black;">
          <tspan x="7.174103" y="30.25">Express interest </tspan>
          <tspan x="15.51762" y="43.25">for business </tspan>
          <tspan x="17.22366" y="56.25">opportunity</tspan>
        </text>
      </svg>
    </g>
  </g>
  <g class="djs-group">
    <g transform="matrix(1, 0, 0, 1, 318, 81)" id="gfx-8d194529-f112-4f5b-a5c7-967c865a5c77" display="block" class="djs-element djs-shape" data-element-id="8d194529-f112-4f5b-a5c7-967c865a5c77">
      <g class="djs-visual">
        <g>
          <rect x="0" y="0" width="90" height="80" rx="8" stroke-width="2px" class="" style="fill:#ECEFFF;stroke:#03689A;" />
          <g />
        </g>
      </g>
      <svg width="90" height="76" class="djs-svg-text">
        <text font-family="'Segoe UI'" font-size="10.6252px" font-style="normal" font-weight="normal" lineHeight="1.2" textDirection="0" textAlign="center" class="djs-label" style="fill:black;">
          <tspan x="25.91203" y="17.25">Receive </tspan>
          <tspan x="13.23079" y="30.25">procurement </tspan>
          <tspan x="19.48195" y="43.25">procedure </tspan>
          <tspan x="15.00426" y="56.25">subscription </tspan>
          <tspan x="15.15981" y="69.25">confirmation</tspan>
        </text>
      </svg>
    </g>
  </g>
  <g class="djs-group">
    <g transform="matrix(1, 0, 0, 1, 514, 171)" id="gfx-b510e1e3-eb61-4eef-b703-81546ea0d3b0" display="block" class="djs-element djs-shape" data-element-id="b510e1e3-eb61-4eef-b703-81546ea0d3b0">
      <g class="djs-visual">
        <g>
          <rect x="0" y="0" width="90" height="60" rx="8" stroke-width="2px" class="" style="fill:#ECEFFF;stroke:#03689A;" />
          <g />
        </g>
      </g>
      <svg width="90" height="56" class="djs-svg-text">
        <text font-family="'Segoe UI'" font-size="10.6252px" font-style="normal" font-weight="normal" lineHeight="1.2" textDirection="0" textAlign="center" class="djs-label" style="fill:black;">
          <tspan x="14.77609" y="26.75">Unsubscribe </tspan>
          <tspan x="8.288956" y="39.75">from procedure</tspan>
        </text>
      </svg>
    </g>
  </g>
  <g class="djs-group">
    <g transform="matrix(1, 0, 0, 1, 630, 171)" id="gfx-1d99c711-4478-43b6-bb3f-485af6e05991" display="block" class="djs-element djs-shape" data-element-id="1d99c711-4478-43b6-bb3f-485af6e05991">
      <g class="djs-visual">
        <g>
          <rect x="0" y="0" width="90" height="60" rx="8" stroke-width="2px" class="" style="fill:#ECEFFF;stroke:#03689A;" />
          <g />
        </g>
      </g>
      <svg width="90" height="56" class="djs-svg-text">
        <text font-family="'Segoe UI'" font-size="10.6252px" font-style="normal" font-weight="normal" lineHeight="1.2" textDirection="0" textAlign="center" class="djs-label" style="fill:black;">
          <tspan x="25.91203" y="20.25">Receive </tspan>
          <tspan x="8.994217" y="33.25">unsubscription </tspan>
          <tspan x="15.15981" y="46.25">confirmation</tspan>
        </text>
      </svg>
    </g>
  </g>
  <g class="djs-group">
    <g transform="matrix(1, 0, 0, 1, 200, 491)" id="gfx-2f1199e7-7aef-4622-a3ff-76794836d04e" display="block" class="djs-element djs-shape" data-element-id="2f1199e7-7aef-4622-a3ff-76794836d04e">
      <g class="djs-visual">
        <g>
          <rect x="0" y="0" width="90" height="76" rx="8" stroke-width="2px" class="" style="fill:#ECEFFF;stroke:#03689A;" />
          <g />
        </g>
      </g>
      <svg width="90" height="72" class="djs-svg-text">
        <text font-family="'Segoe UI'" font-size="10.6252px" font-style="normal" font-weight="normal" lineHeight="1.2" textDirection="0" textAlign="center" class="djs-label" style="fill:black;">
          <tspan x="25.91203" y="15.25">Receive </tspan>
          <tspan x="13.23079" y="28.25">procurement </tspan>
          <tspan x="19.48195" y="41.25">procedure </tspan>
          <tspan x="15.00426" y="54.25">subscription </tspan>
          <tspan x="27.41584" y="67.25">request</tspan>
        </text>
      </svg>
    </g>
  </g>
  <g class="djs-group">
    <g transform="matrix(1, 0, 0, 1, 318, 491)" id="gfx-df728932-20e1-4780-8e09-8789fab0c2a0" display="block" class="djs-element djs-shape" data-element-id="df728932-20e1-4780-8e09-8789fab0c2a0">
      <g class="djs-visual">
        <g>
          <rect x="0" y="0" width="90" height="75" rx="8" stroke-width="2px" class="" style="fill:#ECEFFF;stroke:#03689A;" />
          <g />
        </g>
      </g>
      <svg width="90" height="71" class="djs-svg-text">
        <text font-family="'Segoe UI'" font-size="10.6252px" font-style="normal" font-weight="normal" lineHeight="1.2" textDirection="0" textAlign="center" class="djs-label" style="fill:black;">
          <tspan x="24.7738" y="14.75">Confirm </tspan>
          <tspan x="13.23079" y="27.75">procurement </tspan>
          <tspan x="19.48195" y="40.75">procedure </tspan>
          <tspan x="15.00426" y="53.75">subscription </tspan>
          <tspan x="23.85596" y="66.75">response</tspan>
        </text>
      </svg>
    </g>
  </g>
  <g class="djs-group">
    <g transform="matrix(1, 0, 0, 1, 514, 402)" id="gfx-b059fe90-753e-4f2f-a7af-bf720a9a456e" display="block" class="djs-element djs-shape" data-element-id="b059fe90-753e-4f2f-a7af-bf720a9a456e">
      <g class="djs-visual">
        <g>
          <rect x="0" y="0" width="90" height="60" rx="8" stroke-width="2px" class="" style="fill:#ECEFFF;stroke:#03689A;" />
          <g />
        </g>
      </g>
      <svg width="90" height="56" class="djs-svg-text">
        <text font-family="'Segoe UI'" font-size="10.6252px" font-style="normal" font-weight="normal" lineHeight="1.2" textDirection="0" textAlign="center" class="djs-label" style="fill:black;">
          <tspan x="25.91203" y="13.75">Receive </tspan>
          <tspan x="13.23079" y="26.75">procurement </tspan>
          <tspan x="19.48195" y="39.75">procedure </tspan>
          <tspan x="10.44876" y="52.75">unsubscription</tspan>
        </text>
      </svg>
    </g>
  </g>
  <g class="djs-group">
    <g transform="matrix(1, 0, 0, 1, 638, 402)" id="gfx-c1e2ce43-9cfc-492b-85aa-0ff09f32a562" display="block" class="djs-element djs-shape" data-element-id="c1e2ce43-9cfc-492b-85aa-0ff09f32a562">
      <g class="djs-visual">
        <g>
          <rect x="0" y="0" width="90" height="60" rx="8" stroke-width="2px" class="" style="fill:#ECEFFF;stroke:#03689A;" />
          <g />
        </g>
      </g>
      <svg width="90" height="56" class="djs-svg-text">
        <text font-family="'Segoe UI'" font-size="10.6252px" font-style="normal" font-weight="normal" lineHeight="1.2" textDirection="0" textAlign="center" class="djs-label" style="fill:black;">
          <tspan x="24.7738" y="13.75">Confirm </tspan>
          <tspan x="13.23079" y="26.75">procurement </tspan>
          <tspan x="19.48195" y="39.75">procedure </tspan>
          <tspan x="10.44876" y="52.75">unsubscription</tspan>
        </text>
      </svg>
    </g>
  </g>
  <g class="djs-group">
    <g transform="matrix(1, 0, 0, 1, 128, 106)" id="gfx-30216959-99f9-4e34-87de-21507c2c5f36" display="block" class="djs-element djs-shape" data-element-id="30216959-99f9-4e34-87de-21507c2c5f36">
      <g class="djs-visual">
        <g>
          <g transform="translate(-8.90625, -8.90625) scale(1.5)">
            <path d="M16 25.2 C10.9 25.2 6.8 21.1 6.8 16 C6.8 10.9 10.9 6.8 16 6.8 C21.1 6.8 25.2 10.9 25.2 16 C25.2 21.1 21.1 25.2 16 25.2 L16 25.2 z" style="fill:#E6FF97;" />
            <path d="M15.9 7 C20.9 7 24.9 11 24.9 16 C24.9 21 20.9 25 15.9 25 C10.9 25 6.9 21 6.9 16 C6.9 11 10.9 7 15.9 7 M15.9 6 C10.4 6 5.9 10.5 5.9 16 C5.9 21.5 10.4 26 15.9 26 C21.4 26 25.9 21.5 25.9 16 C25.9 10.5 21.4 6 15.9 6 z" stroke-width="0.2px" class="" style="fill:#62A716;stroke:#62A716;" />
          </g>
        </g>
      </g>
    </g>
  </g>
  <g class="djs-group">
    <g transform="matrix(1, 0, 0, 1, 95, 144)" id="gfx-44e45acc-492c-4bb2-93a9-c2bdf2191c8d" display="block" class="djs-element djs-shape" data-element-id="44e45acc-492c-4bb2-93a9-c2bdf2191c8d">
      <g class="djs-visual">
        <rect x="0" y="0" width="96" height="53" fill-opacity="0" stroke-opacity="0" style="fill:transparent;stroke:transparent;" />
        <svg width="96" height="48" class="djs-svg-text">
          <text font-family="'Segoe UI'" font-size="10.6252px" font-style="normal" font-weight="normal" lineHeight="1.2" textDirection="0" textAlign="center" class="djs-label" style="fill:black;">
            <tspan x="8.434334" y="14.75">Noticed received</tspan>
          </text>
        </svg>
      </g>
    </g>
  </g>
  <g class="djs-group">
    <g transform="matrix(1, 0, 0, 1, 138, 506)" id="gfx-1e103342-56d4-40d9-aae3-79ea8ad6a255" display="block" class="djs-element djs-shape" data-element-id="1e103342-56d4-40d9-aae3-79ea8ad6a255">
      <g class="djs-visual">
        <g>
          <g transform="translate(-8.90625, -8.90625) scale(1.5)">
            <path d="M16 25.2 C10.9 25.2 6.8 21.1 6.8 16 C6.8 10.9 10.9 6.8 16 6.8 C21.1 6.8 25.2 10.9 25.2 16 C25.2 21.1 21.1 25.2 16 25.2 L16 25.2 z" style="fill:#E6FF97;" />
            <path d="M15.9 7 C20.9 7 24.9 11 24.9 16 C24.9 21 20.9 25 15.9 25 C10.9 25 6.9 21 6.9 16 C6.9 11 10.9 7 15.9 7 M15.9 6 C10.4 6 5.9 10.5 5.9 16 C5.9 21.5 10.4 26 15.9 26 C21.4 26 25.9 21.5 25.9 16 C25.9 10.5 21.4 6 15.9 6 z" stroke-width="0.2px" class="" style="fill:#62A716;stroke:#62A716;" />
          </g>
        </g>
      </g>
    </g>
  </g>
  <g class="djs-group">
    <g transform="matrix(1, 0, 0, 1, 105, 544)" id="gfx-4d38cda8-0d3f-4aad-9b7c-8772fc3bad99" display="block" class="djs-element djs-shape" data-element-id="4d38cda8-0d3f-4aad-9b7c-8772fc3bad99">
      <g class="djs-visual">
        <rect x="0" y="0" width="96" height="53" fill-opacity="0" stroke-opacity="0" style="fill:transparent;stroke:transparent;" />
        <svg width="96" height="48" class="djs-svg-text">
          <text font-family="'Segoe UI'" font-size="10.6252px" font-style="normal" font-weight="normal" lineHeight="1.2" textDirection="0" textAlign="center" class="djs-label" style="fill:black;">
            <tspan x="8.164696" y="14.75">Notice published</tspan>
          </text>
        </svg>
      </g>
    </g>
  </g>
  <g class="djs-group">
    <g transform="matrix(1, 0, 0, 1, 752, 61)" id="gfx-712e18ab-8ba0-4ffe-a3be-faff9afaeab8" display="block" class="djs-element djs-shape" data-element-id="712e18ab-8ba0-4ffe-a3be-faff9afaeab8">
      <g class="djs-visual">
        <g>
          <g transform="translate(-8.90625, -8.90625) scale(1.5)">
            <path d="M16 25.2 A9.2 9.2 0 1 1 25.2 16 A9.2 9.2 0 0 1 16 25.2 z" style="fill:#EEAAAA;" />
            <path d="M16 7.5 A8.5 8.5 0 1 1 7.5 16 A8.5 8.5 0 0 1 16 7.5 M16 6 A10 10 0 1 0 26 16 A10 10 0 0 0 16 6 z" stroke-width="0.4px" class="" style="fill:#990000;stroke:#990000;" />
          </g>
        </g>
      </g>
    </g>
  </g>
  <g class="djs-group">
    <g transform="matrix(1, 0, 0, 1, 697.998, 98.9909)" id="gfx-83da93ec-de41-49dd-a1b9-9a72ca401c90" display="block" class="djs-element djs-shape" data-element-id="83da93ec-de41-49dd-a1b9-9a72ca401c90">
      <g class="djs-visual">
        <rect x="0" y="0" width="136.9954" height="52.99479" fill-opacity="0" stroke-opacity="0" style="fill:transparent;stroke:transparent;" />
        <svg width="136.9954" height="47.99479" class="djs-svg-text">
          <text font-family="'Segoe UI'" font-size="10.6252px" font-style="normal" font-weight="normal" lineHeight="1.2" textDirection="0" textAlign="center" class="djs-label" style="fill:black;">
            <tspan x="42.6867" y="14.75">Subscribed</tspan>
          </text>
        </svg>
      </g>
    </g>
  </g>
  <g class="djs-group">
    <g transform="matrix(1, 0, 0, 1, 752, 186)" id="gfx-50ab958f-1019-4618-9f03-f6ec62a5afe6" display="block" class="djs-element djs-shape" data-element-id="50ab958f-1019-4618-9f03-f6ec62a5afe6">
      <g class="djs-visual">
        <g>
          <g transform="translate(-8.90625, -8.90625) scale(1.5)">
            <path d="M16 25.2 A9.2 9.2 0 1 1 25.2 16 A9.2 9.2 0 0 1 16 25.2 z" style="fill:#EEAAAA;" />
            <path d="M16 7.5 A8.5 8.5 0 1 1 7.5 16 A8.5 8.5 0 0 1 16 7.5 M16 6 A10 10 0 1 0 26 16 A10 10 0 0 0 16 6 z" stroke-width="0.4px" class="" style="fill:#990000;stroke:#990000;" />
          </g>
        </g>
      </g>
    </g>
  </g>
  <g class="djs-group">
    <g transform="matrix(1, 0, 0, 1, 722, 224)" id="gfx-bfc07940-fdba-4d2c-9460-7c250b5caabb" display="block" class="djs-element djs-shape" data-element-id="bfc07940-fdba-4d2c-9460-7c250b5caabb">
      <g class="djs-visual">
        <rect x="0" y="0" width="90" height="30" fill-opacity="0" stroke-opacity="0" style="fill:transparent;stroke:transparent;" />
        <svg width="90" height="25" class="djs-svg-text">
          <text font-family="'Segoe UI'" font-size="10.6252px" font-style="normal" font-weight="normal" lineHeight="1.2" textDirection="0" textAlign="center" class="djs-label" style="fill:black;">
            <tspan x="13.10375" y="14.75">Unsubscribed</tspan>
          </text>
        </svg>
      </g>
    </g>
  </g>
  <g class="djs-group">
    <g transform="matrix(1, 0, 0, 1, 755, 559)" id="gfx-f15fe400-b9d6-4755-9522-ea49832853ac" display="block" class="djs-element djs-shape" data-element-id="f15fe400-b9d6-4755-9522-ea49832853ac">
      <g class="djs-visual">
        <g>
          <g transform="translate(-8.90625, -8.90625) scale(1.5)">
            <path d="M16 25.2 A9.2 9.2 0 1 1 25.2 16 A9.2 9.2 0 0 1 16 25.2 z" style="fill:#EEAAAA;" />
            <path d="M16 7.5 A8.5 8.5 0 1 1 7.5 16 A8.5 8.5 0 0 1 16 7.5 M16 6 A10 10 0 1 0 26 16 A10 10 0 0 0 16 6 z" stroke-width="0.4px" class="" style="fill:#990000;stroke:#990000;" />
          </g>
        </g>
      </g>
    </g>
  </g>
  <g class="djs-group">
    <g transform="matrix(1, 0, 0, 1, 725, 597)" id="gfx-fd243535-70ba-4bd3-8abc-2207f70544d8" display="block" class="djs-element djs-shape" data-element-id="fd243535-70ba-4bd3-8abc-2207f70544d8">
      <g class="djs-visual">
        <rect x="0" y="0" width="90" height="30" fill-opacity="0" stroke-opacity="0" style="fill:transparent;stroke:transparent;" />
        <svg width="90" height="25" class="djs-svg-text">
          <text font-family="'Segoe UI'" font-size="10.6252px" font-style="normal" font-weight="normal" lineHeight="1.2" textDirection="0" textAlign="center" class="djs-label" style="fill:black;">
            <tspan x="19.18898" y="14.75">Subscribed</tspan>
          </text>
        </svg>
      </g>
    </g>
  </g>
  <g class="djs-group">
    <g transform="matrix(1, 0, 0, 1, 755, 417)" id="gfx-39d701ba-b435-4ed8-914f-013aac2e4795" display="block" class="djs-element djs-shape" data-element-id="39d701ba-b435-4ed8-914f-013aac2e4795">
      <g class="djs-visual">
        <g>
          <g transform="translate(-8.90625, -8.90625) scale(1.5)">
            <path d="M16 25.2 A9.2 9.2 0 1 1 25.2 16 A9.2 9.2 0 0 1 16 25.2 z" style="fill:#EEAAAA;" />
            <path d="M16 7.5 A8.5 8.5 0 1 1 7.5 16 A8.5 8.5 0 0 1 16 7.5 M16 6 A10 10 0 1 0 26 16 A10 10 0 0 0 16 6 z" stroke-width="0.4px" class="" style="fill:#990000;stroke:#990000;" />
          </g>
        </g>
      </g>
    </g>
  </g>
  <g class="djs-group">
    <g transform="matrix(1, 0, 0, 1, 731, 455)" id="gfx-94102fdd-4821-4cc4-8ae7-f5c9bfe38ef3" display="block" class="djs-element djs-shape" data-element-id="94102fdd-4821-4cc4-8ae7-f5c9bfe38ef3">
      <g class="djs-visual">
        <rect x="0" y="0" width="90" height="30" fill-opacity="0" stroke-opacity="0" style="fill:transparent;stroke:transparent;" />
        <svg width="90" height="25" class="djs-svg-text">
          <text font-family="'Segoe UI'" font-size="10.6252px" font-style="normal" font-weight="normal" lineHeight="1.2" textDirection="0" textAlign="center" class="djs-label" style="fill:black;">
            <tspan x="13.10375" y="14.75">Unsubscribed</tspan>
          </text>
        </svg>
      </g>
    </g>
  </g>
  <g class="djs-group">
    <g transform="matrix(1, 0, 0, 1, 458, 101)" id="gfx-67ec7fba-cfb8-4e2c-88bc-d3de98bb505a" display="block" class="djs-element djs-shape" data-element-id="67ec7fba-cfb8-4e2c-88bc-d3de98bb505a">
      <g class="djs-visual">
        <g>
          <path d="M0 20 L20 40 L40 20 L20 0 z" stroke-width="1.8px" class="" style="fill:#FFFFCC;stroke:#A6A61D;" />
        </g>
      </g>
    </g>
  </g>
  <g class="djs-group">
    <g transform="matrix(1, 0, 0, 1, 498, 100)" id="gfx-40768593-627b-465c-86d4-339c780f32fe" display="block" class="djs-element djs-shape" data-element-id="40768593-627b-465c-86d4-339c780f32fe">
      <g class="djs-visual">
        <rect x="0" y="0" width="99" height="36" fill-opacity="0" stroke-opacity="0" style="fill:transparent;stroke:transparent;" />
        <svg width="99" height="31" class="djs-svg-text">
          <text font-family="'Segoe UI'" font-size="10.6252px" font-style="normal" font-weight="normal" lineHeight="1.2" textDirection="0" textAlign="center" class="djs-label" style="fill:black;">
            <tspan x="9.091721" y="14.75">Still interested in </tspan>
            <tspan x="18.57864" y="27.75">subscription?</tspan>
          </text>
        </svg>
      </g>
    </g>
  </g>
  <g class="djs-group">
    <g transform="matrix(1, 0, 0, 1, 460, 510)" id="gfx-246bc7c8-93ac-4845-93ab-e0e7fd9d418c" display="block" class="djs-element djs-shape" data-element-id="246bc7c8-93ac-4845-93ab-e0e7fd9d418c">
      <g class="djs-visual">
        <g>
          <path d="M0 20 L20 40 L40 20 L20 0 z" stroke-width="1.8px" class="" style="fill:#FFFFCC;stroke:#A6A61D;" />
        </g>
      </g>
    </g>
  </g>
  <g class="djs-group">
    <g transform="matrix(1, 0, 0, 1, 503, 519)" id="gfx-ef1bee5f-7146-4120-b9ee-4f325c1fa7b4" display="block" class="djs-element djs-shape" data-element-id="ef1bee5f-7146-4120-b9ee-4f325c1fa7b4">
      <g class="djs-visual">
        <rect x="0" y="0" width="90" height="30" fill-opacity="0" stroke-opacity="0" style="fill:transparent;stroke:transparent;" />
        <svg width="90" height="25" class="djs-svg-text">
          <text font-family="'Segoe UI'" font-size="10.6252px" font-style="normal" font-weight="normal" lineHeight="1.2" textDirection="0" textAlign="center" class="djs-label" style="fill:black;">
            <tspan x="13.85047" y="14.75">Unsubscribe?</tspan>
          </text>
        </svg>
      </g>
    </g>
  </g>
  <g class="djs-group">
    <g id="gfx-74528831-cea4-41cc-bc0f-2eb8ee49c44f" display="block" class="djs-element djs-connection" data-element-id="74528831-cea4-41cc-bc0f-2eb8ee49c44f">
      <g class="djs-visual">
        <g>
          <defs>
            <marker refX="5" refY="5" orient="auto" markerWidth="10" markerHeight="10" id="startMessageFlow74528831-cea4-41cc-bc0f-2eb8ee49c44f#1">
              <circle cx="5" cy="5" r="4" stroke-width="1px" style="fill:white;stroke:black;" />
            </marker>
            <marker refX="15" refY="6.5" orient="auto" markerWidth="16" markerHeight="14" id="endMessageFlow74528831-cea4-41cc-bc0f-2eb8ee49c44f#1">
              <path d="M0 1 L0 13 L15 6.5 z" stroke-width="1px" style="fill:white;stroke:black;" />
            </marker>
          </defs>
          <path d="M245 161 L245 491" marker-end="url(#endMessageFlow74528831-cea4-41cc-bc0f-2eb8ee49c44f)" marker-start="url(#startMessageFlow74528831-cea4-41cc-bc0f-2eb8ee49c44f)" stroke-width="1px" stroke-linecap="round" stroke-linejoin="round" stroke-dasharray="6 4" shape-rendering="crispEdges" fill-opacity="0" class="" style="fill:transparent;stroke:black;" />
        </g>
      </g>
    </g>
  </g>
  <g class="djs-group">
    <g transform="matrix(1, 0, 0, 1, 245, 282)" id="gfx-ace9a519-2f92-45ec-86db-e0fffb9c899d" display="block" class="djs-element djs-shape" data-element-id="ace9a519-2f92-45ec-86db-e0fffb9c899d">
      <g class="djs-visual">
        <rect x="0" y="0" width="87" height="66" fill-opacity="0" stroke-opacity="0" style="fill:transparent;stroke:transparent;" />
        <svg width="87" height="61" class="djs-svg-text">
          <text font-family="'Segoe UI'" font-size="10.6252px" font-style="normal" font-weight="normal" lineHeight="1.2" textDirection="0" textAlign="left" class="djs-label" style="fill:black;">
            <tspan x="6" y="14.75">T001 - </tspan>
            <tspan x="6" y="27.75">Subscribe to </tspan>
            <tspan x="6" y="40.75">Procedure</tspan>
          </text>
        </svg>
      </g>
    </g>
  </g>
  <g class="djs-group">
    <g id="gfx-e67c6b89-c4cb-40e4-bd5a-9536f7dbf151" display="block" class="djs-element djs-connection" data-element-id="e67c6b89-c4cb-40e4-bd5a-9536f7dbf151">
      <g class="djs-visual">
        <g>
          <defs>
            <marker refX="5" refY="5" orient="auto" markerWidth="10" markerHeight="10" id="startMessageFlowe67c6b89-c4cb-40e4-bd5a-9536f7dbf151">
              <circle cx="5" cy="5" r="4" stroke-width="1px" style="fill:white;stroke:black;" />
            </marker>
            <marker refX="15" refY="6.5" orient="auto" markerWidth="16" markerHeight="14" id="endMessageFlowe67c6b89-c4cb-40e4-bd5a-9536f7dbf151">
              <path d="M0 1 L0 13 L15 6.5 z" stroke-width="1px" style="fill:white;stroke:black;" />
            </marker>
          </defs>
          <path d="M363 491 L363 161" marker-end="url(#endMessageFlowe67c6b89-c4cb-40e4-bd5a-9536f7dbf151)" marker-start="url(#startMessageFlowe67c6b89-c4cb-40e4-bd5a-9536f7dbf151)" stroke-width="1px" stroke-linecap="round" stroke-linejoin="round" stroke-dasharray="6 4" shape-rendering="crispEdges" fill-opacity="0" class="" style="fill:transparent;stroke:black;" />
        </g>
      </g>
    </g>
  </g>
  <g class="djs-group">
    <g transform="matrix(1, 0, 0, 1, 361.992, 280.488)" id="gfx-110f081b-07ce-411d-be72-0e28e4853caf" display="block" class="djs-element djs-shape" data-element-id="110f081b-07ce-411d-be72-0e28e4853caf">
      <g class="djs-visual">
        <rect x="0" y="0" width="110" height="65" fill-opacity="0" stroke-opacity="0" style="fill:transparent;stroke:transparent;" />
        <svg width="110" height="60" class="djs-svg-text">
          <text font-family="'Segoe UI'" font-size="10.6252px" font-style="normal" font-weight="normal" lineHeight="1.2" textDirection="0" textAlign="left" class="djs-label" style="fill:black;">
            <tspan x="6" y="14.75">T002 - Subscribe to</tspan>
            <tspan x="6" y="27.75">Procedure </tspan>
            <tspan x="6" y="40.75">Confirmation</tspan>
          </text>
        </svg>
      </g>
    </g>
  </g>
  <g class="djs-group">
    <g id="gfx-904f821b-34af-4ab1-9986-8b52ff4d7128" display="block" class="djs-element djs-connection" data-element-id="904f821b-34af-4ab1-9986-8b52ff4d7128">
      <g class="djs-visual">
        <g>
          <defs>
            <marker refX="5" refY="5" orient="auto" markerWidth="10" markerHeight="10" id="startMessageFlow904f821b-34af-4ab1-9986-8b52ff4d7128">
              <circle cx="5" cy="5" r="4" stroke-width="1px" style="fill:white;stroke:black;" />
            </marker>
            <marker refX="15" refY="6.5" orient="auto" markerWidth="16" markerHeight="14" id="endMessageFlow904f821b-34af-4ab1-9986-8b52ff4d7128">
              <path d="M0 1 L0 13 L15 6.5 z" stroke-width="1px" style="fill:white;stroke:black;" />
            </marker>
          </defs>
          <path d="M559 231 L559 402" marker-end="url(#endMessageFlow904f821b-34af-4ab1-9986-8b52ff4d7128)" marker-start="url(#startMessageFlow904f821b-34af-4ab1-9986-8b52ff4d7128)" stroke-width="1px" stroke-linecap="round" stroke-linejoin="round" stroke-dasharray="6 4" shape-rendering="crispEdges" fill-opacity="0" class="" style="fill:transparent;stroke:black;" />
        </g>
      </g>
    </g>
  </g>
  <g class="djs-group">
    <g transform="matrix(1, 0, 0, 1, 562, 281)" id="gfx-ba78e300-a825-45c1-9995-6b9efb3129c4" display="block" class="djs-element djs-shape" data-element-id="ba78e300-a825-45c1-9995-6b9efb3129c4">
      <g class="djs-visual">
        <rect x="0" y="0" width="93" height="66" fill-opacity="0" stroke-opacity="0" style="fill:transparent;stroke:transparent;" />
        <svg width="93" height="61" class="djs-svg-text">
          <text font-family="'Segoe UI'" font-size="10.6252px" font-style="normal" font-weight="normal" lineHeight="1.2" textDirection="0" textAlign="left" class="djs-label" style="fill:black;">
            <tspan x="6" y="14.75">T021 - </tspan>
            <tspan x="6" y="27.75">Unsubscribe </tspan>
            <tspan x="6" y="40.75">from Procedure</tspan>
          </text>
        </svg>
      </g>
    </g>
  </g>
  <g class="djs-group">
    <g id="gfx-e21d24b2-5aee-4f5b-b382-5f6c75a362d8" display="block" class="djs-element djs-connection" data-element-id="e21d24b2-5aee-4f5b-b382-5f6c75a362d8">
      <g class="djs-visual">
        <g>
          <defs>
            <marker refX="5" refY="5" orient="auto" markerWidth="10" markerHeight="10" id="startMessageFlowe21d24b2-5aee-4f5b-b382-5f6c75a362d8">
              <circle cx="5" cy="5" r="4" stroke-width="1px" style="fill:white;stroke:black;" />
            </marker>
            <marker refX="15" refY="6.5" orient="auto" markerWidth="16" markerHeight="14" id="endMessageFlowe21d24b2-5aee-4f5b-b382-5f6c75a362d8">
              <path d="M0 1 L0 13 L15 6.5 z" stroke-width="1px" style="fill:white;stroke:black;" />
            </marker>
          </defs>
          <path d="M675 402 L675 231" marker-end="url(#endMessageFlowe21d24b2-5aee-4f5b-b382-5f6c75a362d8)" marker-start="url(#startMessageFlowe21d24b2-5aee-4f5b-b382-5f6c75a362d8)" stroke-width="1px" stroke-linecap="round" stroke-linejoin="round" stroke-dasharray="6 4" shape-rendering="crispEdges" fill-opacity="0" class="" style="fill:transparent;stroke:black;" />
        </g>
      </g>
    </g>
  </g>
  <g class="djs-group">
    <g transform="matrix(1, 0, 0, 1, 675, 284.5)" id="gfx-517282c6-6fe0-41a9-8413-cf5cfa0807dc" display="block" class="djs-element djs-shape" data-element-id="517282c6-6fe0-41a9-8413-cf5cfa0807dc">
      <g class="djs-visual">
        <rect x="0" y="0" width="111" height="79" fill-opacity="0" stroke-opacity="0" style="fill:transparent;stroke:transparent;" />
        <svg width="111" height="74" class="djs-svg-text">
          <text font-family="'Segoe UI'" font-size="10.6252px" font-style="normal" font-weight="normal" lineHeight="1.2" textDirection="0" textAlign="left" class="djs-label" style="fill:black;">
            <tspan x="6" y="14.75">T022 - Unsubscribe </tspan>
            <tspan x="6" y="27.75">from Procedure </tspan>
            <tspan x="6" y="40.75">Confirmation</tspan>
          </text>
        </svg>
      </g>
    </g>
  </g>
  <g class="djs-group">
    <g id="gfx-e1c14072-377f-4876-9808-d56983589d1a" display="block" class="djs-element djs-connection" data-element-id="e1c14072-377f-4876-9808-d56983589d1a">
      <g class="djs-visual">
        <g>
          <defs>
            <marker refX="9.8" refY="6" orient="auto" markerWidth="12" markerHeight="12" markerUnits="strokeWidth" id="arrowSecuenceFlowe1c14072-377f-4876-9808-d56983589d1a">
              <path d="M0 0 L2 6 L0 12 L10 6 z" style="fill:black;" />
            </marker>
          </defs>
          <path d="M408 121 L458 121" marker-end="url(#arrowSecuenceFlowe1c14072-377f-4876-9808-d56983589d1a)" stroke-width="1px" stroke-linejoin="round" shape-rendering="crispEdges" fill-opacity="0" class="" style="fill:transparent;stroke:black;" />
        </g>
      </g>
    </g>
  </g>
  <g class="djs-group">
    <g id="gfx-b948920a-ea5d-4d84-8217-021c9bcf2073" display="block" class="djs-element djs-connection" data-element-id="b948920a-ea5d-4d84-8217-021c9bcf2073">
      <g class="djs-visual">
        <g>
          <defs>
            <marker refX="9.8" refY="6" orient="auto" markerWidth="12" markerHeight="12" markerUnits="strokeWidth" id="arrowSecuenceFlowb948920a-ea5d-4d84-8217-021c9bcf2073">
              <path d="M0 0 L2 6 L0 12 L10 6 z" style="fill:black;" />
            </marker>
          </defs>
          <path d="M478 141 L478 195 C478 195 478 201 484 201 L514 201" marker-end="url(#arrowSecuenceFlowb948920a-ea5d-4d84-8217-021c9bcf2073)" stroke-width="1px" stroke-linejoin="round" shape-rendering="crispEdges" fill-opacity="0" class="" style="fill:transparent;stroke:black;" />
        </g>
      </g>
    </g>
  </g>
  <g class="djs-group">
    <g id="gfx-042b64b8-3278-450f-9b08-cc8f4d44cb9e" display="block" class="djs-element djs-connection" data-element-id="042b64b8-3278-450f-9b08-cc8f4d44cb9e">
      <g class="djs-visual">
        <g>
          <defs>
            <marker refX="9.8" refY="6" orient="auto" markerWidth="12" markerHeight="12" markerUnits="strokeWidth" id="arrowSecuenceFlow042b64b8-3278-450f-9b08-cc8f4d44cb9e">
              <path d="M0 0 L2 6 L0 12 L10 6 z" style="fill:black;" />
            </marker>
          </defs>
          <path d="M604 201 L630 201" marker-end="url(#arrowSecuenceFlow042b64b8-3278-450f-9b08-cc8f4d44cb9e)" stroke-width="1px" stroke-linejoin="round" shape-rendering="crispEdges" fill-opacity="0" class="" style="fill:transparent;stroke:black;" />
        </g>
      </g>
    </g>
  </g>
  <g class="djs-group">
    <g id="gfx-c17fd907-265b-4923-b47c-1205e128f5c8" display="block" class="djs-element djs-connection" data-element-id="c17fd907-265b-4923-b47c-1205e128f5c8">
      <g class="djs-visual">
        <g>
          <defs>
            <marker refX="9.8" refY="6" orient="auto" markerWidth="12" markerHeight="12" markerUnits="strokeWidth" id="arrowSecuenceFlowc17fd907-265b-4923-b47c-1205e128f5c8">
              <path d="M0 0 L2 6 L0 12 L10 6 z" style="fill:black;" />
            </marker>
          </defs>
          <path d="M478 101 L478 82 C478 82 478 76 484 76 L752 76" marker-end="url(#arrowSecuenceFlowc17fd907-265b-4923-b47c-1205e128f5c8)" stroke-width="1px" stroke-linejoin="round" shape-rendering="crispEdges" fill-opacity="0" class="" style="fill:transparent;stroke:black;" />
        </g>
      </g>
    </g>
  </g>
  <g class="djs-group">
    <g id="gfx-d5953aef-812b-4322-bf02-b47a3d0daf02" display="block" class="djs-element djs-connection" data-element-id="d5953aef-812b-4322-bf02-b47a3d0daf02">
      <g class="djs-visual">
        <g>
          <defs>
            <marker refX="9.8" refY="6" orient="auto" markerWidth="12" markerHeight="12" markerUnits="strokeWidth" id="arrowSecuenceFlowd5953aef-812b-4322-bf02-b47a3d0daf02">
              <path d="M0 0 L2 6 L0 12 L10 6 z" style="fill:black;" />
            </marker>
          </defs>
          <path d="M720 201 L752 201" marker-end="url(#arrowSecuenceFlowd5953aef-812b-4322-bf02-b47a3d0daf02)" stroke-width="1px" stroke-linejoin="round" shape-rendering="crispEdges" fill-opacity="0" class="" style="fill:transparent;stroke:black;" />
        </g>
      </g>
    </g>
  </g>
  <g class="djs-group">
    <g id="gfx-45531efc-f5fb-439a-a2d5-907cb7af9038" display="block" class="djs-element djs-connection" data-element-id="45531efc-f5fb-439a-a2d5-907cb7af9038">
      <g class="djs-visual">
        <g>
          <defs>
            <marker refX="9.8" refY="6" orient="auto" markerWidth="12" markerHeight="12" markerUnits="strokeWidth" id="arrowSecuenceFlow45531efc-f5fb-439a-a2d5-907cb7af9038">
              <path d="M0 0 L2 6 L0 12 L10 6 z" style="fill:black;" />
            </marker>
          </defs>
          <path d="M290 121 L318 121" marker-end="url(#arrowSecuenceFlow45531efc-f5fb-439a-a2d5-907cb7af9038)" stroke-width="1px" stroke-linejoin="round" shape-rendering="crispEdges" fill-opacity="0" class="" style="fill:transparent;stroke:black;" />
        </g>
      </g>
    </g>
  </g>
  <g class="djs-group">
    <g id="gfx-2f0dca86-4f30-44f5-9f06-84b922347225" display="block" class="djs-element djs-connection" data-element-id="2f0dca86-4f30-44f5-9f06-84b922347225">
      <g class="djs-visual">
        <g>
          <defs>
            <marker refX="9.8" refY="6" orient="auto" markerWidth="12" markerHeight="12" markerUnits="strokeWidth" id="arrowSecuenceFlow2f0dca86-4f30-44f5-9f06-84b922347225">
              <path d="M0 0 L2 6 L0 12 L10 6 z" style="fill:black;" />
            </marker>
          </defs>
          <path d="M158 121 L200 121" marker-end="url(#arrowSecuenceFlow2f0dca86-4f30-44f5-9f06-84b922347225)" stroke-width="1px" stroke-linejoin="round" shape-rendering="crispEdges" fill-opacity="0" class="" style="fill:transparent;stroke:black;" />
        </g>
      </g>
    </g>
  </g>
  <g class="djs-group">
    <g id="gfx-a5071b7e-c1a1-46e1-a817-679c5b801815" display="block" class="djs-element djs-connection" data-element-id="a5071b7e-c1a1-46e1-a817-679c5b801815">
      <g class="djs-visual">
        <g>
          <defs>
            <marker refX="9.8" refY="6" orient="auto" markerWidth="12" markerHeight="12" markerUnits="strokeWidth" id="arrowSecuenceFlowa5071b7e-c1a1-46e1-a817-679c5b801815">
              <path d="M0 0 L2 6 L0 12 L10 6 z" style="fill:black;" />
            </marker>
          </defs>
          <path d="M408 529 L434 529 L434 530 L460 530" marker-end="url(#arrowSecuenceFlowa5071b7e-c1a1-46e1-a817-679c5b801815)" stroke-width="1px" stroke-linejoin="round" shape-rendering="crispEdges" fill-opacity="0" class="" style="fill:transparent;stroke:black;" />
        </g>
      </g>
    </g>
  </g>
  <g class="djs-group">
    <g id="gfx-7658ac75-cf1e-4406-9d47-d932bb3c27f3" display="block" class="djs-element djs-connection" data-element-id="7658ac75-cf1e-4406-9d47-d932bb3c27f3">
      <g class="djs-visual">
        <g>
          <defs>
            <marker refX="9.8" refY="6" orient="auto" markerWidth="12" markerHeight="12" markerUnits="strokeWidth" id="arrowSecuenceFlow7658ac75-cf1e-4406-9d47-d932bb3c27f3">
              <path d="M0 0 L2 6 L0 12 L10 6 z" style="fill:black;" />
            </marker>
          </defs>
          <path d="M480 550 L480 568 C480 568 480 574 486 574 L755 574" marker-end="url(#arrowSecuenceFlow7658ac75-cf1e-4406-9d47-d932bb3c27f3)" stroke-width="1px" stroke-linejoin="round" shape-rendering="crispEdges" fill-opacity="0" class="" style="fill:transparent;stroke:black;" />
        </g>
      </g>
    </g>
  </g>
  <g class="djs-group">
    <g id="gfx-86d6cbb9-285c-401d-8f60-7d08623bba38" display="block" class="djs-element djs-connection" data-element-id="86d6cbb9-285c-401d-8f60-7d08623bba38">
      <g class="djs-visual">
        <g>
          <defs>
            <marker refX="9.8" refY="6" orient="auto" markerWidth="12" markerHeight="12" markerUnits="strokeWidth" id="arrowSecuenceFlow86d6cbb9-285c-401d-8f60-7d08623bba38">
              <path d="M0 0 L2 6 L0 12 L10 6 z" style="fill:black;" />
            </marker>
          </defs>
          <path d="M480 510 L480 438 C480 438 480 432 486 432 L514 432" marker-end="url(#arrowSecuenceFlow86d6cbb9-285c-401d-8f60-7d08623bba38)" stroke-width="1px" stroke-linejoin="round" shape-rendering="crispEdges" fill-opacity="0" class="" style="fill:transparent;stroke:black;" />
        </g>
      </g>
    </g>
  </g>
  <g class="djs-group">
    <g id="gfx-b7075b98-ca47-4488-8aed-326c6c8392a3" display="block" class="djs-element djs-connection" data-element-id="b7075b98-ca47-4488-8aed-326c6c8392a3">
      <g class="djs-visual">
        <g>
          <defs>
            <marker refX="9.8" refY="6" orient="auto" markerWidth="12" markerHeight="12" markerUnits="strokeWidth" id="arrowSecuenceFlowb7075b98-ca47-4488-8aed-326c6c8392a3">
              <path d="M0 0 L2 6 L0 12 L10 6 z" style="fill:black;" />
            </marker>
          </defs>
          <path d="M604 432 L638 432" marker-end="url(#arrowSecuenceFlowb7075b98-ca47-4488-8aed-326c6c8392a3)" stroke-width="1px" stroke-linejoin="round" shape-rendering="crispEdges" fill-opacity="0" class="" style="fill:transparent;stroke:black;" />
        </g>
      </g>
    </g>
  </g>
  <g class="djs-group">
    <g id="gfx-39b1aa29-1f40-4c85-b066-e1ef2add4e8a" display="block" class="djs-element djs-connection" data-element-id="39b1aa29-1f40-4c85-b066-e1ef2add4e8a">
      <g class="djs-visual">
        <g>
          <defs>
            <marker refX="9.8" refY="6" orient="auto" markerWidth="12" markerHeight="12" markerUnits="strokeWidth" id="arrowSecuenceFlow39b1aa29-1f40-4c85-b066-e1ef2add4e8a">
              <path d="M0 0 L2 6 L0 12 L10 6 z" style="fill:black;" />
            </marker>
          </defs>
          <path d="M728 432 L755 432" marker-end="url(#arrowSecuenceFlow39b1aa29-1f40-4c85-b066-e1ef2add4e8a)" stroke-width="1px" stroke-linejoin="round" shape-rendering="crispEdges" fill-opacity="0" class="" style="fill:transparent;stroke:black;" />
        </g>
      </g>
    </g>
  </g>
  <g class="djs-group">
    <g id="gfx-b70fc40f-1ea0-4dfa-bb3d-9af26952546f" display="block" class="djs-element djs-connection" data-element-id="b70fc40f-1ea0-4dfa-bb3d-9af26952546f">
      <g class="djs-visual">
        <g>
          <defs>
            <marker refX="9.8" refY="6" orient="auto" markerWidth="12" markerHeight="12" markerUnits="strokeWidth" id="arrowSecuenceFlowb70fc40f-1ea0-4dfa-bb3d-9af26952546f">
              <path d="M0 0 L2 6 L0 12 L10 6 z" style="fill:black;" />
            </marker>
          </defs>
          <path d="M290 529 L318 529" marker-end="url(#arrowSecuenceFlowb70fc40f-1ea0-4dfa-bb3d-9af26952546f)" stroke-width="1px" stroke-linejoin="round" shape-rendering="crispEdges" fill-opacity="0" class="" style="fill:transparent;stroke:black;" />
        </g>
      </g>
    </g>
  </g>
  <g class="djs-group">
    <g id="gfx-dcd07f53-c7b7-4138-a107-a12e49c2783f" display="block" class="djs-element djs-connection" data-element-id="dcd07f53-c7b7-4138-a107-a12e49c2783f">
      <g class="djs-visual">
        <g>
          <defs>
            <marker refX="9.8" refY="6" orient="auto" markerWidth="12" markerHeight="12" markerUnits="strokeWidth" id="arrowSecuenceFlowdcd07f53-c7b7-4138-a107-a12e49c2783f">
              <path d="M0 0 L2 6 L0 12 L10 6 z" style="fill:black;" />
            </marker>
          </defs>
          <path d="M168 521 L200 521" marker-end="url(#arrowSecuenceFlowdcd07f53-c7b7-4138-a107-a12e49c2783f)" stroke-width="1px" stroke-linejoin="round" shape-rendering="crispEdges" fill-opacity="0" class="" style="fill:transparent;stroke:black;" />
        </g>
      </g>
    </g>
  </g>
</svg>