<?xml version="1.0" encoding="utf-8"?>
<!DOCTYPE svg PUBLIC "-//W3C//DTD SVG 1.1//EN" "http://www.w3.org/Graphics/SVG/1.1/DTD/svg11.dtd">
<svg width="674" height="777px" viewBox="30, -2, 674, 777" xmlns="http://www.w3.org/2000/svg" xmlns:xlink="http://www.w3.org/1999/xlink" xmlns:xml="http://www.w3.org/XML/1998/namespace" version="1.1">
  <defs>
    <marker refX="9.8" refY="6" orient="auto" markerWidth="12" markerHeight="12" markerUnits="strokeWidth" id="arrowSecuenceFlow47af84fc-600a-4b26-b500-8e36ffcc7849">
      <path d="M0 0 L2 6 L0 12 L10 6 z" style="fill:black;" />
    </marker>
  </defs>
  <g class="djs-group">
    <g transform="matrix(1, 0, 0, 1, 49, 363)" id="gfx-eead1193-fecd-4ff6-ac00-200f2e2a0f97" display="block" class="djs-element djs-shape" data-element-id="eead1193-fecd-4ff6-ac00-200f2e2a0f97">
      <g class="djs-visual">
        <g>
          <rect x="0" y="0" width="639" height="266" opacity="0" fill-opacity="0" style="fill:transparent;" />
          <path d="M639 0 L0 0 L0 266 L639 266 z M50 0 L50 266" stroke-width="1px" shape-rendering="crispEdges" fill-opacity="0" class="" style="fill:transparent;stroke:black;" />
        </g>
      </g>
      <svg width="50" height="266" class="djs-svg-text">
        <text transform="matrix(-1.83697E-16, -1, 1, -1.83697E-16, 0, 266)" font-family="'Segoe UI'" font-size="13.2815px" font-style="normal" font-weight="bold" lineHeight="1.2" textDirection="270" textAlign="center" class="djs-label" style="fill:black;">
          <tspan x="72.93532" y="28.75">Economic Operator</tspan>
        </text>
      </svg>
    </g>
  </g>
  <g class="djs-group">
    <g transform="matrix(1, 0, 0, 1, 46, 14)" id="gfx-ffb2d358-6819-4943-be00-db9b5a2b4782" display="block" class="djs-element djs-shape" data-element-id="ffb2d358-6819-4943-be00-db9b5a2b4782">
      <g class="djs-visual">
        <g>
          <rect x="0" y="0" width="642" height="224" opacity="0" fill-opacity="0" style="fill:transparent;" />
          <path d="M642 0 L0 0 L0 224 L642 224 z M50 0 L50 224" stroke-width="1px" shape-rendering="crispEdges" fill-opacity="0" class="" style="fill:transparent;stroke:black;" />
        </g>
      </g>
      <svg width="50" height="224" class="djs-svg-text">
        <text transform="matrix(-1.83697E-16, -1, 1, -1.83697E-16, 0, 224)" font-family="'Segoe UI'" font-size="13.2815px" font-style="normal" font-weight="bold" lineHeight="1.2" textDirection="270" textAlign="center" class="djs-label" style="fill:black;">
          <tspan x="57.36272" y="28.75">Contracting Body</tspan>
        </text>
      </svg>
    </g>
  </g>
  <g class="djs-group">
    <g transform="matrix(1, 0, 0, 1, 300, 434)" id="gfx-c68ac644-a63e-41f5-92b7-75d676883d5c" display="block" class="djs-element djs-shape" data-element-id="c68ac644-a63e-41f5-92b7-75d676883d5c">
      <g class="djs-visual">
        <g>
          <rect x="0" y="0" width="90" height="100" rx="5" stroke-width="2.4px" class="" style="fill:#ECEFFF;stroke:#03689A;" />
          <g>
            <g transform="translate(37, 84)">
              <rect x="0" y="0" width="15" height="15" stroke-width="2px" style="fill:#ECEFFF;stroke:#03689A;" />
              <path d="M7.5 3 L7.5 12 M3 7.5 L12 7.5" stroke-width="3px" style="fill:#ECEFFF;stroke:#03689A;" />
            </g>
          </g>
        </g>
      </g>
    </g>
  </g>
  <g class="djs-group">
    <g transform="matrix(1, 0, 0, 1, 300, 446)" id="gfx-a4bab64a-ca93-4365-a1f2-e125d5be2542" display="block" class="djs-element djs-shape" data-element-id="a4bab64a-ca93-4365-a1f2-e125d5be2542">
      <g class="djs-visual">
        <rect x="0" y="0" width="90" height="75" fill-opacity="0" stroke-opacity="0" style="fill:#FFFFFF;stroke:transparent;" />
        <svg width="90" height="70" class="djs-svg-text">
          <text font-family="'Segoe UI'" font-size="10.6252px" font-style="normal" font-weight="normal" lineHeight="1.2" textDirection="0" textAlign="center" class="djs-label" style="fill:black;">
            <tspan x="25.91203" y="14.75">Receive </tspan>
            <tspan x="15.41392" y="27.75">Qualification</tspan>
            <tspan x="23.4852" y="40.75">Rejection</tspan>
          </text>
        </svg>
      </g>
    </g>
  </g>
  <g class="djs-group">
    <g transform="matrix(1, 0, 0, 1, 285, 91)" id="gfx-ca841391-2591-4799-8b28-d960d13c8da1" display="block" class="djs-element djs-shape" data-element-id="ca841391-2591-4799-8b28-d960d13c8da1">
      <g class="djs-visual">
        <g>
          <rect x="0" y="0" width="124" height="88" rx="5" stroke-width="2.4px" class="" style="fill:#ECEFFF;stroke:#03689A;" />
          <g>
            <g transform="translate(54, 72)">
              <rect x="0" y="0" width="15" height="15" stroke-width="2px" style="fill:#ECEFFF;stroke:#03689A;" />
              <path d="M7.5 3 L7.5 12 M3 7.5 L12 7.5" stroke-width="3px" style="fill:#ECEFFF;stroke:#03689A;" />
            </g>
          </g>
        </g>
      </g>
    </g>
  </g>
  <g class="djs-group">
    <g transform="matrix(1, 0, 0, 1, 288, 95)" id="gfx-dc5f1611-5b8e-42a5-869b-832a32830b31" display="block" class="djs-element djs-shape" data-element-id="dc5f1611-5b8e-42a5-869b-832a32830b31">
      <g class="djs-visual">
        <rect x="0" y="0" width="114" height="71" fill-opacity="0" stroke-opacity="0" style="fill:#FFFFFF;stroke:transparent;" />
        <svg width="114" height="66" class="djs-svg-text">
          <text font-family="'Segoe UI'" font-size="10.6252px" font-style="normal" font-weight="normal" lineHeight="1.2" textDirection="0" textAlign="center" class="djs-label" style="fill:black;">
            <tspan x="12.77514" y="14.75">Send Qualification </tspan>
            <tspan x="19.26482" y="27.75">Rejection (P012)</tspan>
          </text>
        </svg>
      </g>
    </g>
  </g>
  <g class="djs-group">
    <g transform="matrix(1, 0, 0, 1, 150, 469)" id="gfx-ea86ae5c-9efc-48ec-aea2-4814044c9309" display="block" class="djs-element djs-shape" data-element-id="ea86ae5c-9efc-48ec-aea2-4814044c9309">
      <g class="djs-visual">
        <g>
          <g transform="translate(-8.90625, -8.90625) scale(1.5)">
            <path d="M16 25.2 C10.9 25.2 6.8 21.1 6.8 16 C6.8 10.9 10.9 6.8 16 6.8 C21.1 6.8 25.2 10.9 25.2 16 C25.2 21.1 21.1 25.2 16 25.2 L16 25.2 z" style="fill:#E6FF97;" />
            <path d="M15.9 7 C20.9 7 24.9 11 24.9 16 C24.9 21 20.9 25 15.9 25 C10.9 25 6.9 21 6.9 16 C6.9 11 10.9 7 15.9 7 M15.9 6 C10.4 6 5.9 10.5 5.9 16 C5.9 21.5 10.4 26 15.9 26 C21.4 26 25.9 21.5 25.9 16 C25.9 10.5 21.4 6 15.9 6 z" stroke-width="0.2px" class="" style="fill:#62A716;stroke:#62A716;" />
          </g>
        </g>
      </g>
    </g>
  </g>
  <g class="djs-group">
    <g transform="matrix(1, 0, 0, 1, 120, 507)" id="gfx-0e9c08de-37d9-4124-9b07-5cd8b01e6585" display="block" class="djs-element djs-shape" data-element-id="0e9c08de-37d9-4124-9b07-5cd8b01e6585">
      <g class="djs-visual">
        <rect x="0" y="0" width="90" height="36" fill-opacity="0" stroke-opacity="0" style="fill:#FFFFFF;stroke:transparent;" />
        <svg width="90" height="31" class="djs-svg-text">
          <text font-family="'Segoe UI'" font-size="10.6252px" font-style="normal" font-weight="normal" lineHeight="1.2" textDirection="0" textAlign="center" class="djs-label" style="fill:black;">
            <tspan x="13.95937" y="14.75">Qualification </tspan>
            <tspan x="21.25802" y="27.75">submitted</tspan>
          </text>
        </svg>
      </g>
    </g>
  </g>
  <g class="djs-group">
    <g transform="matrix(1, 0, 0, 1, 150, 120)" id="gfx-00b86bf5-9194-43b8-aa80-f6a15fa12f68" display="block" class="djs-element djs-shape" data-element-id="00b86bf5-9194-43b8-aa80-f6a15fa12f68">
      <g class="djs-visual">
        <g>
          <g transform="translate(-8.90625, -8.90625) scale(1.5)">
            <path d="M16 25.2 C10.9 25.2 6.8 21.1 6.8 16 C6.8 10.9 10.9 6.8 16 6.8 C21.1 6.8 25.2 10.9 25.2 16 C25.2 21.1 21.1 25.2 16 25.2 L16 25.2 z" style="fill:#E6FF97;" />
            <path d="M15.9 7 C20.9 7 24.9 11 24.9 16 C24.9 21 20.9 25 15.9 25 C10.9 25 6.9 21 6.9 16 C6.9 11 10.9 7 15.9 7 M15.9 6 C10.4 6 5.9 10.5 5.9 16 C5.9 21.5 10.4 26 15.9 26 C21.4 26 25.9 21.5 25.9 16 C25.9 10.5 21.4 6 15.9 6 z" stroke-width="0.2px" class="" style="fill:#62A716;stroke:#62A716;" />
          </g>
        </g>
      </g>
    </g>
  </g>
  <g class="djs-group">
    <g transform="matrix(1, 0, 0, 1, 106, 159)" id="gfx-60f81ef7-8c81-4aa2-9f15-80adcd515bfd" display="block" class="djs-element djs-shape" data-element-id="60f81ef7-8c81-4aa2-9f15-80adcd515bfd">
      <g class="djs-visual">
        <rect x="0" y="0" width="117" height="53" fill-opacity="0" stroke-opacity="0" style="fill:#FFFFFF;stroke:transparent;" />
        <svg width="117" height="48" class="djs-svg-text">
          <text font-family="'Segoe UI'" font-size="10.6252px" font-style="normal" font-weight="normal" lineHeight="1.2" textDirection="0" textAlign="center" class="djs-label" style="fill:black;">
            <tspan x="25.20626" y="14.75">Qualifications </tspan>
            <tspan x="35.78215" y="27.75">evaluated</tspan>
          </text>
        </svg>
      </g>
    </g>
  </g>
  <g class="djs-group">
    <g transform="matrix(1, 0, 0, 1, 562, 469)" id="gfx-54bab902-7300-4792-b98c-ea4ed10f6a24" display="block" class="djs-element djs-shape" data-element-id="54bab902-7300-4792-b98c-ea4ed10f6a24">
      <g class="djs-visual">
        <g>
          <g transform="translate(-8.90625, -8.90625) scale(1.5)">
            <path d="M16 25.2 A9.2 9.2 0 1 1 25.2 16 A9.2 9.2 0 0 1 16 25.2 z" style="fill:#EEAAAA;" />
            <path d="M16 7.5 A8.5 8.5 0 1 1 7.5 16 A8.5 8.5 0 0 1 16 7.5 M16 6 A10 10 0 1 0 26 16 A10 10 0 0 0 16 6 z" stroke-width="0.4px" class="" style="fill:#990000;stroke:#990000;" />
          </g>
        </g>
      </g>
    </g>
  </g>
  <g class="djs-group">
    <g transform="matrix(1, 0, 0, 1, 537, 509)" id="gfx-3f9feeb8-b7e7-4c15-a63b-b0d0a8d92683" display="block" class="djs-element djs-shape" data-element-id="3f9feeb8-b7e7-4c15-a63b-b0d0a8d92683">
      <g class="djs-visual">
        <rect x="0" y="0" width="78" height="53" fill-opacity="0" stroke-opacity="0" style="fill:#FFFFFF;stroke:transparent;" />
        <svg width="78" height="48" class="djs-svg-text">
          <text font-family="'Segoe UI'" font-size="10.6252px" font-style="normal" font-weight="normal" lineHeight="1.2" textDirection="0" textAlign="center" class="djs-label" style="fill:black;">
            <tspan x="7.959373" y="14.75">Qualification </tspan>
            <tspan x="16.03065" y="27.75">Rejection </tspan>
            <tspan x="18.23969" y="40.75">Received</tspan>
          </text>
        </svg>
      </g>
    </g>
  </g>
  <g class="djs-group">
    <g transform="matrix(1, 0, 0, 1, 560, 120)" id="gfx-c5bb140e-b35b-4b3e-9b13-9f1e1994d7ba" display="block" class="djs-element djs-shape" data-element-id="c5bb140e-b35b-4b3e-9b13-9f1e1994d7ba">
      <g class="djs-visual">
        <g>
          <g transform="translate(-8.90625, -8.90625) scale(1.5)">
            <path d="M16 25.2 A9.2 9.2 0 1 1 25.2 16 A9.2 9.2 0 0 1 16 25.2 z" style="fill:#EEAAAA;" />
            <path d="M16 7.5 A8.5 8.5 0 1 1 7.5 16 A8.5 8.5 0 0 1 16 7.5 M16 6 A10 10 0 1 0 26 16 A10 10 0 0 0 16 6 z" stroke-width="0.4px" class="" style="fill:#990000;stroke:#990000;" />
          </g>
        </g>
      </g>
    </g>
  </g>
  <g class="djs-group">
    <g transform="matrix(1, 0, 0, 1, 502, 158)" id="gfx-fac29fc7-eb94-4516-a020-7b235ca4d094" display="block" class="djs-element djs-shape" data-element-id="fac29fc7-eb94-4516-a020-7b235ca4d094">
      <g class="djs-visual">
        <rect x="0" y="0" width="145" height="66" fill-opacity="0" stroke-opacity="0" style="fill:#FFFFFF;stroke:transparent;" />
        <svg width="145" height="61" class="djs-svg-text">
          <text font-family="'Segoe UI'" font-size="10.6252px" font-style="normal" font-weight="normal" lineHeight="1.2" textDirection="0" textAlign="center" class="djs-label" style="fill:black;">
            <tspan x="14.20678" y="14.75">Qualification rejection(s) </tspan>
            <tspan x="62.66563" y="27.75">sent</tspan>
          </text>
        </svg>
      </g>
    </g>
  </g>
  <g class="djs-group">
    <g transform="matrix(1, 0, 0, 1, 387, 268)" id="gfx-fffbe3f3-34fb-4f83-9654-afab4bc12135" display="block" class="djs-element djs-shape" data-element-id="fffbe3f3-34fb-4f83-9654-afab4bc12135">
      <g class="djs-visual">
        <g>
          <path d="M30 0 L0 0 L0 50 L40 50 L40 10 L30 10 z" shape-rendering="crispEdges" class="" style="fill:#F0F0F0;stroke:#666666;" />
          <path d="M30 0 L30 10 L40 10 z" shape-rendering="crispEdges" fill-opacity="0" style="fill:transparent;stroke:#666666;" />
        </g>
      </g>
    </g>
  </g>
  <g class="djs-group">
    <g transform="matrix(1, 0, 0, 1, 355, 326)" id="gfx-b4e84290-8b3c-465b-9e5c-4ae7d1a40eea" display="block" class="djs-element djs-shape" data-element-id="b4e84290-8b3c-465b-9e5c-4ae7d1a40eea">
      <g class="djs-visual">
        <rect x="0" y="0" width="104" height="66" fill-opacity="0" stroke-opacity="0" style="fill:#FFFFFF;stroke:transparent;" />
        <svg width="104" height="61" class="djs-svg-text">
          <text font-family="'Segoe UI'" font-size="10.6252px" font-style="normal" font-weight="normal" lineHeight="1.2" textDirection="0" textAlign="center" class="djs-label" style="fill:black;">
            <tspan x="8.135529" y="14.75">T023 Qualification </tspan>
            <tspan x="30.4852" y="27.75">Rejection</tspan>
          </text>
        </svg>
      </g>
    </g>
  </g>
  <g class="djs-group">
    <g id="gfx-640f2374-6019-4a4b-ac03-828075070870" display="block" class="djs-element djs-connection" data-element-id="640f2374-6019-4a4b-ac03-828075070870">
      <g class="djs-visual">
        <g>
          <defs>
            <marker refX="5" refY="5" orient="auto" markerWidth="10" markerHeight="10" id="startMessageFlow640f2374-6019-4a4b-ac03-828075070870">
              <circle cx="5" cy="5" r="4" stroke-width="1px" style="fill:white;stroke:black;" />
            </marker>
            <marker refX="15" refY="6.5" orient="auto" markerWidth="16" markerHeight="14" id="endMessageFlow640f2374-6019-4a4b-ac03-828075070870">
              <path d="M0 1 L0 13 L15 6.5 z" stroke-width="1px" style="fill:white;stroke:black;" />
            </marker>
          </defs>
          <path d="M347 179 L347 434" marker-end="url(#endMessageFlow640f2374-6019-4a4b-ac03-828075070870)" marker-start="url(#startMessageFlow640f2374-6019-4a4b-ac03-828075070870)" stroke-width="1px" stroke-linecap="round" stroke-linejoin="round" stroke-dasharray="6 4" shape-rendering="crispEdges" fill-opacity="0" class="" style="fill:transparent;stroke:black;" />
        </g>
      </g>
    </g>
  </g>
  <g class="djs-group">
    <g id="gfx-47af84fc-600a-4b26-b500-8e36ffcc7849" display="block" class="djs-element djs-connection" data-element-id="47af84fc-600a-4b26-b500-8e36ffcc7849">
      <g class="djs-visual">
        <g>
          <defs>
            <marker refX="9.8" refY="6" orient="auto" markerWidth="12" markerHeight="12" markerUnits="strokeWidth" id="arrowSecuenceFlow47af84fc-600a-4b26-b500-8e36ffcc7849#1">
              <path d="M0 0 L2 6 L0 12 L10 6 z" style="fill:black;" />
            </marker>
          </defs>
          <path d="M390 484 L562 484" marker-end="url(#arrowSecuenceFlow47af84fc-600a-4b26-b500-8e36ffcc7849)" stroke-width="1px" stroke-linejoin="round" shape-rendering="crispEdges" fill-opacity="0" class="" style="fill:transparent;stroke:black;" />
        </g>
      </g>
    </g>
  </g>
  <g class="djs-group">
    <g id="gfx-74976b7b-2611-4b0f-b02f-2d7c13a2679d" display="block" class="djs-element djs-connection" data-element-id="74976b7b-2611-4b0f-b02f-2d7c13a2679d">
      <g class="djs-visual">
        <g>
          <defs>
            <marker refX="9.8" refY="6" orient="auto" markerWidth="12" markerHeight="12" markerUnits="strokeWidth" id="arrowSecuenceFlow74976b7b-2611-4b0f-b02f-2d7c13a2679d">
              <path d="M0 0 L2 6 L0 12 L10 6 z" style="fill:black;" />
            </marker>
          </defs>
          <path d="M180 484 L300 484" marker-end="url(#arrowSecuenceFlow74976b7b-2611-4b0f-b02f-2d7c13a2679d)" stroke-width="1px" stroke-linejoin="round" shape-rendering="crispEdges" fill-opacity="0" class="" style="fill:transparent;stroke:black;" />
        </g>
      </g>
    </g>
  </g>
  <g class="djs-group">
    <g id="gfx-baa02a9d-0068-4923-8939-4f97e35e8b92" display="block" class="djs-element djs-connection" data-element-id="baa02a9d-0068-4923-8939-4f97e35e8b92">
      <g class="djs-visual">
        <g>
          <defs>
            <marker refX="9.8" refY="6" orient="auto" markerWidth="12" markerHeight="12" markerUnits="strokeWidth" id="arrowSecuenceFlowbaa02a9d-0068-4923-8939-4f97e35e8b92">
              <path d="M0 0 L2 6 L0 12 L10 6 z" style="fill:black;" />
            </marker>
          </defs>
          <path d="M180 135 L285 135" marker-end="url(#arrowSecuenceFlowbaa02a9d-0068-4923-8939-4f97e35e8b92)" stroke-width="1px" stroke-linejoin="round" shape-rendering="crispEdges" fill-opacity="0" class="" style="fill:transparent;stroke:black;" />
        </g>
      </g>
    </g>
  </g>
  <g class="djs-group">
    <g id="gfx-e5c47087-9ed8-4f3f-bbd9-da1f8b8c9f43" display="block" class="djs-element djs-connection" data-element-id="e5c47087-9ed8-4f3f-bbd9-da1f8b8c9f43">
      <g class="djs-visual">
        <g>
          <defs>
            <marker refX="9.8" refY="6" orient="auto" markerWidth="12" markerHeight="12" markerUnits="strokeWidth" id="arrowSecuenceFlowe5c47087-9ed8-4f3f-bbd9-da1f8b8c9f43">
              <path d="M0 0 L2 6 L0 12 L10 6 z" style="fill:black;" />
            </marker>
          </defs>
          <path d="M409 135 L560 135" marker-end="url(#arrowSecuenceFlowe5c47087-9ed8-4f3f-bbd9-da1f8b8c9f43)" stroke-width="1px" stroke-linejoin="round" shape-rendering="crispEdges" fill-opacity="0" class="" style="fill:transparent;stroke:black;" />
        </g>
      </g>
    </g>
  </g>
</svg>