<?xml version="1.0" encoding="utf-8"?>
<!DOCTYPE svg PUBLIC "-//W3C//DTD SVG 1.1//EN" "http://www.w3.org/Graphics/SVG/1.1/DTD/svg11.dtd">
<svg width="650" height="963px" viewBox="11, 14, 650, 963" xmlns="http://www.w3.org/2000/svg" xmlns:xlink="http://www.w3.org/1999/xlink" xmlns:xml="http://www.w3.org/XML/1998/namespace" version="1.1">
  <defs>
    <marker refX="5" refY="5" orient="auto" markerWidth="10" markerHeight="10" id="startMessageFlow1a2db327-8412-4b26-808d-f485783a3e84">
      <circle cx="5" cy="5" r="4" stroke-width="1px" style="fill:white;stroke:black;" />
    </marker>
    <marker refX="15" refY="6.5" orient="auto" markerWidth="16" markerHeight="14" id="endMessageFlow1a2db327-8412-4b26-808d-f485783a3e84">
      <path d="M0 1 L0 13 L15 6.5 z" stroke-width="1px" style="fill:white;stroke:black;" />
    </marker>
  </defs>
  <g class="djs-group">
    <g transform="matrix(1, 0, 0, 1, 30, 30)" id="gfx-18a838b4-b4c6-44e1-8a00-fc26946385ac" display="block" class="djs-element djs-shape" data-element-id="18a838b4-b4c6-44e1-8a00-fc26946385ac">
      <g class="djs-visual">
        <g>
          <rect x="0" y="0" width="603" height="350" opacity="0" fill-opacity="0" style="fill:transparent;" />
          <path d="M603 0 L0 0 L0 350 L603 350 z M50 0 L50 350" stroke-width="1px" shape-rendering="crispEdges" fill-opacity="0" class="" style="fill:transparent;stroke:black;" />
        </g>
      </g>
      <svg width="50" height="350" class="djs-svg-text">
        <text transform="matrix(-1.83697E-16, -1, 1, -1.83697E-16, 0, 350)" font-family="'Segoe UI'" font-size="13.2815px" font-style="normal" font-weight="bold" lineHeight="1.2" textDirection="270" textAlign="center" class="djs-label" style="fill:black;">
          <tspan x="120.3627" y="28.75">Contracting Body</tspan>
        </text>
      </svg>
    </g>
  </g>
  <g class="djs-group">
    <g transform="matrix(1, 0, 0, 1, 27, 472)" id="gfx-19cb9962-c3ed-4a0e-a6db-f7fe8ca9ff83" display="block" class="djs-element djs-shape" data-element-id="19cb9962-c3ed-4a0e-a6db-f7fe8ca9ff83">
      <g class="djs-visual">
        <g>
          <rect x="0" y="0" width="618" height="350" opacity="0" fill-opacity="0" style="fill:transparent;" />
          <path d="M618 0 L0 0 L0 350 L618 350 z M50 0 L50 350" stroke-width="1px" shape-rendering="crispEdges" fill-opacity="0" class="" style="fill:transparent;stroke:black;" />
        </g>
      </g>
      <svg width="50" height="350" class="djs-svg-text">
        <text transform="matrix(-1.83697E-16, -1, 1, -1.83697E-16, 0, 350)" font-family="'Segoe UI'" font-size="13.2815px" font-style="normal" font-weight="bold" lineHeight="1.2" textDirection="270" textAlign="center" class="djs-label" style="fill:black;">
          <tspan x="114.9353" y="28.75">Economic Operator</tspan>
        </text>
      </svg>
    </g>
  </g>
  <g class="djs-group">
    <g transform="matrix(1, 0, 0, 1, 287, 161)" id="gfx-7d51b82f-fa62-448a-a68a-8d5af73ef3fe" display="block" class="djs-element djs-shape" data-element-id="7d51b82f-fa62-448a-a68a-8d5af73ef3fe">
      <g class="djs-visual">
        <g>
          <rect x="0" y="0" width="90" height="60" rx="5" stroke-width="2.4px" class="" style="fill:#ECEFFF;stroke:#03689A;" />
          <g>
            <g transform="translate(37, 44)">
              <rect x="0" y="0" width="15" height="15" stroke-width="2px" style="fill:#ECEFFF;stroke:#03689A;" />
              <path d="M7.5 3 L7.5 12 M3 7.5 L12 7.5" stroke-width="3px" style="fill:#ECEFFF;stroke:#03689A;" />
            </g>
          </g>
        </g>
      </g>
    </g>
  </g>
  <g class="djs-group">
    <g transform="matrix(1, 0, 0, 1, 285, 158)" id="gfx-cb77625d-52d8-449c-bc14-7c4054dac481" display="block" class="djs-element djs-shape" data-element-id="cb77625d-52d8-449c-bc14-7c4054dac481">
      <g class="djs-visual">
        <rect x="0" y="0" width="92" height="53" fill-opacity="0" stroke-opacity="0" style="fill:#FFFFFF;stroke:transparent;" />
        <svg width="92" height="48" class="djs-svg-text">
          <text font-family="'Segoe UI'" font-size="10.6252px" font-style="normal" font-weight="normal" lineHeight="1.2" textDirection="0" textAlign="center" class="djs-label" style="fill:black;">
            <tspan x="27.95173" y="14.75">P012 -  </tspan>
            <tspan x="14.95937" y="27.75">Qualification </tspan>
            <tspan x="23.68143" y="40.75">Response</tspan>
          </text>
        </svg>
      </g>
    </g>
  </g>
  <g class="djs-group">
    <g transform="matrix(1, 0, 0, 1, 280, 591)" id="gfx-9f06c100-a050-44aa-8814-7782732936ff" display="block" class="djs-element djs-shape" data-element-id="9f06c100-a050-44aa-8814-7782732936ff">
      <g class="djs-visual">
        <g>
          <rect x="0" y="0" width="90" height="60" rx="5" stroke-width="2.4px" class="" style="fill:#ECEFFF;stroke:#03689A;" />
          <g>
            <g transform="translate(37, 44)">
              <rect x="0" y="0" width="15" height="15" stroke-width="2px" style="fill:#ECEFFF;stroke:#03689A;" />
              <path d="M7.5 3 L7.5 12 M3 7.5 L12 7.5" stroke-width="3px" style="fill:#ECEFFF;stroke:#03689A;" />
            </g>
          </g>
        </g>
      </g>
    </g>
  </g>
  <g class="djs-group">
    <g transform="matrix(1, 0, 0, 1, 280, 586)" id="gfx-5bc9fd01-37ba-4c6b-b979-77925a4ae061" display="block" class="djs-element djs-shape" data-element-id="5bc9fd01-37ba-4c6b-b979-77925a4ae061">
      <g class="djs-visual">
        <rect x="0" y="0" width="90" height="50" fill-opacity="0" stroke-opacity="0" style="fill:#FFFFFF;stroke:transparent;" />
        <svg width="90" height="45" class="djs-svg-text">
          <text font-family="'Segoe UI'" font-size="10.6252px" font-style="normal" font-weight="normal" lineHeight="1.2" textDirection="0" textAlign="center" class="djs-label" style="fill:black;">
            <tspan x="28.40627" y="14.75">P012 - </tspan>
            <tspan x="13.95937" y="27.75">Qualification </tspan>
            <tspan x="22.68143" y="40.75">Response</tspan>
          </text>
        </svg>
      </g>
    </g>
  </g>
  <g class="djs-group">
    <g transform="matrix(1, 0, 0, 1, 170, 176)" id="gfx-a830d670-784f-42e0-8559-b8a05e507055" display="block" class="djs-element djs-shape" data-element-id="a830d670-784f-42e0-8559-b8a05e507055">
      <g class="djs-visual">
        <g>
          <g transform="translate(-8.90625, -8.90625) scale(1.5)">
            <path d="M16 25.2 C10.9 25.2 6.8 21.1 6.8 16 C6.8 10.9 10.9 6.8 16 6.8 C21.1 6.8 25.2 10.9 25.2 16 C25.2 21.1 21.1 25.2 16 25.2 L16 25.2 z" style="fill:#E6FF97;" />
            <path d="M15.9 7 C20.9 7 24.9 11 24.9 16 C24.9 21 20.9 25 15.9 25 C10.9 25 6.9 21 6.9 16 C6.9 11 10.9 7 15.9 7 M15.9 6 C10.4 6 5.9 10.5 5.9 16 C5.9 21.5 10.4 26 15.9 26 C21.4 26 25.9 21.5 25.9 16 C25.9 10.5 21.4 6 15.9 6 z" stroke-width="0.2px" class="" style="fill:#62A716;stroke:#62A716;" />
          </g>
        </g>
      </g>
    </g>
  </g>
  <g class="djs-group">
    <g transform="matrix(1, 0, 0, 1, 124, 214)" id="gfx-ccce4103-aa97-4cdd-9f89-4816c3979b61" display="block" class="djs-element djs-shape" data-element-id="ccce4103-aa97-4cdd-9f89-4816c3979b61">
      <g class="djs-visual">
        <rect x="0" y="0" width="121" height="53" fill-opacity="0" stroke-opacity="0" style="fill:#FFFFFF;stroke:transparent;" />
        <svg width="121" height="48" class="djs-svg-text">
          <text font-family="'Segoe UI'" font-size="10.6252px" font-style="normal" font-weight="normal" lineHeight="1.2" textDirection="0" textAlign="center" class="djs-label" style="fill:black;">
            <tspan x="12.75158" y="14.75">Participants selected</tspan>
          </text>
        </svg>
      </g>
    </g>
  </g>
  <g class="djs-group">
    <g transform="matrix(1, 0, 0, 1, 112, 606)" id="gfx-433dbd16-bbf9-4c1a-85c2-3368693cbd60" display="block" class="djs-element djs-shape" data-element-id="433dbd16-bbf9-4c1a-85c2-3368693cbd60">
      <g class="djs-visual">
        <g>
          <g transform="translate(-8.90625, -8.90625) scale(1.5)">
            <path d="M16 25.2 C10.9 25.2 6.8 21.1 6.8 16 C6.8 10.9 10.9 6.8 16 6.8 C21.1 6.8 25.2 10.9 25.2 16 C25.2 21.1 21.1 25.2 16 25.2 L16 25.2 z" style="fill:#E6FF97;" />
            <path d="M15.9 7 C20.9 7 24.9 11 24.9 16 C24.9 21 20.9 25 15.9 25 C10.9 25 6.9 21 6.9 16 C6.9 11 10.9 7 15.9 7 M15.9 6 C10.4 6 5.9 10.5 5.9 16 C5.9 21.5 10.4 26 15.9 26 C21.4 26 25.9 21.5 25.9 16 C25.9 10.5 21.4 6 15.9 6 z" stroke-width="0.2px" class="" style="fill:#62A716;stroke:#62A716;" />
          </g>
        </g>
      </g>
    </g>
  </g>
  <g class="djs-group">
    <g transform="matrix(1, 0, 0, 1, 493, 176)" id="gfx-1a464714-21c4-48aa-8b46-be4b00abd57d" display="block" class="djs-element djs-shape" data-element-id="1a464714-21c4-48aa-8b46-be4b00abd57d">
      <g class="djs-visual">
        <g>
          <g transform="translate(-8.90625, -8.90625) scale(1.5)">
            <path d="M16 25.2 A9.2 9.2 0 1 1 25.2 16 A9.2 9.2 0 0 1 16 25.2 z" style="fill:#EEAAAA;" />
            <path d="M16 7.5 A8.5 8.5 0 1 1 7.5 16 A8.5 8.5 0 0 1 16 7.5 M16 6 A10 10 0 1 0 26 16 A10 10 0 0 0 16 6 z" stroke-width="0.4px" class="" style="fill:#990000;stroke:#990000;" />
          </g>
        </g>
      </g>
    </g>
  </g>
  <g class="djs-group">
    <g transform="matrix(1, 0, 0, 1, 448, 214)" id="gfx-59ea1490-f395-4666-b454-c510779d79f0" display="block" class="djs-element djs-shape" data-element-id="59ea1490-f395-4666-b454-c510779d79f0">
      <g class="djs-visual">
        <rect x="0" y="0" width="119" height="53" fill-opacity="0" stroke-opacity="0" style="fill:#FFFFFF;stroke:transparent;" />
        <svg width="119" height="48" class="djs-svg-text">
          <text font-family="'Segoe UI'" font-size="10.6252px" font-style="normal" font-weight="normal" lineHeight="1.2" textDirection="0" textAlign="center" class="djs-label" style="fill:black;">
            <tspan x="10.05849" y="14.75">Qualification finished</tspan>
          </text>
        </svg>
      </g>
    </g>
  </g>
  <g class="djs-group">
    <g transform="matrix(1, 0, 0, 1, 527, 515)" id="gfx-09a94bde-eefa-479f-8f30-5c199eb1661a" display="block" class="djs-element djs-shape" data-element-id="09a94bde-eefa-479f-8f30-5c199eb1661a">
      <g class="djs-visual">
        <g>
          <g transform="translate(-8.90625, -8.90625) scale(1.5)">
            <path d="M16 25.2 A9.2 9.2 0 1 1 25.2 16 A9.2 9.2 0 0 1 16 25.2 z" style="fill:#EEAAAA;" />
            <path d="M16 7.5 A8.5 8.5 0 1 1 7.5 16 A8.5 8.5 0 0 1 16 7.5 M16 6 A10 10 0 1 0 26 16 A10 10 0 0 0 16 6 z" stroke-width="0.4px" class="" style="fill:#990000;stroke:#990000;" />
          </g>
        </g>
      </g>
    </g>
  </g>
  <g class="djs-group">
    <g transform="matrix(1, 0, 0, 1, 490, 553)" id="gfx-bb1e6dac-0183-4087-b51a-0cac3139046e" display="block" class="djs-element djs-shape" data-element-id="bb1e6dac-0183-4087-b51a-0cac3139046e">
      <g class="djs-visual">
        <rect x="0" y="0" width="107" height="79" fill-opacity="0" stroke-opacity="0" style="fill:#FFFFFF;stroke:transparent;" />
        <svg width="107" height="74" class="djs-svg-text">
          <text font-family="'Segoe UI'" font-size="10.6252px" font-style="normal" font-weight="normal" lineHeight="1.2" textDirection="0" textAlign="center" class="djs-label" style="fill:black;">
            <tspan x="22.45937" y="14.75">Qualification </tspan>
            <tspan x="34.65835" y="27.75">rejected</tspan>
          </text>
        </svg>
      </g>
    </g>
  </g>
  <g class="djs-group">
    <g transform="matrix(1, 0, 0, 1, 511, 718)" id="gfx-5930a928-bd9e-4837-a591-33a1895f5fc8" display="block" class="djs-element djs-shape" data-element-id="5930a928-bd9e-4837-a591-33a1895f5fc8">
      <g class="djs-visual">
        <g>
          <g transform="translate(-8.90625, -8.90625) scale(1.5)">
            <path d="M16 25.2 A9.2 9.2 0 1 1 25.2 16 A9.2 9.2 0 0 1 16 25.2 z" style="fill:#EEAAAA;" />
            <path d="M16 7.5 A8.5 8.5 0 1 1 7.5 16 A8.5 8.5 0 0 1 16 7.5 M16 6 A10 10 0 1 0 26 16 A10 10 0 0 0 16 6 z" stroke-width="0.4px" class="" style="fill:#990000;stroke:#990000;" />
          </g>
        </g>
      </g>
    </g>
  </g>
  <g class="djs-group">
    <g transform="matrix(1, 0, 0, 1, 465, 752)" id="gfx-513e7bb9-659c-4e26-ac77-6952e3448287" display="block" class="djs-element djs-shape" data-element-id="513e7bb9-659c-4e26-ac77-6952e3448287">
      <g class="djs-visual">
        <rect x="0" y="0" width="120" height="79" fill-opacity="0" stroke-opacity="0" style="fill:#FFFFFF;stroke:transparent;" />
        <svg width="120" height="74" class="djs-svg-text">
          <text font-family="'Segoe UI'" font-size="10.6252px" font-style="normal" font-weight="normal" lineHeight="1.2" textDirection="0" textAlign="center" class="djs-label" style="fill:black;">
            <tspan x="7.750519" y="14.75">Qualification accepted</tspan>
          </text>
        </svg>
      </g>
    </g>
  </g>
  <g class="djs-group">
    <g transform="matrix(1, 0, 0, 1, 420, 601)" id="gfx-9076db1d-9330-4495-bf71-f2be5ed71898" display="block" class="djs-element djs-shape" data-element-id="9076db1d-9330-4495-bf71-f2be5ed71898">
      <g class="djs-visual">
        <g>
          <path d="M0 20 L20 40 L40 20 L20 0 z" stroke-width="1.8px" class="" style="fill:#FFFFCC;stroke:#A6A61D;" />
        </g>
      </g>
    </g>
  </g>
  <g class="djs-group">
    <g id="gfx-1a2db327-8412-4b26-808d-f485783a3e84" display="block" class="djs-element djs-connection" data-element-id="1a2db327-8412-4b26-808d-f485783a3e84">
      <g class="djs-visual">
        <g>
          <defs>
            <marker refX="5" refY="5" orient="auto" markerWidth="10" markerHeight="10" id="startMessageFlow1a2db327-8412-4b26-808d-f485783a3e84#1">
              <circle cx="5" cy="5" r="4" stroke-width="1px" style="fill:white;stroke:black;" />
            </marker>
            <marker refX="15" refY="6.5" orient="auto" markerWidth="16" markerHeight="14" id="endMessageFlow1a2db327-8412-4b26-808d-f485783a3e84#1">
              <path d="M0 1 L0 13 L15 6.5 z" stroke-width="1px" style="fill:white;stroke:black;" />
            </marker>
          </defs>
          <path d="M364 221 L364 406 L362 406 L362 591" marker-end="url(#endMessageFlow1a2db327-8412-4b26-808d-f485783a3e84)" marker-start="url(#startMessageFlow1a2db327-8412-4b26-808d-f485783a3e84)" stroke-width="1px" stroke-linecap="round" stroke-linejoin="round" stroke-dasharray="6 4" shape-rendering="crispEdges" fill-opacity="0" class="" style="fill:transparent;stroke:black;" />
        </g>
      </g>
    </g>
  </g>
  <g class="djs-group">
    <g id="gfx-1c9678dd-79c3-4865-a11d-e19f25f6ef1e" display="block" class="djs-element djs-connection" data-element-id="1c9678dd-79c3-4865-a11d-e19f25f6ef1e">
      <g class="djs-visual">
        <g>
          <defs>
            <marker refX="5" refY="5" orient="auto" markerWidth="10" markerHeight="10" id="startMessageFlow1c9678dd-79c3-4865-a11d-e19f25f6ef1e">
              <circle cx="5" cy="5" r="4" stroke-width="1px" style="fill:white;stroke:black;" />
            </marker>
            <marker refX="15" refY="6.5" orient="auto" markerWidth="16" markerHeight="14" id="endMessageFlow1c9678dd-79c3-4865-a11d-e19f25f6ef1e">
              <path d="M0 1 L0 13 L15 6.5 z" stroke-width="1px" style="fill:white;stroke:black;" />
            </marker>
          </defs>
          <path d="M303 591 L303 221" marker-end="url(#endMessageFlow1c9678dd-79c3-4865-a11d-e19f25f6ef1e)" marker-start="url(#startMessageFlow1c9678dd-79c3-4865-a11d-e19f25f6ef1e)" stroke-width="1px" stroke-linecap="round" stroke-linejoin="round" stroke-dasharray="6 4" shape-rendering="crispEdges" fill-opacity="0" class="" style="fill:transparent;stroke:black;" />
        </g>
      </g>
    </g>
  </g>
  <g class="djs-group">
    <g id="gfx-2bed5d5b-4893-4230-adef-26cf00c3bf92" display="block" class="djs-element djs-connection" data-element-id="2bed5d5b-4893-4230-adef-26cf00c3bf92">
      <g class="djs-visual">
        <g>
          <defs>
            <marker refX="9.8" refY="6" orient="auto" markerWidth="12" markerHeight="12" markerUnits="strokeWidth" id="arrowSecuenceFlow2bed5d5b-4893-4230-adef-26cf00c3bf92">
              <path d="M0 0 L2 6 L0 12 L10 6 z" style="fill:black;" />
            </marker>
          </defs>
          <path d="M200 191 L287 191" marker-end="url(#arrowSecuenceFlow2bed5d5b-4893-4230-adef-26cf00c3bf92)" stroke-width="1px" stroke-linejoin="round" shape-rendering="crispEdges" fill-opacity="0" class="" style="fill:transparent;stroke:black;" />
        </g>
      </g>
    </g>
  </g>
  <g class="djs-group">
    <g id="gfx-dde83a39-3b7a-4c20-85a9-9e0ba885f307" display="block" class="djs-element djs-connection" data-element-id="dde83a39-3b7a-4c20-85a9-9e0ba885f307">
      <g class="djs-visual">
        <g>
          <defs>
            <marker refX="9.8" refY="6" orient="auto" markerWidth="12" markerHeight="12" markerUnits="strokeWidth" id="arrowSecuenceFlowdde83a39-3b7a-4c20-85a9-9e0ba885f307">
              <path d="M0 0 L2 6 L0 12 L10 6 z" style="fill:black;" />
            </marker>
          </defs>
          <path d="M377 191 L493 191" marker-end="url(#arrowSecuenceFlowdde83a39-3b7a-4c20-85a9-9e0ba885f307)" stroke-width="1px" stroke-linejoin="round" shape-rendering="crispEdges" fill-opacity="0" class="" style="fill:transparent;stroke:black;" />
        </g>
      </g>
    </g>
  </g>
  <g class="djs-group">
    <g id="gfx-2c8b0e8b-4b2b-4105-af98-96c92eaba53b" display="block" class="djs-element djs-connection" data-element-id="2c8b0e8b-4b2b-4105-af98-96c92eaba53b">
      <g class="djs-visual">
        <g>
          <defs>
            <marker refX="9.8" refY="6" orient="auto" markerWidth="12" markerHeight="12" markerUnits="strokeWidth" id="arrowSecuenceFlow2c8b0e8b-4b2b-4105-af98-96c92eaba53b">
              <path d="M0 0 L2 6 L0 12 L10 6 z" style="fill:black;" />
            </marker>
          </defs>
          <path d="M142 621 L280 621" marker-end="url(#arrowSecuenceFlow2c8b0e8b-4b2b-4105-af98-96c92eaba53b)" stroke-width="1px" stroke-linejoin="round" shape-rendering="crispEdges" fill-opacity="0" class="" style="fill:transparent;stroke:black;" />
        </g>
      </g>
    </g>
  </g>
  <g class="djs-group">
    <g id="gfx-1e3ce089-e9ed-4477-999d-299c6d14af38" display="block" class="djs-element djs-connection" data-element-id="1e3ce089-e9ed-4477-999d-299c6d14af38">
      <g class="djs-visual">
        <g>
          <defs>
            <marker refX="9.8" refY="6" orient="auto" markerWidth="12" markerHeight="12" markerUnits="strokeWidth" id="arrowSecuenceFlow1e3ce089-e9ed-4477-999d-299c6d14af38">
              <path d="M0 0 L2 6 L0 12 L10 6 z" style="fill:black;" />
            </marker>
          </defs>
          <path d="M370 621 L420 621" marker-end="url(#arrowSecuenceFlow1e3ce089-e9ed-4477-999d-299c6d14af38)" stroke-width="1px" stroke-linejoin="round" shape-rendering="crispEdges" fill-opacity="0" class="" style="fill:transparent;stroke:black;" />
        </g>
      </g>
    </g>
  </g>
  <g class="djs-group">
    <g id="gfx-3f793798-a26b-4733-ad45-3bda39b3b1b6" display="block" class="djs-element djs-connection" data-element-id="3f793798-a26b-4733-ad45-3bda39b3b1b6">
      <g class="djs-visual">
        <g>
          <defs>
            <marker refX="9.8" refY="6" orient="auto" markerWidth="12" markerHeight="12" markerUnits="strokeWidth" id="arrowSecuenceFlow3f793798-a26b-4733-ad45-3bda39b3b1b6">
              <path d="M0 0 L2 6 L0 12 L10 6 z" style="fill:black;" />
            </marker>
          </defs>
          <path d="M440 601 L440 536 C440 536 440 530 446 530 L527 530" marker-end="url(#arrowSecuenceFlow3f793798-a26b-4733-ad45-3bda39b3b1b6)" stroke-width="1px" stroke-linejoin="round" shape-rendering="crispEdges" fill-opacity="0" class="" style="fill:transparent;stroke:black;" />
        </g>
      </g>
    </g>
  </g>
  <g class="djs-group">
    <g id="gfx-24d2b2cb-9703-4ccd-bc02-e90b409dec7a" display="block" class="djs-element djs-connection" data-element-id="24d2b2cb-9703-4ccd-bc02-e90b409dec7a">
      <g class="djs-visual">
        <g>
          <defs>
            <marker refX="9.8" refY="6" orient="auto" markerWidth="12" markerHeight="12" markerUnits="strokeWidth" id="arrowSecuenceFlow24d2b2cb-9703-4ccd-bc02-e90b409dec7a">
              <path d="M0 0 L2 6 L0 12 L10 6 z" style="fill:black;" />
            </marker>
          </defs>
          <path d="M440 641 L440 727 C440 727 440 733 446 733 L511 733" marker-end="url(#arrowSecuenceFlow24d2b2cb-9703-4ccd-bc02-e90b409dec7a)" stroke-width="1px" stroke-linejoin="round" shape-rendering="crispEdges" fill-opacity="0" class="" style="fill:transparent;stroke:black;" />
        </g>
      </g>
    </g>
  </g>
</svg>