<?xml version="1.0" encoding="UTF-8"?>
<!DOCTYPE svg PUBLIC "-//W3C//DTD SVG 1.1//EN" "http://www.w3.org/Graphics/SVG/1.1/DTD/svg11.dtd">
<svg width="476" height="755px" viewBox="14, 51, 476, 755" xmlns="http://www.w3.org/2000/svg" xmlns:xlink="http://www.w3.org/1999/xlink" xmlns:xml="http://www.w3.org/XML/1998/namespace" version="1.1">
  <defs>
    <marker refX="5" refY="5" orient="auto" markerWidth="10" markerHeight="10" id="startMessageFlow2de6267e-7578-4264-806c-9f6c9dd029d3">
      <circle cx="5" cy="5" r="4" stroke-width="1px" style="fill:white;stroke:black;"/>
    </marker>
    <marker refX="15" refY="6.5" orient="auto" markerWidth="16" markerHeight="14" id="endMessageFlow2de6267e-7578-4264-806c-9f6c9dd029d3">
      <path d="M0 1 L0 13 L15 6.5 z" stroke-width="1px" style="fill:white;stroke:black;"/>
    </marker>
  </defs>
  <g class="djs-group">
    <g transform="matrix(1, 0, 0, 1, 31, 67)" id="gfx-9425a8ef-3709-4a24-af73-48ea0158cdf2" display="block" class="djs-element djs-shape" data-element-id="9425a8ef-3709-4a24-af73-48ea0158cdf2">
      <g class="djs-visual">
        <g>
          <rect x="0" y="0" width="443" height="240" opacity="0" fill-opacity="0" style="fill:transparent;"/>
          <path d="M443 0 L0 0 L0 240 L443 240 z M50 0 L50 240" stroke-width="1px" shape-rendering="crispEdges" fill-opacity="0" class="" style="fill:transparent;stroke:black;"/>
        </g>
      </g>
      <svg width="50" height="240" class="djs-svg-text">
        <text transform="matrix(-1.83697E-16, -1, 1, -1.83697E-16, 0, 240)" font-family="'Segoe UI'" font-size="13.2815px" font-style="normal" font-weight="bold" lineHeight="1.2" textDirection="270" textAlign="center" class="djs-label" style="fill:black;">
          <tspan x="23.62936" y="28.75">Customer --- Contracting Body</tspan>
        </text>
      </svg>
    </g>
  </g>
  <g class="djs-group">
    <g transform="matrix(1, 0, 0, 1, 30, 432)" id="gfx-46bfc7ae-ec96-48b1-b893-71bf23b239dc" display="block" class="djs-element djs-shape" data-element-id="46bfc7ae-ec96-48b1-b893-71bf23b239dc">
      <g class="djs-visual">
        <g>
          <rect x="0" y="0" width="444" height="245" opacity="0" fill-opacity="0" style="fill:transparent;"/>
          <path d="M444 0 L0 0 L0 245 L444 245 z M50 0 L50 245" stroke-width="1px" shape-rendering="crispEdges" fill-opacity="0" class="" style="fill:transparent;stroke:black;"/>
        </g>
      </g>
      <svg width="50" height="245" class="djs-svg-text">
        <text transform="matrix(-1.83697E-16, -1, 1, -1.83697E-16, 0, 245)" font-family="'Segoe UI'" font-size="13.2815px" font-style="normal" font-weight="bold" lineHeight="1.2" textDirection="270" textAlign="center" class="djs-label" style="fill:black;">
          <tspan x="24.73521" y="28.75">Supplier --- Economic Operator</tspan>
        </text>
      </svg>
    </g>
  </g>
  <g class="djs-group">
    <g transform="matrix(1, 0, 0, 1, 202, 156)" id="gfx-f31395a9-f697-4c9a-a4de-61c098aeb96d" display="block" class="djs-element djs-shape" data-element-id="f31395a9-f697-4c9a-a4de-61c098aeb96d">
      <g class="djs-visual">
        <g>
          <rect x="0" y="0" width="90" height="60" rx="8" stroke-width="2px" class="" style="fill:#ECEFFF;stroke:#03689A;"/>
          <g/>
        </g>
      </g>
      <svg width="90" height="56" class="djs-svg-text">
        <text font-family="'Segoe UI'" font-size="10.6252px" font-style="normal" font-weight="normal" lineHeight="1.2" textDirection="0" textAlign="center" class="djs-label" style="fill:black;">
          <tspan x="8.110062" y="26.75">Send Awarding </tspan>
          <tspan x="17.52702" y="39.75">Notification</tspan>
        </text>
      </svg>
    </g>
  </g>
  <g class="djs-group">
    <g transform="matrix(1, 0, 0, 1, 202, 527)" id="gfx-d16b3690-78c7-42f4-a923-0ffd53f3bff4" display="block" class="djs-element djs-shape" data-element-id="d16b3690-78c7-42f4-a923-0ffd53f3bff4">
      <g class="djs-visual">
        <g>
          <rect x="0" y="0" width="90" height="60" rx="8" stroke-width="2px" class="" style="fill:#ECEFFF;stroke:#03689A;"/>
          <g/>
        </g>
      </g>
      <svg width="90" height="56" class="djs-svg-text">
        <text font-family="'Segoe UI'" font-size="10.6252px" font-style="normal" font-weight="normal" lineHeight="1.2" textDirection="0" textAlign="center" class="djs-label" style="fill:black;">
          <tspan x="25.91203" y="20.25">Receive </tspan>
          <tspan x="21.2943" y="33.25">Awarding </tspan>
          <tspan x="17.52702" y="46.25">Notification</tspan>
        </text>
      </svg>
    </g>
  </g>
  <g class="djs-group">
    <g transform="matrix(1, 0, 0, 1, 111, 171)" id="gfx-5dfa7145-f436-4a65-8fb2-e037abbcbea3" display="block" class="djs-element djs-shape" data-element-id="5dfa7145-f436-4a65-8fb2-e037abbcbea3">
      <g class="djs-visual">
        <g>
          <g transform="translate(-8.90625, -8.90625) scale(1.5)">
            <path d="M16 25.2 C10.9 25.2 6.8 21.1 6.8 16 C6.8 10.9 10.9 6.8 16 6.8 C21.1 6.8 25.2 10.9 25.2 16 C25.2 21.1 21.1 25.2 16 25.2 L16 25.2 z" style="fill:#E6FF97;"/>
            <path d="M15.9 7 C20.9 7 24.9 11 24.9 16 C24.9 21 20.9 25 15.9 25 C10.9 25 6.9 21 6.9 16 C6.9 11 10.9 7 15.9 7 M15.9 6 C10.4 6 5.9 10.5 5.9 16 C5.9 21.5 10.4 26 15.9 26 C21.4 26 25.9 21.5 25.9 16 C25.9 10.5 21.4 6 15.9 6 z" stroke-width="0.2px" class="" style="fill:#62A716;stroke:#62A716;"/>
          </g>
        </g>
      </g>
    </g>
  </g>
  <g class="djs-group">
    <g transform="matrix(1, 0, 0, 1, 87, 206)" id="gfx-6f7869b2-74ec-47b3-aa3e-a8b75deba7dd" display="block" class="djs-element djs-shape" data-element-id="6f7869b2-74ec-47b3-aa3e-a8b75deba7dd">
      <g class="djs-visual">
        <rect x="0" y="0" width="74" height="40" fill-opacity="0" stroke-opacity="0" style="fill:#FFFFFF;stroke:transparent;"/>
        <svg width="74" height="35" class="djs-svg-text">
          <text font-family="'Segoe UI'" font-size="10.6252px" font-style="normal" font-weight="normal" lineHeight="1.2" textDirection="0" textAlign="center" class="djs-label" style="fill:black;">
            <tspan x="19.7503" y="14.75">Tender </tspan>
            <tspan x="14.28215" y="27.75">evaluated</tspan>
          </text>
        </svg>
      </g>
    </g>
  </g>
  <g class="djs-group">
    <g transform="matrix(1, 0, 0, 1, 124, 542)" id="gfx-b1d34606-a7fc-4c77-a876-23c6fcd1cab7" display="block" class="djs-element djs-shape" data-element-id="b1d34606-a7fc-4c77-a876-23c6fcd1cab7">
      <g class="djs-visual">
        <g>
          <g transform="translate(-8.90625, -8.90625) scale(1.5)">
            <path d="M16 25.2 C10.9 25.2 6.8 21.1 6.8 16 C6.8 10.9 10.9 6.8 16 6.8 C21.1 6.8 25.2 10.9 25.2 16 C25.2 21.1 21.1 25.2 16 25.2 L16 25.2 z" style="fill:#E6FF97;"/>
            <path d="M15.9 7 C20.9 7 24.9 11 24.9 16 C24.9 21 20.9 25 15.9 25 C10.9 25 6.9 21 6.9 16 C6.9 11 10.9 7 15.9 7 M15.9 6 C10.4 6 5.9 10.5 5.9 16 C5.9 21.5 10.4 26 15.9 26 C21.4 26 25.9 21.5 25.9 16 C25.9 10.5 21.4 6 15.9 6 z" stroke-width="0.2px" class="" style="fill:#62A716;stroke:#62A716;"/>
          </g>
        </g>
      </g>
    </g>
  </g>
  <g class="djs-group">
    <g transform="matrix(1, 0, 0, 1, 106, 578)" id="gfx-4ce4478d-9896-4f53-9336-d0efad818903" display="block" class="djs-element djs-shape" data-element-id="4ce4478d-9896-4f53-9336-d0efad818903">
      <g class="djs-visual">
        <rect x="0" y="0" width="66" height="44" fill-opacity="0" stroke-opacity="0" style="fill:#FFFFFF;stroke:transparent;"/>
        <svg width="66" height="39" class="djs-svg-text">
          <text font-family="'Segoe UI'" font-size="10.6252px" font-style="normal" font-weight="normal" lineHeight="1.2" textDirection="0" textAlign="center" class="djs-label" style="fill:black;">
            <tspan x="15.7503" y="14.75">Tender </tspan>
            <tspan x="8.690201" y="27.75">Submitted</tspan>
          </text>
        </svg>
      </g>
    </g>
  </g>
  <g class="djs-group">
    <g transform="matrix(1, 0, 0, 1, 358, 171)" id="gfx-a6327486-ef8e-40e0-9d5e-da9443449bbe" display="block" class="djs-element djs-shape" data-element-id="a6327486-ef8e-40e0-9d5e-da9443449bbe">
      <g class="djs-visual">
        <g>
          <g transform="translate(-8.90625, -8.90625) scale(1.5)">
            <path d="M16 25.2 A9.2 9.2 0 1 1 25.2 16 A9.2 9.2 0 0 1 16 25.2 z" style="fill:#EEAAAA;"/>
            <path d="M16 7.5 A8.5 8.5 0 1 1 7.5 16 A8.5 8.5 0 0 1 16 7.5 M16 6 A10 10 0 1 0 26 16 A10 10 0 0 0 16 6 z" stroke-width="0.4px" class="" style="fill:#990000;stroke:#990000;"/>
          </g>
        </g>
      </g>
    </g>
  </g>
  <g class="djs-group">
    <g transform="matrix(1, 0, 0, 1, 330, 206)" id="gfx-1c612dd9-bb5e-4475-bcec-f478ba4edbd5" display="block" class="djs-element djs-shape" data-element-id="1c612dd9-bb5e-4475-bcec-f478ba4edbd5">
      <g class="djs-visual">
        <rect x="0" y="0" width="82" height="52" fill-opacity="0" stroke-opacity="0" style="fill:#FFFFFF;stroke:transparent;"/>
        <svg width="82" height="47" class="djs-svg-text">
          <text font-family="'Segoe UI'" font-size="10.6252px" font-style="normal" font-weight="normal" lineHeight="1.2" textDirection="0" textAlign="center" class="djs-label" style="fill:black;">
            <tspan x="24.71221" y="14.75">Award </tspan>
            <tspan x="7.571434" y="27.75">Notificatation </tspan>
            <tspan x="31.16563" y="40.75">sent</tspan>
          </text>
        </svg>
      </g>
    </g>
  </g>
  <g class="djs-group">
    <g transform="matrix(1, 0, 0, 1, 327, 542)" id="gfx-2d3d441c-b5d2-44b8-88f4-2687487f3f7c" display="block" class="djs-element djs-shape" data-element-id="2d3d441c-b5d2-44b8-88f4-2687487f3f7c">
      <g class="djs-visual">
        <g>
          <g transform="translate(-8.90625, -8.90625) scale(1.5)">
            <path d="M16 25.2 A9.2 9.2 0 1 1 25.2 16 A9.2 9.2 0 0 1 16 25.2 z" style="fill:#EEAAAA;"/>
            <path d="M16 7.5 A8.5 8.5 0 1 1 7.5 16 A8.5 8.5 0 0 1 16 7.5 M16 6 A10 10 0 1 0 26 16 A10 10 0 0 0 16 6 z" stroke-width="0.4px" class="" style="fill:#990000;stroke:#990000;"/>
          </g>
        </g>
      </g>
    </g>
  </g>
  <g class="djs-group">
    <g transform="matrix(1, 0, 0, 1, 295, 580)" id="gfx-672a5aaf-3285-4821-bb93-ac593747fd94" display="block" class="djs-element djs-shape" data-element-id="672a5aaf-3285-4821-bb93-ac593747fd94">
      <g class="djs-visual">
        <rect x="0" y="0" width="89" height="50" fill-opacity="0" stroke-opacity="0" style="fill:#FFFFFF;stroke:transparent;"/>
        <svg width="89" height="45" class="djs-svg-text">
          <text font-family="'Segoe UI'" font-size="10.6252px" font-style="normal" font-weight="normal" lineHeight="1.2" textDirection="0" textAlign="center" class="djs-label" style="fill:black;">
            <tspan x="28.21221" y="14.75">Award </tspan>
            <tspan x="15.57248" y="27.75">Notification </tspan>
            <tspan x="24.91422" y="40.75">received</tspan>
          </text>
        </svg>
      </g>
    </g>
  </g>
  <g class="djs-group">
    <g id="gfx-2de6267e-7578-4264-806c-9f6c9dd029d3" display="block" class="djs-element djs-connection" data-element-id="2de6267e-7578-4264-806c-9f6c9dd029d3">
      <g class="djs-visual">
        <g>
          <defs>
            <marker refX="5" refY="5" orient="auto" markerWidth="10" markerHeight="10" id="startMessageFlow2de6267e-7578-4264-806c-9f6c9dd029d3#1">
              <circle cx="5" cy="5" r="4" stroke-width="1px" style="fill:white;stroke:black;"/>
            </marker>
            <marker refX="15" refY="6.5" orient="auto" markerWidth="16" markerHeight="14" id="endMessageFlow2de6267e-7578-4264-806c-9f6c9dd029d3#1">
              <path d="M0 1 L0 13 L15 6.5 z" stroke-width="1px" style="fill:white;stroke:black;"/>
            </marker>
          </defs>
          <path d="M247 216 L247 527" marker-end="url(#endMessageFlow2de6267e-7578-4264-806c-9f6c9dd029d3)" marker-start="url(#startMessageFlow2de6267e-7578-4264-806c-9f6c9dd029d3)" stroke-width="1px" stroke-linecap="round" stroke-linejoin="round" stroke-dasharray="6 4" shape-rendering="crispEdges" fill-opacity="0" class="" style="fill:transparent;stroke:black;"/>
        </g>
      </g>
    </g>
  </g>
  <g class="djs-group">
    <g transform="matrix(1, 0, 0, 1, 258, 349)" id="gfx-5001394b-bd76-47ad-9f71-332104cd36a2" display="block" class="djs-element djs-shape" data-element-id="5001394b-bd76-47ad-9f71-332104cd36a2">
      <g class="djs-visual">
        <rect x="0" y="0" width="76" height="59" fill-opacity="0" stroke-opacity="0" style="fill:#FFFFFF;stroke:transparent;"/>
        <svg width="76" height="54" class="djs-svg-text">
          <text font-family="'Segoe UI'" font-size="10.6252px" font-style="normal" font-weight="normal" lineHeight="1.2" textDirection="0" textAlign="left" class="djs-label" style="fill:black;">
            <tspan x="6" y="14.75">T017 </tspan>
            <tspan x="6" y="27.75">Awarding </tspan>
            <tspan x="6" y="40.75">Notification</tspan>
          </text>
        </svg>
      </g>
    </g>
  </g>
  <g class="djs-group">
    <g id="gfx-138d53ef-7cb2-42ff-8c62-f4bafddba8cb" display="block" class="djs-element djs-connection" data-element-id="138d53ef-7cb2-42ff-8c62-f4bafddba8cb">
      <g class="djs-visual">
        <g>
          <defs>
            <marker refX="9.8" refY="6" orient="auto" markerWidth="12" markerHeight="12" markerUnits="strokeWidth" id="arrowSecuenceFlow138d53ef-7cb2-42ff-8c62-f4bafddba8cb">
              <path d="M0 0 L2 6 L0 12 L10 6 z" style="fill:black;"/>
            </marker>
          </defs>
          <path d="M141 186 L202 186" marker-end="url(#arrowSecuenceFlow138d53ef-7cb2-42ff-8c62-f4bafddba8cb)" stroke-width="1px" stroke-linejoin="round" shape-rendering="crispEdges" fill-opacity="0" class="" style="fill:transparent;stroke:black;"/>
        </g>
      </g>
    </g>
  </g>
  <g class="djs-group">
    <g id="gfx-afb2b4a5-9d96-43c3-be46-fc8b6b3f310e" display="block" class="djs-element djs-connection" data-element-id="afb2b4a5-9d96-43c3-be46-fc8b6b3f310e">
      <g class="djs-visual">
        <g>
          <defs>
            <marker refX="9.8" refY="6" orient="auto" markerWidth="12" markerHeight="12" markerUnits="strokeWidth" id="arrowSecuenceFlowafb2b4a5-9d96-43c3-be46-fc8b6b3f310e">
              <path d="M0 0 L2 6 L0 12 L10 6 z" style="fill:black;"/>
            </marker>
          </defs>
          <path d="M292 186 L358 186" marker-end="url(#arrowSecuenceFlowafb2b4a5-9d96-43c3-be46-fc8b6b3f310e)" stroke-width="1px" stroke-linejoin="round" shape-rendering="crispEdges" fill-opacity="0" class="" style="fill:transparent;stroke:black;"/>
        </g>
      </g>
    </g>
  </g>
  <g class="djs-group">
    <g id="gfx-8f386e49-7133-4d73-9e53-4906ee991d2f" display="block" class="djs-element djs-connection" data-element-id="8f386e49-7133-4d73-9e53-4906ee991d2f">
      <g class="djs-visual">
        <g>
          <defs>
            <marker refX="9.8" refY="6" orient="auto" markerWidth="12" markerHeight="12" markerUnits="strokeWidth" id="arrowSecuenceFlow8f386e49-7133-4d73-9e53-4906ee991d2f">
              <path d="M0 0 L2 6 L0 12 L10 6 z" style="fill:black;"/>
            </marker>
          </defs>
          <path d="M292 557 L327 557" marker-end="url(#arrowSecuenceFlow8f386e49-7133-4d73-9e53-4906ee991d2f)" stroke-width="1px" stroke-linejoin="round" shape-rendering="crispEdges" fill-opacity="0" class="" style="fill:transparent;stroke:black;"/>
        </g>
      </g>
    </g>
  </g>
  <g class="djs-group">
    <g id="gfx-11827502-5810-4900-8929-f1c655bb759c" display="block" class="djs-element djs-connection" data-element-id="11827502-5810-4900-8929-f1c655bb759c">
      <g class="djs-visual">
        <g>
          <defs>
            <marker refX="9.8" refY="6" orient="auto" markerWidth="12" markerHeight="12" markerUnits="strokeWidth" id="arrowSecuenceFlow11827502-5810-4900-8929-f1c655bb759c">
              <path d="M0 0 L2 6 L0 12 L10 6 z" style="fill:black;"/>
            </marker>
          </defs>
          <path d="M154 557 L202 557" marker-end="url(#arrowSecuenceFlow11827502-5810-4900-8929-f1c655bb759c)" stroke-width="1px" stroke-linejoin="round" shape-rendering="crispEdges" fill-opacity="0" class="" style="fill:transparent;stroke:black;"/>
        </g>
      </g>
    </g>
  </g>
  
</svg>