<?xml version="1.0" encoding="utf-8"?>
<!DOCTYPE svg PUBLIC "-//W3C//DTD SVG 1.1//EN" "http://www.w3.org/Graphics/SVG/1.1/DTD/svg11.dtd">
<svg width="1003" height="792px" viewBox="64, 64, 1003, 792" xmlns="http://www.w3.org/2000/svg" xmlns:xlink="http://www.w3.org/1999/xlink" xmlns:xml="http://www.w3.org/XML/1998/namespace" version="1.1">
  <defs>
    <marker refX="5" refY="5" orient="auto" markerWidth="10" markerHeight="10" id="startMessageFlow4816fe4e-18f1-47b2-8951-52bfe9385979">
      <circle cx="5" cy="5" r="4" stroke-width="1px" style="fill:white;stroke:black;" />
    </marker>
    <marker refX="15" refY="6.5" orient="auto" markerWidth="16" markerHeight="14" id="endMessageFlow4816fe4e-18f1-47b2-8951-52bfe9385979">
      <path d="M0 1 L0 13 L15 6.5 z" stroke-width="1px" style="fill:white;stroke:black;" />
    </marker>
  </defs>
  <g class="djs-group">
    <g transform="matrix(1, 0, 0, 1, 80, 80)" id="gfx-d6d64e8c-6a9b-40bd-912e-25b889e48560" display="block" class="djs-element djs-shape" data-element-id="d6d64e8c-6a9b-40bd-912e-25b889e48560">
      <g class="djs-visual">
        <g>
          <rect x="0" y="0" width="971" height="260" opacity="0" fill-opacity="0" style="fill:transparent;" />
          <path d="M971 0 L0 0 L0 260 L971 260 z M50 0 L50 260" stroke-width="1px" shape-rendering="crispEdges" fill-opacity="0" class="" style="fill:transparent;stroke:black;" />
        </g>
      </g>
      <svg width="50" height="260" class="djs-svg-text">
        <text transform="matrix(-1.83697E-16, -1, 1, -1.83697E-16, 0, 260)" font-family="'Segoe UI'" font-size="13.2815px" font-style="normal" font-weight="bold" lineHeight="1.2" textDirection="270" textAlign="center" class="djs-label" style="fill:black;">
          <tspan x="77.71657" y="28.75">"Pool" Customer</tspan>
        </text>
      </svg>
    </g>
  </g>
  <g class="djs-group">
    <g transform="matrix(1, 0, 0, 1, 80, 460)" id="gfx-91fae612-5315-44e8-a4ba-ba6b13c48660" display="block" class="djs-element djs-shape" data-element-id="91fae612-5315-44e8-a4ba-ba6b13c48660">
      <g class="djs-visual">
        <g>
          <rect x="0" y="0" width="971" height="250" opacity="0" fill-opacity="0" style="fill:transparent;" />
          <path d="M971 0 L0 0 L0 250 L971 250 z M50 0 L50 250" stroke-width="1px" shape-rendering="crispEdges" fill-opacity="0" class="" style="fill:transparent;stroke:black;" />
        </g>
      </g>
      <svg width="50" height="250" class="djs-svg-text">
        <text transform="matrix(-1.83697E-16, -1, 1, -1.83697E-16, 0, 250)" font-family="'Segoe UI'" font-size="13.2815px" font-style="normal" font-weight="bold" lineHeight="1.2" textDirection="270" textAlign="center" class="djs-label" style="fill:black;">
          <tspan x="76.74983" y="28.75">"Pool" Supplier</tspan>
        </text>
      </svg>
    </g>
  </g>
  <g class="djs-group">
    <g transform="matrix(1, 0, 0, 1, 130, 80)" id="gfx-051e162d-2a01-461e-b793-b7f8c4c9bc27" display="block" class="djs-element djs-shape" data-element-id="051e162d-2a01-461e-b793-b7f8c4c9bc27">
      <g class="djs-visual">
        <path d="M921 0 L0 0 L0 260 L921 260 z" shape-rendering="crispEdges" fill-opacity="0" class="" style="fill:transparent;stroke:#505050;" />
        <rect x="0" y="0" width="921" height="260" opacity="0" fill-opacity="0" style="fill:transparent;" />
      </g>
      <svg width="30" height="260" class="djs-svg-text">
        <text transform="matrix(-1.83697E-16, -1, 1, -1.83697E-16, 0, 260)" font-family="'Segoe UI'" font-size="10.6252px" font-style="normal" font-weight="bold" lineHeight="1.2" textDirection="270" textAlign="center" class="djs-label" style="fill:black;">
          <tspan x="13.0402" y="18.25">"Lane" Contracting Body - Invitation To Tender</tspan>
        </text>
      </svg>
    </g>
  </g>
  <g class="djs-group">
    <g transform="matrix(1, 0, 0, 1, 130, 460)" id="gfx-cbe9a0bd-844e-4256-b6a0-bf3b845d3bdd" display="block" class="djs-element djs-shape" data-element-id="cbe9a0bd-844e-4256-b6a0-bf3b845d3bdd">
      <g class="djs-visual">
        <path d="M921 0 L0 0 L0 250 L921 250 z" shape-rendering="crispEdges" fill-opacity="0" class="" style="fill:transparent;stroke:#505050;" />
        <rect x="0" y="0" width="921" height="250" opacity="0" fill-opacity="0" style="fill:transparent;" />
      </g>
      <svg width="30" height="250" class="djs-svg-text">
        <text transform="matrix(-1.83697E-16, -1, 1, -1.83697E-16, 0, 250)" font-family="'Segoe UI'" font-size="10.6252px" font-style="normal" font-weight="bold" lineHeight="1.2" textDirection="270" textAlign="center" class="djs-label" style="fill:black;">
          <tspan x="3.699913" y="18.25">"Lane" Economic Operator - Invitation To Tender</tspan>
        </text>
      </svg>
    </g>
  </g>
  <g class="djs-group">
    <g transform="matrix(1, 0, 0, 1, 393, 145)" id="gfx-ac7c0831-fc97-4b8d-9f53-f83c3d9a733b" display="block" class="djs-element djs-shape" data-element-id="ac7c0831-fc97-4b8d-9f53-f83c3d9a733b">
      <g class="djs-visual">
        <g>
          <rect x="0" y="0" width="90" height="60" rx="8" stroke-width="2px" class="" style="fill:#ECEFFF;stroke:#03689A;" />
          <g transform="translate(-6, -11) scale(1.6)">
            <rect x="8" y="10.5" width="10" height="7" style="fill:white;" />
            <polygon points="17,11.5 17,11.8 12.9,14.3 9,11.7 9,11.5 17,11.5" style="fill:#03689A;" />
            <polygon points="12.9,15.5 17,13 17,16.5 9,16.5 9,12.9 12.9,15.5" style="fill:#03689A;" />
          </g>
          <g />
        </g>
      </g>
      <svg width="90" height="56" class="djs-svg-text">
        <text font-family="'Segoe UI'" font-size="10.6252px" font-style="normal" font-weight="normal" lineHeight="1.2" textDirection="0" textAlign="center" class="djs-label" style="fill:black;">
          <tspan x="8.410843" y="26.75">Send Invitation </tspan>
          <tspan x="22.83959" y="39.75">to Tender</tspan>
        </text>
      </svg>
    </g>
  </g>
  <g class="djs-group">
    <g transform="matrix(1, 0, 0, 1, 724, 145)" id="gfx-49399fb9-3285-42f2-83a7-8702077dfd8a" display="block" class="djs-element djs-shape" data-element-id="49399fb9-3285-42f2-83a7-8702077dfd8a">
      <g class="djs-visual">
        <g>
          <rect x="0" y="0" width="90" height="60" rx="8" stroke-width="2px" class="" style="fill:#ECEFFF;stroke:#03689A;" />
          <g transform="translate(-6, -11) scale(1.6)">
            <rect x="8" y="10.5" width="10" height="7" style="fill:white;" />
            <path d="M8 10.5 L8 17.5 L18 17.5 L18 10.5 z M17 11.5 L17 11.8 L12.9 14.3 L9 11.7 L9 11.5 z M9 16.5 L9 12.9 L12.9 15.5 L17 13 L17 16.5 z" style="fill:#03689A;" />
          </g>
          <g />
        </g>
      </g>
      <svg width="90" height="56" class="djs-svg-text">
        <text font-family="'Segoe UI'" font-size="10.6252px" font-style="normal" font-weight="normal" lineHeight="1.2" textDirection="0" textAlign="center" class="djs-label" style="fill:black;">
          <tspan x="25.91203" y="13.75">Receive </tspan>
          <tspan x="15.35687" y="26.75">invitation to </tspan>
          <tspan x="12.9482" y="39.75">tender status </tspan>
          <tspan x="28.87556" y="52.75">inquiry</tspan>
        </text>
      </svg>
    </g>
  </g>
  <g class="djs-group">
    <g transform="matrix(1, 0, 0, 1, 391, 539)" id="gfx-f36696ea-8964-41a6-84b8-65a35a6812f0" display="block" class="djs-element djs-shape" data-element-id="f36696ea-8964-41a6-84b8-65a35a6812f0">
      <g class="djs-visual">
        <g>
          <rect x="0" y="0" width="98" height="101" rx="8" stroke-width="2px" class="" style="fill:#ECEFFF;stroke:#03689A;" />
          <g transform="translate(-6, -11) scale(1.6)">
            <rect x="8" y="10.5" width="10" height="7" style="fill:white;" />
            <path d="M8 10.5 L8 17.5 L18 17.5 L18 10.5 z M17 11.5 L17 11.8 L12.9 14.3 L9 11.7 L9 11.5 z M9 16.5 L9 12.9 L12.9 15.5 L17 13 L17 16.5 z" style="fill:#03689A;" />
          </g>
          <g />
        </g>
      </g>
      <svg width="98" height="97" class="djs-svg-text">
        <text font-family="'Segoe UI'" font-size="10.6252px" font-style="normal" font-weight="normal" lineHeight="1.2" textDirection="0" textAlign="center" class="djs-label" style="fill:black;">
          <tspan x="8.088692" y="27.75">Receive invitation</tspan>
          <tspan x="25.84916" y="40.75">to tender </tspan>
          <tspan x="7.780151" y="53.75">including current </tspan>
          <tspan x="6.110405" y="66.75">tender documents</tspan>
          <tspan x="26.72033" y="79.75">(versions)</tspan>
        </text>
      </svg>
    </g>
  </g>
  <g class="djs-group">
    <g transform="matrix(1, 0, 0, 1, 725, 496)" id="gfx-576008e5-986a-473f-a66b-82083ca32f42" display="block" class="djs-element djs-shape" data-element-id="576008e5-986a-473f-a66b-82083ca32f42">
      <g class="djs-visual">
        <g>
          <rect x="0" y="0" width="90" height="74" rx="8" stroke-width="2px" class="" style="fill:#ECEFFF;stroke:#03689A;" />
          <g transform="translate(-6, -11) scale(1.6)">
            <rect x="8" y="10.5" width="10" height="7" style="fill:white;" />
            <polygon points="17,11.5 17,11.8 12.9,14.3 9,11.7 9,11.5 17,11.5" style="fill:#03689A;" />
            <polygon points="12.9,15.5 17,13 17,16.5 9,16.5 9,12.9 12.9,15.5" style="fill:#03689A;" />
          </g>
          <g />
        </g>
      </g>
      <svg width="90" height="70" class="djs-svg-text">
        <text font-family="'Segoe UI'" font-size="10.6252px" font-style="normal" font-weight="normal" lineHeight="1.2" textDirection="0" textAlign="center" class="djs-label" style="fill:black;">
          <tspan x="8.410843" y="27.25">Send Invitation </tspan>
          <tspan x="6.582947" y="40.25">to tender status </tspan>
          <tspan x="28.87556" y="53.25">inquiry</tspan>
        </text>
      </svg>
    </g>
  </g>
  <g class="djs-group">
    <g transform="matrix(1, 0, 0, 1, 230, 160)" id="gfx-b47e7b54-befe-42ab-9f9b-015ac7e9666b" display="block" class="djs-element djs-shape" data-element-id="b47e7b54-befe-42ab-9f9b-015ac7e9666b">
      <g class="djs-visual">
        <g>
          <g transform="translate(-8.90625, -8.90625) scale(1.5)">
            <path d="M16 25.2 C10.9 25.2 6.8 21.1 6.8 16 C6.8 10.9 10.9 6.8 16 6.8 C21.1 6.8 25.2 10.9 25.2 16 C25.2 21.1 21.1 25.2 16 25.2 L16 25.2 z" style="fill:#E6FF97;" />
            <path d="M15.9 7 C20.9 7 24.9 11 24.9 16 C24.9 21 20.9 25 15.9 25 C10.9 25 6.9 21 6.9 16 C6.9 11 10.9 7 15.9 7 M15.9 6 C10.4 6 5.9 10.5 5.9 16 C5.9 21.5 10.4 26 15.9 26 C21.4 26 25.9 21.5 25.9 16 C25.9 10.5 21.4 6 15.9 6 z" stroke-width="0.2px" class="" style="fill:#62A716;stroke:#62A716;" />
          </g>
        </g>
      </g>
    </g>
  </g>
  <g class="djs-group">
    <g transform="matrix(1, 0, 0, 1, 181, 198)" id="gfx-9a490c96-acc4-442b-872f-1d1bee90513d" display="block" class="djs-element djs-shape" data-element-id="9a490c96-acc4-442b-872f-1d1bee90513d">
      <g class="djs-visual">
        <rect x="0" y="0" width="128" height="53" fill-opacity="0" stroke-opacity="0" style="fill:#FFFFFF;stroke:transparent;" />
        <svg width="128" height="48" class="djs-svg-text">
          <text font-family="'Segoe UI'" font-size="10.6252px" font-style="normal" font-weight="normal" lineHeight="1.2" textDirection="0" textAlign="center" class="djs-label" style="fill:black;">
            <tspan x="7.988411" y="14.75">Qualifications evaluated</tspan>
          </text>
        </svg>
      </g>
    </g>
  </g>
  <g class="djs-group">
    <g transform="matrix(1, 0, 0, 1, 225, 595)" id="gfx-86d2f783-6142-4295-9ca6-86f868cf6b3d" display="block" class="djs-element djs-shape" data-element-id="86d2f783-6142-4295-9ca6-86f868cf6b3d">
      <g class="djs-visual">
        <g>
          <g transform="translate(-8.90625, -8.90625) scale(1.5)">
            <path d="M16 25.2 C10.9 25.2 6.8 21.1 6.8 16 C6.8 10.9 10.9 6.8 16 6.8 C21.1 6.8 25.2 10.9 25.2 16 C25.2 21.1 21.1 25.2 16 25.2 L16 25.2 z" style="fill:#E6FF97;" />
            <path d="M15.9 7 C20.9 7 24.9 11 24.9 16 C24.9 21 20.9 25 15.9 25 C10.9 25 6.9 21 6.9 16 C6.9 11 10.9 7 15.9 7 M15.9 6 C10.4 6 5.9 10.5 5.9 16 C5.9 21.5 10.4 26 15.9 26 C21.4 26 25.9 21.5 25.9 16 C25.9 10.5 21.4 6 15.9 6 z" stroke-width="0.2px" class="" style="fill:#62A716;stroke:#62A716;" />
          </g>
        </g>
      </g>
    </g>
  </g>
  <g class="djs-group">
    <g transform="matrix(1, 0, 0, 1, 175, 633)" id="gfx-12d84306-b9c7-4788-99ba-8dcf1b4741f7" display="block" class="djs-element djs-shape" data-element-id="12d84306-b9c7-4788-99ba-8dcf1b4741f7">
      <g class="djs-visual">
        <rect x="0" y="0" width="130" height="53" fill-opacity="0" stroke-opacity="0" style="fill:#FFFFFF;stroke:transparent;" />
        <svg width="130" height="48" class="djs-svg-text">
          <text font-family="'Segoe UI'" font-size="10.6252px" font-style="normal" font-weight="normal" lineHeight="1.2" textDirection="0" textAlign="center" class="djs-label" style="fill:black;">
            <tspan x="10.21739" y="14.75">Qualification submitted</tspan>
          </text>
        </svg>
      </g>
    </g>
  </g>
  <g class="djs-group">
    <g transform="matrix(1, 0, 0, 1, 547, 265)" id="gfx-759161ce-f9dd-4d4a-a475-a755f13caca0" display="block" class="djs-element djs-shape" data-element-id="759161ce-f9dd-4d4a-a475-a755f13caca0">
      <g class="djs-visual">
        <g>
          <g transform="translate(-8.90625, -8.90625) scale(1.5)">
            <path d="M16 25.2 A9.2 9.2 0 1 1 25.2 16 A9.2 9.2 0 0 1 16 25.2 z" style="fill:#EEAAAA;" />
            <path d="M16 7.5 A8.5 8.5 0 1 1 7.5 16 A8.5 8.5 0 0 1 16 7.5 M16 6 A10 10 0 1 0 26 16 A10 10 0 0 0 16 6 z" stroke-width="0.4px" class="" style="fill:#990000;stroke:#990000;" />
          </g>
        </g>
      </g>
    </g>
  </g>
  <g class="djs-group">
    <g transform="matrix(1, 0, 0, 1, 511, 295)" id="gfx-232cc823-c7ac-4b97-b6cd-130a4d5c774a" display="block" class="djs-element djs-shape" data-element-id="232cc823-c7ac-4b97-b6cd-130a4d5c774a">
      <g class="djs-visual">
        <rect x="0" y="0" width="90" height="30" fill-opacity="0" stroke-opacity="0" style="fill:#FFFFFF;stroke:transparent;" />
        <svg width="90" height="25" class="djs-svg-text">
          <text font-family="'Segoe UI'" font-size="10.6252px" font-style="normal" font-weight="normal" lineHeight="1.2" textDirection="0" textAlign="center" class="djs-label" style="fill:black;">
            <tspan x="7.303719" y="14.75">Tenderer invited</tspan>
          </text>
        </svg>
      </g>
    </g>
  </g>
  <g class="djs-group">
    <g transform="matrix(1, 0, 0, 1, 929, 595)" id="gfx-7eef85e1-7379-4793-83d6-9415249305c0" display="block" class="djs-element djs-shape" data-element-id="7eef85e1-7379-4793-83d6-9415249305c0">
      <g class="djs-visual">
        <g>
          <g transform="translate(-8.90625, -8.90625) scale(1.5)">
            <path d="M16 25.2 A9.2 9.2 0 1 1 25.2 16 A9.2 9.2 0 0 1 16 25.2 z" style="fill:#EEAAAA;" />
            <path d="M16 7.5 A8.5 8.5 0 1 1 7.5 16 A8.5 8.5 0 0 1 16 7.5 M16 6 A10 10 0 1 0 26 16 A10 10 0 0 0 16 6 z" stroke-width="0.4px" class="" style="fill:#990000;stroke:#990000;" />
          </g>
        </g>
      </g>
    </g>
  </g>
  <g class="djs-group">
    <g transform="matrix(1, 0, 0, 1, 893, 633)" id="gfx-d230b43a-c64e-438a-b296-29ae89df8201" display="block" class="djs-element djs-shape" data-element-id="d230b43a-c64e-438a-b296-29ae89df8201">
      <g class="djs-visual">
        <rect x="0" y="0" width="102" height="53" fill-opacity="0" stroke-opacity="0" style="fill:#FFFFFF;stroke:transparent;" />
        <svg width="102" height="48" class="djs-svg-text">
          <text font-family="'Segoe UI'" font-size="10.6252px" font-style="normal" font-weight="normal" lineHeight="1.2" textDirection="0" textAlign="center" class="djs-label" style="fill:black;">
            <tspan x="14.21897" y="14.75">Tender finalized</tspan>
          </text>
        </svg>
      </g>
    </g>
  </g>
  <g class="djs-group">
    <g transform="matrix(1, 0, 0, 1, 306, 155)" id="gfx-b7a0a475-3074-4908-9522-710b95e99950" display="block" class="djs-element djs-shape" data-element-id="b7a0a475-3074-4908-9522-710b95e99950">
      <g class="djs-visual">
        <g>
          <path d="M0 20 L20 40 L40 20 L20 0 z" stroke-width="1.8px" class="" style="fill:#FFFFCC;stroke:#A6A61D;" />
        </g>
      </g>
    </g>
  </g>
  <g class="djs-group">
    <g transform="matrix(1, 0, 0, 1, 542, 155)" id="gfx-16c7a5b4-ca0f-4dff-bfeb-6985a6a0751b" display="block" class="djs-element djs-shape" data-element-id="16c7a5b4-ca0f-4dff-bfeb-6985a6a0751b">
      <g class="djs-visual">
        <g>
          <path d="M0 20 L20 40 L40 20 L20 0 z" stroke-width="1.8px" class="" style="fill:#FFFFCC;stroke:#A6A61D;" />
        </g>
      </g>
    </g>
  </g>
  <g class="djs-group">
    <g transform="matrix(1, 0, 0, 1, 642, 590)" id="gfx-8112b216-6491-4e93-813a-b8b2b3703282" display="block" class="djs-element djs-shape" data-element-id="8112b216-6491-4e93-813a-b8b2b3703282">
      <g class="djs-visual">
        <g>
          <path d="M0 20 L20 40 L40 20 L20 0 z" stroke-width="1.8px" class="" style="fill:#FFFFCC;stroke:#A6A61D;" />
        </g>
      </g>
    </g>
  </g>
  <g class="djs-group">
    <g transform="matrix(1, 0, 0, 1, 849, 590)" id="gfx-c4988ebf-0a3a-4590-9c6e-fabf54eb2af4" display="block" class="djs-element djs-shape" data-element-id="c4988ebf-0a3a-4590-9c6e-fabf54eb2af4">
      <g class="djs-visual">
        <g>
          <path d="M0 20 L20 40 L40 20 L20 0 z" stroke-width="1.8px" class="" style="fill:#FFFFCC;stroke:#A6A61D;" />
        </g>
      </g>
    </g>
  </g>
  <g class="djs-group">
    <g transform="matrix(1, 0, 0, 1, 802, 355)" id="gfx-f4e475d4-503b-4d4f-ac25-1ceda84aee0c" display="block" class="djs-element djs-shape" data-element-id="f4e475d4-503b-4d4f-ac25-1ceda84aee0c">
      <g class="djs-visual">
        <g>
          <path d="M30 0 L0 0 L0 50 L40 50 L40 10 L30 10 z" shape-rendering="crispEdges" class="" style="fill:#F0F0F0;stroke:#666666;" />
          <path d="M30 0 L30 10 L40 10 z" shape-rendering="crispEdges" fill-opacity="0" style="fill:transparent;stroke:#666666;" />
        </g>
      </g>
    </g>
  </g>
  <g class="djs-group">
    <g transform="matrix(1, 0, 0, 1, 774, 413)" id="gfx-6a43359e-fc7a-4ff8-8fad-967d06ae5ea3" display="block" class="djs-element djs-shape" data-element-id="6a43359e-fc7a-4ff8-8fad-967d06ae5ea3">
      <g class="djs-visual">
        <rect x="0" y="0" width="98" height="66" fill-opacity="0" stroke-opacity="0" style="fill:#FFFFFF;stroke:transparent;" />
        <svg width="98" height="61" class="djs-svg-text">
          <text font-family="'Segoe UI'" font-size="10.6252px" font-style="normal" font-weight="normal" lineHeight="1.2" textDirection="0" textAlign="center" class="djs-label" style="fill:black;">
            <tspan x="18.92645" y="14.75">T003 Tender </tspan>
            <tspan x="17.60935" y="27.75">status inquiry</tspan>
          </text>
        </svg>
      </g>
    </g>
  </g>
  <g class="djs-group">
    <g transform="matrix(1, 0, 0, 1, 480, 369)" id="gfx-2e2b6e5f-2f86-4805-9ae4-a6eaa848e895" display="block" class="djs-element djs-shape" data-element-id="2e2b6e5f-2f86-4805-9ae4-a6eaa848e895">
      <g class="djs-visual">
        <g>
          <path d="M30 0 L0 0 L0 50 L40 50 L40 10 L30 10 z" shape-rendering="crispEdges" class="" style="fill:#F0F0F0;stroke:#666666;" />
          <path d="M30 0 L30 10 L40 10 z" shape-rendering="crispEdges" fill-opacity="0" style="fill:transparent;stroke:#666666;" />
        </g>
      </g>
    </g>
  </g>
  <g class="djs-group">
    <g transform="matrix(1, 0, 0, 1, 451, 427)" id="gfx-1c7910f0-78fe-4ff2-b3d3-e1bef20f1363" display="block" class="djs-element djs-shape" data-element-id="1c7910f0-78fe-4ff2-b3d3-e1bef20f1363">
      <g class="djs-visual">
        <rect x="0" y="0" width="98" height="66" fill-opacity="0" stroke-opacity="0" style="fill:#FFFFFF;stroke:transparent;" />
        <svg width="98" height="61" class="djs-svg-text">
          <text font-family="'Segoe UI'" font-size="10.6252px" font-style="normal" font-weight="normal" lineHeight="1.2" textDirection="0" textAlign="center" class="djs-label" style="fill:black;">
            <tspan x="7.860527" y="14.75">T024 Invitation to</tspan>
            <tspan x="33.20484" y="27.75">Tender</tspan>
          </text>
        </svg>
      </g>
    </g>
  </g>
  <g class="djs-group">
    <g transform="matrix(1, 0, 0, 1, 643, 160)" id="gfx-a9d4c975-9bb1-448c-b93d-064b016402cc" display="block" class="djs-element djs-shape" data-element-id="a9d4c975-9bb1-448c-b93d-064b016402cc">
      <g class="djs-visual">
        <g>
          <g transform="translate(-8.90625, -8.90625) scale(1.5)">
            <path d="M15.9 25.5 A9.5 9.5 0 1 1 25.4 16 A9.6 9.6 0 0 1 15.9 25.5 z" style="fill:#FEFAEF;" />
            <path d="M15.9 7 A9 9 0 1 1 6.9 16 A9 9 0 0 1 15.9 7 M15.9 6 A10 10 0 1 0 25.9 16 A10 10 0 0 0 15.9 6 z" class="" style="fill:#969149;" />
            <path d="M15.9 8.8 A7.2 7.2 0 1 1 8.7 16 A7.3 7.3 0 0 1 15.9 8.8 M15.9 7.8 A8.2 8.2 0 0 0 15.9 24.2 A8.2 8.2 0 1 0 15.9 7.800001 z" class="" style="fill:#969149;" />
          </g>
        </g>
      </g>
    </g>
  </g>
  <g class="djs-group">
    <g transform="matrix(1, 0, 0, 1, 611, 198)" id="gfx-3287ba05-123b-410d-880c-2e3cf3fadd86" display="block" class="djs-element djs-shape" data-element-id="3287ba05-123b-410d-880c-2e3cf3fadd86">
      <g class="djs-visual">
        <rect x="0" y="0" width="93" height="92" fill-opacity="0" stroke-opacity="0" style="fill:#FFFFFF;stroke:transparent;" />
        <svg width="93" height="87" class="djs-svg-text">
          <text font-family="'Segoe UI'" font-size="10.6252px" font-style="normal" font-weight="normal" lineHeight="1.2" textDirection="0" textAlign="center" class="djs-label" style="fill:black;">
            <tspan x="24.62739" y="14.75">Tenderer </tspan>
            <tspan x="11.33946" y="27.75">invited, current</tspan>
            <tspan x="29.71441" y="40.75">tender </tspan>
            <tspan x="9.107086" y="53.75">documents sent</tspan>
          </text>
        </svg>
      </g>
    </g>
  </g>
  <g class="djs-group">
    <g transform="matrix(1, 0, 0, 1, 551, 595)" id="gfx-15ba26dd-4419-47e6-9116-ce8f01c57f51" display="block" class="djs-element djs-shape" data-element-id="15ba26dd-4419-47e6-9116-ce8f01c57f51">
      <g class="djs-visual">
        <g>
          <g transform="translate(-8.90625, -8.90625) scale(1.5)">
            <path d="M15.9 25.5 A9.5 9.5 0 1 1 25.4 16 A9.6 9.6 0 0 1 15.9 25.5 z" style="fill:#FEFAEF;" />
            <path d="M15.9 7 A9 9 0 1 1 6.9 16 A9 9 0 0 1 15.9 7 M15.9 6 A10 10 0 1 0 25.9 16 A10 10 0 0 0 15.9 6 z" class="" style="fill:#969149;" />
            <path d="M15.9 8.8 A7.2 7.2 0 1 1 8.7 16 A7.3 7.3 0 0 1 15.9 8.8 M15.9 7.8 A8.2 8.2 0 0 0 15.9 24.2 A8.2 8.2 0 1 0 15.9 7.800001 z" class="" style="fill:#969149;" />
          </g>
        </g>
      </g>
    </g>
  </g>
  <g class="djs-group">
    <g transform="matrix(1, 0, 0, 1, 515, 633)" id="gfx-2228c234-fc73-43c2-a912-167f5576e07e" display="block" class="djs-element djs-shape" data-element-id="2228c234-fc73-43c2-a912-167f5576e07e">
      <g class="djs-visual">
        <rect x="0" y="0" width="102" height="64" fill-opacity="0" stroke-opacity="0" style="fill:#FFFFFF;stroke:transparent;" />
        <svg width="102" height="59" class="djs-svg-text">
          <text font-family="'Segoe UI'" font-size="10.6252px" font-style="normal" font-weight="normal" lineHeight="1.2" textDirection="0" textAlign="center" class="djs-label" style="fill:black;">
            <tspan x="10.28315" y="14.75">Invited to Tender,</tspan>
            <tspan x="16.02872" y="27.75">current tender </tspan>
            <tspan x="7.418129" y="40.75">document version </tspan>
            <tspan x="31.41422" y="53.75">received</tspan>
          </text>
        </svg>
      </g>
    </g>
  </g>
  <g class="djs-group">
    <g id="gfx-4816fe4e-18f1-47b2-8951-52bfe9385979" display="block" class="djs-element djs-connection" data-element-id="4816fe4e-18f1-47b2-8951-52bfe9385979">
      <g class="djs-visual">
        <g>
          <defs>
            <marker refX="5" refY="5" orient="auto" markerWidth="10" markerHeight="10" id="startMessageFlow4816fe4e-18f1-47b2-8951-52bfe9385979#1">
              <circle cx="5" cy="5" r="4" stroke-width="1px" style="fill:white;stroke:black;" />
            </marker>
            <marker refX="15" refY="6.5" orient="auto" markerWidth="16" markerHeight="14" id="endMessageFlow4816fe4e-18f1-47b2-8951-52bfe9385979#1">
              <path d="M0 1 L0 13 L15 6.5 z" stroke-width="1px" style="fill:white;stroke:black;" />
            </marker>
          </defs>
          <path d="M440 205 L440 539" marker-end="url(#endMessageFlow4816fe4e-18f1-47b2-8951-52bfe9385979)" marker-start="url(#startMessageFlow4816fe4e-18f1-47b2-8951-52bfe9385979)" stroke-width="1px" stroke-linecap="round" stroke-linejoin="round" stroke-dasharray="6 4" shape-rendering="crispEdges" fill-opacity="0" class="" style="fill:transparent;stroke:black;" />
        </g>
      </g>
    </g>
  </g>
  <g class="djs-group">
    <g id="gfx-e4b9ad67-741a-4567-b930-93a0f8f41de2" display="block" class="djs-element djs-connection" data-element-id="e4b9ad67-741a-4567-b930-93a0f8f41de2">
      <g class="djs-visual">
        <g>
          <defs>
            <marker refX="5" refY="5" orient="auto" markerWidth="10" markerHeight="10" id="startMessageFlowe4b9ad67-741a-4567-b930-93a0f8f41de2">
              <circle cx="5" cy="5" r="4" stroke-width="1px" style="fill:white;stroke:black;" />
            </marker>
            <marker refX="15" refY="6.5" orient="auto" markerWidth="16" markerHeight="14" id="endMessageFlowe4b9ad67-741a-4567-b930-93a0f8f41de2">
              <path d="M0 1 L0 13 L15 6.5 z" stroke-width="1px" style="fill:white;stroke:black;" />
            </marker>
          </defs>
          <path d="M770 496 L770 371 L769 371 L769 205" marker-end="url(#endMessageFlowe4b9ad67-741a-4567-b930-93a0f8f41de2)" marker-start="url(#startMessageFlowe4b9ad67-741a-4567-b930-93a0f8f41de2)" stroke-width="1px" stroke-linecap="round" stroke-linejoin="round" stroke-dasharray="6 4" shape-rendering="crispEdges" fill-opacity="0" class="" style="fill:transparent;stroke:black;" />
        </g>
      </g>
    </g>
  </g>
  <g class="djs-group">
    <g id="gfx-956465ff-881e-4760-90a9-85627f56156b" display="block" class="djs-element djs-connection" data-element-id="956465ff-881e-4760-90a9-85627f56156b">
      <g class="djs-visual">
        <g>
          <defs>
            <marker refX="9.8" refY="6" orient="auto" markerWidth="12" markerHeight="12" markerUnits="strokeWidth" id="arrowSecuenceFlow956465ff-881e-4760-90a9-85627f56156b">
              <path d="M0 0 L2 6 L0 12 L10 6 z" style="fill:black;" />
            </marker>
          </defs>
          <path d="M260 175 L306 175" marker-end="url(#arrowSecuenceFlow956465ff-881e-4760-90a9-85627f56156b)" stroke-width="1px" stroke-linejoin="round" shape-rendering="crispEdges" fill-opacity="0" class="" style="fill:transparent;stroke:black;" />
        </g>
      </g>
    </g>
  </g>
  <g class="djs-group">
    <g id="gfx-f1388fea-29a7-421b-a908-ea308e7245ea" display="block" class="djs-element djs-connection" data-element-id="f1388fea-29a7-421b-a908-ea308e7245ea">
      <g class="djs-visual">
        <g>
          <defs>
            <marker refX="9.8" refY="6" orient="auto" markerWidth="12" markerHeight="12" markerUnits="strokeWidth" id="arrowSecuenceFlowf1388fea-29a7-421b-a908-ea308e7245ea">
              <path d="M0 0 L2 6 L0 12 L10 6 z" style="fill:black;" />
            </marker>
          </defs>
          <path d="M346 175 L393 175" marker-end="url(#arrowSecuenceFlowf1388fea-29a7-421b-a908-ea308e7245ea)" stroke-width="1px" stroke-linejoin="round" shape-rendering="crispEdges" fill-opacity="0" class="" style="fill:transparent;stroke:black;" />
        </g>
      </g>
    </g>
  </g>
  <g class="djs-group">
    <g id="gfx-cb842b06-feff-4a2c-af5b-2190ee310c3a" display="block" class="djs-element djs-connection" data-element-id="cb842b06-feff-4a2c-af5b-2190ee310c3a">
      <g class="djs-visual">
        <g>
          <defs>
            <marker refX="9.8" refY="6" orient="auto" markerWidth="12" markerHeight="12" markerUnits="strokeWidth" id="arrowSecuenceFlowcb842b06-feff-4a2c-af5b-2190ee310c3a">
              <path d="M0 0 L2 6 L0 12 L10 6 z" style="fill:black;" />
            </marker>
          </defs>
          <path d="M483 175 L542 175" marker-end="url(#arrowSecuenceFlowcb842b06-feff-4a2c-af5b-2190ee310c3a)" stroke-width="1px" stroke-linejoin="round" shape-rendering="crispEdges" fill-opacity="0" class="" style="fill:transparent;stroke:black;" />
        </g>
      </g>
    </g>
  </g>
  <g class="djs-group">
    <g id="gfx-215dcfd8-5b68-42d3-9d77-5dd40092999d" display="block" class="djs-element djs-connection" data-element-id="215dcfd8-5b68-42d3-9d77-5dd40092999d">
      <g class="djs-visual">
        <g>
          <defs>
            <marker refX="9.8" refY="6" orient="auto" markerWidth="12" markerHeight="12" markerUnits="strokeWidth" id="arrowSecuenceFlow215dcfd8-5b68-42d3-9d77-5dd40092999d">
              <path d="M0 0 L2 6 L0 12 L10 6 z" style="fill:black;" />
            </marker>
          </defs>
          <path d="M582 175 L643 175" marker-end="url(#arrowSecuenceFlow215dcfd8-5b68-42d3-9d77-5dd40092999d)" stroke-width="1px" stroke-linejoin="round" shape-rendering="crispEdges" fill-opacity="0" class="" style="fill:transparent;stroke:black;" />
        </g>
      </g>
    </g>
  </g>
  <g class="djs-group">
    <g id="gfx-915367c3-ed54-4f4d-a8a3-9cfe13c6ff74" display="block" class="djs-element djs-connection" data-element-id="915367c3-ed54-4f4d-a8a3-9cfe13c6ff74">
      <g class="djs-visual">
        <g>
          <defs>
            <marker refX="9.8" refY="6" orient="auto" markerWidth="12" markerHeight="12" markerUnits="strokeWidth" id="arrowSecuenceFlow915367c3-ed54-4f4d-a8a3-9cfe13c6ff74">
              <path d="M0 0 L2 6 L0 12 L10 6 z" style="fill:black;" />
            </marker>
          </defs>
          <path d="M673 175 L724 175" marker-end="url(#arrowSecuenceFlow915367c3-ed54-4f4d-a8a3-9cfe13c6ff74)" stroke-width="1px" stroke-linejoin="round" shape-rendering="crispEdges" fill-opacity="0" class="" style="fill:transparent;stroke:black;" />
        </g>
      </g>
    </g>
  </g>
  <g class="djs-group">
    <g id="gfx-1116694b-2b1e-4177-a4ae-1fc5e876d57f" display="block" class="djs-element djs-connection" data-element-id="1116694b-2b1e-4177-a4ae-1fc5e876d57f">
      <g class="djs-visual">
        <g>
          <defs>
            <marker refX="9.8" refY="6" orient="auto" markerWidth="12" markerHeight="12" markerUnits="strokeWidth" id="arrowSecuenceFlow1116694b-2b1e-4177-a4ae-1fc5e876d57f">
              <path d="M0 0 L2 6 L0 12 L10 6 z" style="fill:black;" />
            </marker>
          </defs>
          <path d="M562 195 L562 265" marker-end="url(#arrowSecuenceFlow1116694b-2b1e-4177-a4ae-1fc5e876d57f)" stroke-width="1px" stroke-linejoin="round" shape-rendering="crispEdges" fill-opacity="0" class="" style="fill:transparent;stroke:black;" />
        </g>
      </g>
    </g>
  </g>
  <g class="djs-group">
    <g id="gfx-0d146bf8-fc53-4628-99d7-5755310e5aaa" display="block" class="djs-element djs-connection" data-element-id="0d146bf8-fc53-4628-99d7-5755310e5aaa">
      <g class="djs-visual">
        <g>
          <defs>
            <marker refX="9.8" refY="6" orient="auto" markerWidth="12" markerHeight="12" markerUnits="strokeWidth" id="arrowSecuenceFlow0d146bf8-fc53-4628-99d7-5755310e5aaa">
              <path d="M0 0 L2 6 L0 12 L10 6 z" style="fill:black;" />
            </marker>
          </defs>
          <path d="M769 145 L769 112 C769 112 769 106 763 106 L332 106 C332 106 326 106 326 112 L326 155" marker-end="url(#arrowSecuenceFlow0d146bf8-fc53-4628-99d7-5755310e5aaa)" stroke-width="1px" stroke-linejoin="round" shape-rendering="crispEdges" fill-opacity="0" class="" style="fill:transparent;stroke:black;" />
        </g>
      </g>
    </g>
  </g>
  <g class="djs-group">
    <g id="gfx-6874b5ac-4b74-4acc-a004-cf5ab603ca6b" display="block" class="djs-element djs-connection" data-element-id="6874b5ac-4b74-4acc-a004-cf5ab603ca6b">
      <g class="djs-visual">
        <g>
          <defs>
            <marker refX="9.8" refY="6" orient="auto" markerWidth="12" markerHeight="12" markerUnits="strokeWidth" id="arrowSecuenceFlow6874b5ac-4b74-4acc-a004-cf5ab603ca6b">
              <path d="M0 0 L2 6 L0 12 L10 6 z" style="fill:black;" />
            </marker>
          </defs>
          <path d="M255 610 L391 610" marker-end="url(#arrowSecuenceFlow6874b5ac-4b74-4acc-a004-cf5ab603ca6b)" stroke-width="1px" stroke-linejoin="round" shape-rendering="crispEdges" fill-opacity="0" class="" style="fill:transparent;stroke:black;" />
        </g>
      </g>
    </g>
  </g>
  <g class="djs-group">
    <g id="gfx-ca7c84bf-a618-435e-a631-2450037fb0cb" display="block" class="djs-element djs-connection" data-element-id="ca7c84bf-a618-435e-a631-2450037fb0cb">
      <g class="djs-visual">
        <g>
          <defs>
            <marker refX="9.8" refY="6" orient="auto" markerWidth="12" markerHeight="12" markerUnits="strokeWidth" id="arrowSecuenceFlowca7c84bf-a618-435e-a631-2450037fb0cb">
              <path d="M0 0 L2 6 L0 12 L10 6 z" style="fill:black;" />
            </marker>
          </defs>
          <path d="M489 610 L551 610" marker-end="url(#arrowSecuenceFlowca7c84bf-a618-435e-a631-2450037fb0cb)" stroke-width="1px" stroke-linejoin="round" shape-rendering="crispEdges" fill-opacity="0" class="" style="fill:transparent;stroke:black;" />
        </g>
      </g>
    </g>
  </g>
  <g class="djs-group">
    <g id="gfx-026cd67a-e890-4465-b84f-eb3ad295389c" display="block" class="djs-element djs-connection" data-element-id="026cd67a-e890-4465-b84f-eb3ad295389c">
      <g class="djs-visual">
        <g>
          <defs>
            <marker refX="9.8" refY="6" orient="auto" markerWidth="12" markerHeight="12" markerUnits="strokeWidth" id="arrowSecuenceFlow026cd67a-e890-4465-b84f-eb3ad295389c">
              <path d="M0 0 L2 6 L0 12 L10 6 z" style="fill:black;" />
            </marker>
          </defs>
          <path d="M581 610 L642 610" marker-end="url(#arrowSecuenceFlow026cd67a-e890-4465-b84f-eb3ad295389c)" stroke-width="1px" stroke-linejoin="round" shape-rendering="crispEdges" fill-opacity="0" class="" style="fill:transparent;stroke:black;" />
        </g>
      </g>
    </g>
  </g>
  <g class="djs-group">
    <g id="gfx-653a5fba-234e-4db7-8895-01a7cf74d185" display="block" class="djs-element djs-connection" data-element-id="653a5fba-234e-4db7-8895-01a7cf74d185">
      <g class="djs-visual">
        <g>
          <defs>
            <marker refX="9.8" refY="6" orient="auto" markerWidth="12" markerHeight="12" markerUnits="strokeWidth" id="arrowSecuenceFlow653a5fba-234e-4db7-8895-01a7cf74d185">
              <path d="M0 0 L2 6 L0 12 L10 6 z" style="fill:black;" />
            </marker>
          </defs>
          <path d="M682 610 L849 610" marker-end="url(#arrowSecuenceFlow653a5fba-234e-4db7-8895-01a7cf74d185)" stroke-width="1px" stroke-linejoin="round" shape-rendering="crispEdges" fill-opacity="0" class="" style="fill:transparent;stroke:black;" />
        </g>
      </g>
    </g>
  </g>
  <g class="djs-group">
    <g transform="matrix(1, 0, 0, 1, 692, 590)" id="gfx-bd402881-8f9b-4a54-961c-90bac7f09c0d" display="block" class="djs-element djs-shape" data-element-id="bd402881-8f9b-4a54-961c-90bac7f09c0d">
      <g class="djs-visual">
        <rect x="0" y="0" width="100" height="66" fill-opacity="0" stroke-opacity="0" style="fill:#FFFFFF;stroke:transparent;" />
        <svg width="100" height="61" class="djs-svg-text">
          <text font-family="'Segoe UI'" font-size="10.6252px" font-style="normal" font-weight="normal" lineHeight="1.2" textDirection="0" textAlign="center" class="djs-label" style="fill:black;">
            <tspan x="9.583916" y="14.75">no status inquiry </tspan>
            <tspan x="27.36513" y="27.75">necessary</tspan>
          </text>
        </svg>
      </g>
    </g>
  </g>
  <g class="djs-group">
    <g id="gfx-d8f7047c-40ef-4d90-a463-68df3163b8f1" display="block" class="djs-element djs-connection" data-element-id="d8f7047c-40ef-4d90-a463-68df3163b8f1">
      <g class="djs-visual">
        <g>
          <defs>
            <marker refX="9.8" refY="6" orient="auto" markerWidth="12" markerHeight="12" markerUnits="strokeWidth" id="arrowSecuenceFlowd8f7047c-40ef-4d90-a463-68df3163b8f1">
              <path d="M0 0 L2 6 L0 12 L10 6 z" style="fill:black;" />
            </marker>
          </defs>
          <path d="M889 610 L929 610" marker-end="url(#arrowSecuenceFlowd8f7047c-40ef-4d90-a463-68df3163b8f1)" stroke-width="1px" stroke-linejoin="round" shape-rendering="crispEdges" fill-opacity="0" class="" style="fill:transparent;stroke:black;" />
        </g>
      </g>
    </g>
  </g>
  <g class="djs-group">
    <g id="gfx-e704d584-8557-4164-ae0f-a9319d888297" display="block" class="djs-element djs-connection" data-element-id="e704d584-8557-4164-ae0f-a9319d888297">
      <g class="djs-visual">
        <g>
          <defs>
            <marker refX="9.8" refY="6" orient="auto" markerWidth="12" markerHeight="12" markerUnits="strokeWidth" id="arrowSecuenceFlowe704d584-8557-4164-ae0f-a9319d888297">
              <path d="M0 0 L2 6 L0 12 L10 6 z" style="fill:black;" />
            </marker>
          </defs>
          <path d="M662 590 L662 532 C662 532 662 526 668 526 L725 526" marker-end="url(#arrowSecuenceFlowe704d584-8557-4164-ae0f-a9319d888297)" stroke-width="1px" stroke-linejoin="round" shape-rendering="crispEdges" fill-opacity="0" class="" style="fill:transparent;stroke:black;" />
        </g>
      </g>
    </g>
  </g>
  <g class="djs-group">
    <g id="gfx-5444ea95-4741-4b7b-8025-0039d2d026e8" display="block" class="djs-element djs-connection" data-element-id="5444ea95-4741-4b7b-8025-0039d2d026e8">
      <g class="djs-visual">
        <g>
          <defs>
            <marker refX="9.8" refY="6" orient="auto" markerWidth="12" markerHeight="12" markerUnits="strokeWidth" id="arrowSecuenceFlow5444ea95-4741-4b7b-8025-0039d2d026e8">
              <path d="M0 0 L2 6 L0 12 L10 6 z" style="fill:black;" />
            </marker>
          </defs>
          <path d="M815 526 L863 526 C863 526 869 526 869 532 L869 590" marker-end="url(#arrowSecuenceFlow5444ea95-4741-4b7b-8025-0039d2d026e8)" stroke-width="1px" stroke-linejoin="round" shape-rendering="crispEdges" fill-opacity="0" class="" style="fill:transparent;stroke:black;" />
        </g>
      </g>
    </g>
  </g>
</svg>