<?xml version="1.0" encoding="UTF-8"?>
<!DOCTYPE svg PUBLIC "-//W3C//DTD SVG 1.1//EN" "http://www.w3.org/Graphics/SVG/1.1/DTD/svg11.dtd">
<svg width="812" height="650px" viewBox="13, 15, 812, 650" xmlns="http://www.w3.org/2000/svg" xmlns:xlink="http://www.w3.org/1999/xlink" xmlns:xml="http://www.w3.org/XML/1998/namespace" version="1.1">
  <defs>
    <marker refX="5" refY="5" orient="auto" markerWidth="10" markerHeight="10" id="startMessageFlow8d103967-4b26-419b-b66a-f7766b59a084">
      <circle cx="5" cy="5" r="4" stroke-width="1px" style="fill:white;stroke:black;"/>
    </marker>
    <marker refX="15" refY="6.5" orient="auto" markerWidth="16" markerHeight="14" id="endMessageFlow8d103967-4b26-419b-b66a-f7766b59a084">
      <path d="M0 1 L0 13 L15 6.5 z" stroke-width="1px" style="fill:white;stroke:black;"/>
    </marker>
  </defs>
  <g class="djs-group">
    <g transform="matrix(1, 0, 0, 1, 30, 31)" id="gfx-eb5a7519-17e1-45d0-90e8-0f25720cfce2" display="block" class="djs-element djs-shape" data-element-id="eb5a7519-17e1-45d0-90e8-0f25720cfce2">
      <g class="djs-visual">
        <g>
          <rect x="0" y="0" width="779" height="240" opacity="0" fill-opacity="0" style="fill:transparent;"/>
          <path d="M779 0 L0 0 L0 240 L779 240 z M50 0 L50 240" stroke-width="1px" shape-rendering="crispEdges" fill-opacity="0" class="" style="fill:transparent;stroke:black;"/>
        </g>
      </g>
      <svg width="50" height="240" class="djs-svg-text">
        <text transform="matrix(-1.83697E-16, -1, 1, -1.83697E-16, 0, 240)" font-family="'Segoe UI'" font-size="13.2815px" font-style="normal" font-weight="bold" lineHeight="1.2" textDirection="270" textAlign="center" class="djs-label" style="fill:black;">
          <tspan x="98.32275" y="28.75">Sender</tspan>
        </text>
      </svg>
    </g>
  </g>
  <g class="djs-group">
    <g transform="matrix(1, 0, 0, 1, 29, 363)" id="gfx-ac62ba09-2cb8-4db1-abe3-5756d104819b" display="block" class="djs-element djs-shape" data-element-id="ac62ba09-2cb8-4db1-abe3-5756d104819b">
      <g class="djs-visual">
        <g>
          <rect x="0" y="0" width="780" height="151" opacity="0" fill-opacity="0" style="fill:transparent;"/>
          <path d="M780 0 L0 0 L0 151 L780 151 z M50 0 L50 151" stroke-width="1px" shape-rendering="crispEdges" fill-opacity="0" class="" style="fill:transparent;stroke:black;"/>
        </g>
      </g>
      <svg width="50" height="151" class="djs-svg-text">
        <text transform="matrix(-1.83697E-16, -1, 1, -1.83697E-16, 0, 151)" font-family="'Segoe UI'" font-size="13.2815px" font-style="normal" font-weight="bold" lineHeight="1.2" textDirection="270" textAlign="center" class="djs-label" style="fill:black;">
          <tspan x="49.30317" y="28.75">Receiver</tspan>
        </text>
      </svg>
    </g>
  </g>
  <g class="djs-group">
    <g transform="matrix(1, 0, 0, 1, 149, 123)" id="gfx-e4412213-1285-4d01-b972-5d9759cd99c2" display="block" class="djs-element djs-shape" data-element-id="e4412213-1285-4d01-b972-5d9759cd99c2">
      <g class="djs-visual">
        <g>
          <rect x="0" y="0" width="90" height="60" rx="8" stroke-width="2px" class="" style="fill:#ECEFFF;stroke:#03689A;"/>
          <g/>
        </g>
      </g>
      <svg width="90" height="56" class="djs-svg-text">
        <text font-family="'Segoe UI'" font-size="10.6252px" font-style="normal" font-weight="normal" lineHeight="1.2" textDirection="0" textAlign="center" class="djs-label" style="fill:black;">
          <tspan x="25.50237" y="20.25">Prepare </tspan>
          <tspan x="23.59151" y="33.25">business </tspan>
          <tspan x="21.14911" y="46.25">document</tspan>
        </text>
      </svg>
    </g>
  </g>
  <g class="djs-group">
    <g transform="matrix(1, 0, 0, 1, 272, 123)" id="gfx-2da341f1-7efd-4121-bb17-83e74d26a66a" display="block" class="djs-element djs-shape" data-element-id="2da341f1-7efd-4121-bb17-83e74d26a66a">
      <g class="djs-visual">
        <g>
          <rect x="0" y="0" width="90" height="60" rx="8" stroke-width="2px" class="" style="fill:#ECEFFF;stroke:#03689A;"/>
          <g/>
        </g>
      </g>
      <svg width="90" height="56" class="djs-svg-text">
        <text font-family="'Segoe UI'" font-size="10.6252px" font-style="normal" font-weight="normal" lineHeight="1.2" textDirection="0" textAlign="center" class="djs-label" style="fill:black;">
          <tspan x="10.40728" y="26.75">Send business </tspan>
          <tspan x="21.14911" y="39.75">document</tspan>
        </text>
      </svg>
    </g>
  </g>
  <g class="djs-group">
    <g transform="matrix(1, 0, 0, 1, 403, 123)" id="gfx-45b32df0-fd49-4098-8279-8f9f8e327b6e" display="block" class="djs-element djs-shape" data-element-id="45b32df0-fd49-4098-8279-8f9f8e327b6e">
      <g class="djs-visual">
        <g>
          <rect x="0" y="0" width="90" height="60" rx="8" stroke-width="2px" class="" style="fill:#ECEFFF;stroke:#03689A;"/>
          <g/>
        </g>
      </g>
      <svg width="90" height="56" class="djs-svg-text">
        <text font-family="'Segoe UI'" font-size="10.6252px" font-style="normal" font-weight="normal" lineHeight="1.2" textDirection="0" textAlign="center" class="djs-label" style="fill:black;">
          <tspan x="25.91203" y="13.75">Receive </tspan>
          <tspan x="20.33238" y="26.75">Tendering </tspan>
          <tspan x="22.88886" y="39.75">Message </tspan>
          <tspan x="22.68144" y="52.75">Response</tspan>
        </text>
      </svg>
    </g>
  </g>
  <g class="djs-group">
    <g transform="matrix(1, 0, 0, 1, 633, 63)" id="gfx-a6c703bd-e4d6-4858-a6e3-ecef61d80746" display="block" class="djs-element djs-shape" data-element-id="a6c703bd-e4d6-4858-a6e3-ecef61d80746">
      <g class="djs-visual">
        <g>
          <rect x="0" y="0" width="90" height="60" rx="8" stroke-width="2px" class="" style="fill:#ECEFFF;stroke:#03689A;"/>
          <g/>
        </g>
      </g>
      <svg width="90" height="56" class="djs-svg-text">
        <text font-family="'Segoe UI'" font-size="10.6252px" font-style="normal" font-weight="normal" lineHeight="1.2" textDirection="0" textAlign="center" class="djs-label" style="fill:black;">
          <tspan x="5.807686" y="26.75">Take appropriate</tspan>
          <tspan x="30.64384" y="39.75">action</tspan>
        </text>
      </svg>
    </g>
  </g>
  <g class="djs-group">
    <g transform="matrix(1, 0, 0, 1, 633, 183)" id="gfx-915f04da-69cc-4dc0-b6ce-5288e69cb22d" display="block" class="djs-element djs-shape" data-element-id="915f04da-69cc-4dc0-b6ce-5288e69cb22d">
      <g class="djs-visual">
        <g>
          <rect x="0" y="0" width="90" height="60" rx="8" stroke-width="2px" class="" style="fill:#ECEFFF;stroke:#03689A;"/>
          <g/>
        </g>
      </g>
      <svg width="90" height="56" class="djs-svg-text">
        <text font-family="'Segoe UI'" font-size="10.6252px" font-style="normal" font-weight="normal" lineHeight="1.2" textDirection="0" textAlign="center" class="djs-label" style="fill:black;">
          <tspan x="11.10474" y="20.25">Update status </tspan>
          <tspan x="17.36368" y="33.25">of business </tspan>
          <tspan x="21.14911" y="46.25">document</tspan>
        </text>
      </svg>
    </g>
  </g>
  <g class="djs-group">
    <g transform="matrix(1, 0, 0, 1, 272, 400)" id="gfx-0c4b6af1-d13d-4a3d-9787-2d4b57a121d9" display="block" class="djs-element djs-shape" data-element-id="0c4b6af1-d13d-4a3d-9787-2d4b57a121d9">
      <g class="djs-visual">
        <g>
          <rect x="0" y="0" width="90" height="60" rx="8" stroke-width="2px" class="" style="fill:#ECEFFF;stroke:#03689A;"/>
          <g/>
        </g>
      </g>
      <svg width="90" height="56" class="djs-svg-text">
        <text font-family="'Segoe UI'" font-size="10.6252px" font-style="normal" font-weight="normal" lineHeight="1.2" textDirection="0" textAlign="center" class="djs-label" style="fill:black;">
          <tspan x="25.91203" y="20.25">Receive </tspan>
          <tspan x="23.59151" y="33.25">business </tspan>
          <tspan x="21.14911" y="46.25">document</tspan>
        </text>
      </svg>
    </g>
  </g>
  <g class="djs-group">
    <g transform="matrix(1, 0, 0, 1, 403, 400)" id="gfx-07814529-fdc5-44c0-b87b-15f8c0ca6e19" display="block" class="djs-element djs-shape" data-element-id="07814529-fdc5-44c0-b87b-15f8c0ca6e19">
      <g class="djs-visual">
        <g>
          <rect x="0" y="0" width="90" height="60" rx="8" stroke-width="2px" class="" style="fill:#ECEFFF;stroke:#03689A;"/>
          <g/>
        </g>
      </g>
      <svg width="90" height="56" class="djs-svg-text">
        <text font-family="'Segoe UI'" font-size="10.6252px" font-style="normal" font-weight="normal" lineHeight="1.2" textDirection="0" textAlign="center" class="djs-label" style="fill:black;">
          <tspan x="14.66978" y="13.75">Validate and </tspan>
          <tspan x="25.73054" y="26.75">process </tspan>
          <tspan x="23.59151" y="39.75">business </tspan>
          <tspan x="21.14911" y="52.75">document</tspan>
        </text>
      </svg>
    </g>
  </g>
  <g class="djs-group">
    <g transform="matrix(1, 0, 0, 1, 94, 138)" id="gfx-19ed217f-f713-473a-bab9-d407cb270263" display="block" class="djs-element djs-shape" data-element-id="19ed217f-f713-473a-bab9-d407cb270263">
      <g class="djs-visual">
        <g>
          <g transform="translate(-8.90625, -8.90625) scale(1.5)">
            <path d="M16 25.2 C10.9 25.2 6.8 21.1 6.8 16 C6.8 10.9 10.9 6.8 16 6.8 C21.1 6.8 25.2 10.9 25.2 16 C25.2 21.1 21.1 25.2 16 25.2 L16 25.2 z" style="fill:#E6FF97;"/>
            <path d="M15.9 7 C20.9 7 24.9 11 24.9 16 C24.9 21 20.9 25 15.9 25 C10.9 25 6.9 21 6.9 16 C6.9 11 10.9 7 15.9 7 M15.9 6 C10.4 6 5.9 10.5 5.9 16 C5.9 21.5 10.4 26 15.9 26 C21.4 26 25.9 21.5 25.9 16 C25.9 10.5 21.4 6 15.9 6 z" stroke-width="0.2px" class="" style="fill:#62A716;stroke:#62A716;"/>
          </g>
        </g>
      </g>
    </g>
  </g>
  <g class="djs-group">
    <g transform="matrix(1, 0, 0, 1, 210, 415)" id="gfx-f88b0a48-a97a-4490-809c-a8edea53e003" display="block" class="djs-element djs-shape" data-element-id="f88b0a48-a97a-4490-809c-a8edea53e003">
      <g class="djs-visual">
        <g>
          <g transform="translate(-8.90625, -8.90625) scale(1.5)">
            <path d="M16 25.2 C10.9 25.2 6.8 21.1 6.8 16 C6.8 10.9 10.9 6.8 16 6.8 C21.1 6.8 25.2 10.9 25.2 16 C25.2 21.1 21.1 25.2 16 25.2 L16 25.2 z" style="fill:#E6FF97;"/>
            <path d="M15.9 7 C20.9 7 24.9 11 24.9 16 C24.9 21 20.9 25 15.9 25 C10.9 25 6.9 21 6.9 16 C6.9 11 10.9 7 15.9 7 M15.9 6 C10.4 6 5.9 10.5 5.9 16 C5.9 21.5 10.4 26 15.9 26 C21.4 26 25.9 21.5 25.9 16 C25.9 10.5 21.4 6 15.9 6 z" stroke-width="0.2px" class="" style="fill:#62A716;stroke:#62A716;"/>
          </g>
        </g>
      </g>
    </g>
  </g>
  <g class="djs-group">
    <g transform="matrix(1, 0, 0, 1, 756, 198)" id="gfx-20c6edce-1ac4-46a7-9636-57397f7104c3" display="block" class="djs-element djs-shape" data-element-id="20c6edce-1ac4-46a7-9636-57397f7104c3">
      <g class="djs-visual">
        <g>
          <g transform="translate(-8.90625, -8.90625) scale(1.5)">
            <path d="M16 25.2 A9.2 9.2 0 1 1 25.2 16 A9.2 9.2 0 0 1 16 25.2 z" style="fill:#EEAAAA;"/>
            <path d="M16 7.5 A8.5 8.5 0 1 1 7.5 16 A8.5 8.5 0 0 1 16 7.5 M16 6 A10 10 0 1 0 26 16 A10 10 0 0 0 16 6 z" stroke-width="0.4px" class="" style="fill:#990000;stroke:#990000;"/>
          </g>
        </g>
      </g>
    </g>
  </g>
  <g class="djs-group">
    <g transform="matrix(1, 0, 0, 1, 756, 78)" id="gfx-ab798317-a2bf-4865-983c-83cdc459e381" display="block" class="djs-element djs-shape" data-element-id="ab798317-a2bf-4865-983c-83cdc459e381">
      <g class="djs-visual">
        <g>
          <g transform="translate(-8.90625, -8.90625) scale(1.5)">
            <path d="M16 25.2 A9.2 9.2 0 1 1 25.2 16 A9.2 9.2 0 0 1 16 25.2 z" style="fill:#EEAAAA;"/>
            <path d="M16 7.5 A8.5 8.5 0 1 1 7.5 16 A8.5 8.5 0 0 1 16 7.5 M16 6 A10 10 0 1 0 26 16 A10 10 0 0 0 16 6 z" stroke-width="0.4px" class="" style="fill:#990000;stroke:#990000;"/>
          </g>
        </g>
      </g>
    </g>
  </g>
  <g class="djs-group">
    <g transform="matrix(1, 0, 0, 1, 539, 415)" id="gfx-59b4582f-8119-49a7-bbee-f542047de92d" display="block" class="djs-element djs-shape" data-element-id="59b4582f-8119-49a7-bbee-f542047de92d">
      <g class="djs-visual">
        <g>
          <g transform="translate(-8.90625, -8.90625) scale(1.5)">
            <path d="M16 25.2 A9.2 9.2 0 1 1 25.2 16 A9.2 9.2 0 0 1 16 25.2 z" style="fill:#EEAAAA;"/>
            <path d="M16 7.5 A8.5 8.5 0 1 1 7.5 16 A8.5 8.5 0 0 1 16 7.5 M16 6 A10 10 0 1 0 26 16 A10 10 0 0 0 16 6 z" stroke-width="0.4px" class="" style="fill:#990000;stroke:#990000;"/>
          </g>
        </g>
      </g>
    </g>
  </g>
  <g class="djs-group">
    <g transform="matrix(1, 0, 0, 1, 500, 453)" id="gfx-710e3699-e645-4a7f-b5f7-63644dc046e2" display="block" class="djs-element djs-shape" data-element-id="710e3699-e645-4a7f-b5f7-63644dc046e2">
      <g class="djs-visual">
        <rect x="0" y="0" width="107" height="66" fill-opacity="0" stroke-opacity="0" style="fill:transparent;stroke:transparent;"/>
        <svg width="107" height="61" class="djs-svg-text">
          <text font-family="'Segoe UI'" font-size="10.6252px" font-style="normal" font-weight="normal" lineHeight="1.2" textDirection="0" textAlign="center" class="djs-label" style="fill:black;">
            <tspan x="6.721245" y="14.75">Tendering Message </tspan>
            <tspan x="19.89253" y="27.75">Response sent</tspan>
          </text>
        </svg>
      </g>
    </g>
  </g>
  <g class="djs-group">
    <g transform="matrix(1, 0, 0, 1, 543, 133)" id="gfx-c5ad31e6-c48d-448f-8711-8889280d196c" display="block" class="djs-element djs-shape" data-element-id="c5ad31e6-c48d-448f-8711-8889280d196c">
      <g class="djs-visual">
        <g>
          <path d="M0 20 L20 40 L40 20 L20 0 z" stroke-width="1.8px" class="" style="fill:#FFFFCC;stroke:#A6A61D;"/>
        </g>
      </g>
    </g>
  </g>
  <g class="djs-group">
    <g transform="matrix(1, 0, 0, 1, 518, 181)" id="gfx-98833057-a429-41bd-93e5-c82a9b4be21d" display="block" class="djs-element djs-shape" data-element-id="98833057-a429-41bd-93e5-c82a9b4be21d">
      <g class="djs-visual">
        <rect x="0" y="0" width="90" height="30" fill-opacity="0" stroke-opacity="0" style="fill:transparent;stroke:transparent;"/>
        <svg width="90" height="25" class="djs-svg-text">
          <text font-family="'Segoe UI'" font-size="10.6252px" font-style="normal" font-weight="normal" lineHeight="1.2" textDirection="0" textAlign="center" class="djs-label" style="fill:black;">
            <tspan x="23.06776" y="14.75">Accepted</tspan>
          </text>
        </svg>
      </g>
    </g>
  </g>
  <g class="djs-group">
    <g id="gfx-8d103967-4b26-419b-b66a-f7766b59a084" display="block" class="djs-element djs-connection" data-element-id="8d103967-4b26-419b-b66a-f7766b59a084">
      <g class="djs-visual">
        <g>
          <defs>
            <marker refX="5" refY="5" orient="auto" markerWidth="10" markerHeight="10" id="startMessageFlow8d103967-4b26-419b-b66a-f7766b59a084#1">
              <circle cx="5" cy="5" r="4" stroke-width="1px" style="fill:white;stroke:black;"/>
            </marker>
            <marker refX="15" refY="6.5" orient="auto" markerWidth="16" markerHeight="14" id="endMessageFlow8d103967-4b26-419b-b66a-f7766b59a084#1">
              <path d="M0 1 L0 13 L15 6.5 z" stroke-width="1px" style="fill:white;stroke:black;"/>
            </marker>
          </defs>
          <path d="M317 183 L317 400" marker-end="url(#endMessageFlow8d103967-4b26-419b-b66a-f7766b59a084)" marker-start="url(#startMessageFlow8d103967-4b26-419b-b66a-f7766b59a084)" stroke-width="1px" stroke-linecap="round" stroke-linejoin="round" stroke-dasharray="6 4" shape-rendering="crispEdges" fill-opacity="0" class="" style="fill:transparent;stroke:black;"/>
        </g>
      </g>
    </g>
  </g>
  <g class="djs-group">
    <g transform="matrix(1, 0, 0, 1, 242, 286.989)" id="gfx-0e2a547e-8efe-40f9-a937-28b3b71e401f" display="block" class="djs-element djs-shape" data-element-id="0e2a547e-8efe-40f9-a937-28b3b71e401f">
      <g class="djs-visual">
        <rect x="0" y="0" width="65" height="65" fill-opacity="0" stroke-opacity="0" style="fill:transparent;stroke:transparent;"/>
        <svg width="65" height="60" class="djs-svg-text">
          <text font-family="'Segoe UI'" font-size="10.6252px" font-style="normal" font-weight="normal" lineHeight="1.2" textDirection="0" textAlign="center" class="djs-label" style="fill:black;">
            <tspan x="7.832382" y="14.75">Tendering </tspan>
            <tspan x="11.09151" y="27.75">business </tspan>
            <tspan x="8.649109" y="40.75">document</tspan>
          </text>
        </svg>
      </g>
    </g>
  </g>
  <g class="djs-group">
    <g id="gfx-f149db02-8d9f-4c0c-9e96-2dc800b6b608" display="block" class="djs-element djs-connection" data-element-id="f149db02-8d9f-4c0c-9e96-2dc800b6b608">
      <g class="djs-visual">
        <g>
          <defs>
            <marker refX="5" refY="5" orient="auto" markerWidth="10" markerHeight="10" id="startMessageFlowf149db02-8d9f-4c0c-9e96-2dc800b6b608">
              <circle cx="5" cy="5" r="4" stroke-width="1px" style="fill:white;stroke:black;"/>
            </marker>
            <marker refX="15" refY="6.5" orient="auto" markerWidth="16" markerHeight="14" id="endMessageFlowf149db02-8d9f-4c0c-9e96-2dc800b6b608">
              <path d="M0 1 L0 13 L15 6.5 z" stroke-width="1px" style="fill:white;stroke:black;"/>
            </marker>
          </defs>
          <path d="M448 400 L448 183" marker-end="url(#endMessageFlowf149db02-8d9f-4c0c-9e96-2dc800b6b608)" marker-start="url(#startMessageFlowf149db02-8d9f-4c0c-9e96-2dc800b6b608)" stroke-width="1px" stroke-linecap="round" stroke-linejoin="round" stroke-dasharray="6 4" shape-rendering="crispEdges" fill-opacity="0" class="" style="fill:transparent;stroke:black;"/>
        </g>
      </g>
    </g>
  </g>
  <g class="djs-group">
    <g transform="matrix(1, 0, 0, 1, 457.991, 283.989)" id="gfx-0bbc9459-b8e9-41e4-9c65-f05922a7682b" display="block" class="djs-element djs-shape" data-element-id="0bbc9459-b8e9-41e4-9c65-f05922a7682b">
      <g class="djs-visual">
        <rect x="0" y="0" width="71" height="65" fill-opacity="0" stroke-opacity="0" style="fill:transparent;stroke:transparent;"/>
        <svg width="71" height="60" class="djs-svg-text">
          <text font-family="'Segoe UI'" font-size="10.6252px" font-style="normal" font-weight="normal" lineHeight="1.2" textDirection="0" textAlign="center" class="djs-label" style="fill:black;">
            <tspan x="19.09814" y="14.75">T018 - </tspan>
            <tspan x="10.83238" y="27.75">Tendering </tspan>
            <tspan x="13.38886" y="40.75">Message </tspan>
            <tspan x="13.18144" y="53.75">Response</tspan>
          </text>
        </svg>
      </g>
    </g>
  </g>
  <g class="djs-group">
    <g id="gfx-c7a22279-1da0-47a2-b793-a989cbbd8510" display="block" class="djs-element djs-connection" data-element-id="c7a22279-1da0-47a2-b793-a989cbbd8510">
      <g class="djs-visual">
        <g>
          <defs>
            <marker refX="9.8" refY="6" orient="auto" markerWidth="12" markerHeight="12" markerUnits="strokeWidth" id="arrowSecuenceFlowc7a22279-1da0-47a2-b793-a989cbbd8510">
              <path d="M0 0 L2 6 L0 12 L10 6 z" style="fill:black;"/>
            </marker>
          </defs>
          <path d="M124 153 L149 153" marker-end="url(#arrowSecuenceFlowc7a22279-1da0-47a2-b793-a989cbbd8510)" stroke-width="1px" stroke-linejoin="round" shape-rendering="crispEdges" fill-opacity="0" class="" style="fill:transparent;stroke:black;"/>
        </g>
      </g>
    </g>
  </g>
  <g class="djs-group">
    <g id="gfx-34876155-9397-40c7-a1bb-2f479b175b01" display="block" class="djs-element djs-connection" data-element-id="34876155-9397-40c7-a1bb-2f479b175b01">
      <g class="djs-visual">
        <g>
          <defs>
            <marker refX="9.8" refY="6" orient="auto" markerWidth="12" markerHeight="12" markerUnits="strokeWidth" id="arrowSecuenceFlow34876155-9397-40c7-a1bb-2f479b175b01">
              <path d="M0 0 L2 6 L0 12 L10 6 z" style="fill:black;"/>
            </marker>
          </defs>
          <path d="M239 153 L272 153" marker-end="url(#arrowSecuenceFlow34876155-9397-40c7-a1bb-2f479b175b01)" stroke-width="1px" stroke-linejoin="round" shape-rendering="crispEdges" fill-opacity="0" class="" style="fill:transparent;stroke:black;"/>
        </g>
      </g>
    </g>
  </g>
  <g class="djs-group">
    <g id="gfx-361367c3-e358-4294-98f8-1f0e069ee130" display="block" class="djs-element djs-connection" data-element-id="361367c3-e358-4294-98f8-1f0e069ee130">
      <g class="djs-visual">
        <g>
          <defs>
            <marker refX="9.8" refY="6" orient="auto" markerWidth="12" markerHeight="12" markerUnits="strokeWidth" id="arrowSecuenceFlow361367c3-e358-4294-98f8-1f0e069ee130">
              <path d="M0 0 L2 6 L0 12 L10 6 z" style="fill:black;"/>
            </marker>
          </defs>
          <path d="M362 153 L403 153" marker-end="url(#arrowSecuenceFlow361367c3-e358-4294-98f8-1f0e069ee130)" stroke-width="1px" stroke-linejoin="round" shape-rendering="crispEdges" fill-opacity="0" class="" style="fill:transparent;stroke:black;"/>
        </g>
      </g>
    </g>
  </g>
  <g class="djs-group">
    <g id="gfx-1c6ab624-c993-42ea-88c5-796e36d46295" display="block" class="djs-element djs-connection" data-element-id="1c6ab624-c993-42ea-88c5-796e36d46295">
      <g class="djs-visual">
        <g>
          <defs>
            <marker refX="9.8" refY="6" orient="auto" markerWidth="12" markerHeight="12" markerUnits="strokeWidth" id="arrowSecuenceFlow1c6ab624-c993-42ea-88c5-796e36d46295">
              <path d="M0 0 L2 6 L0 12 L10 6 z" style="fill:black;"/>
            </marker>
          </defs>
          <path d="M583 153 L602 153 C602 153 608 153 608 159 L608 207 C608 207 608 213 614 213 L633 213" marker-end="url(#arrowSecuenceFlow1c6ab624-c993-42ea-88c5-796e36d46295)" stroke-width="1px" stroke-linejoin="round" shape-rendering="crispEdges" fill-opacity="0" class="" style="fill:transparent;stroke:black;"/>
        </g>
      </g>
    </g>
  </g>
  <g class="djs-group">
    <g transform="matrix(1, 0, 0, 1, 555, 208)" id="gfx-ab71fd16-c1eb-4b3d-8370-f814410a7b08" display="block" class="djs-element djs-shape" data-element-id="ab71fd16-c1eb-4b3d-8370-f814410a7b08">
      <g class="djs-visual">
        <rect x="0" y="0" width="90" height="30" fill-opacity="0" stroke-opacity="0" style="fill:transparent;stroke:transparent;"/>
        <svg width="90" height="25" class="djs-svg-text">
          <text font-family="'Segoe UI'" font-size="10.6252px" font-style="normal" font-weight="normal" lineHeight="1.2" textDirection="0" textAlign="center" class="djs-label" style="fill:black;">
            <tspan x="36.55795" y="14.75">YES</tspan>
          </text>
        </svg>
      </g>
    </g>
  </g>
  <g class="djs-group">
    <g id="gfx-4d83c682-6dbe-4e1e-af82-fb63c8852f7b" display="block" class="djs-element djs-connection" data-element-id="4d83c682-6dbe-4e1e-af82-fb63c8852f7b">
      <g class="djs-visual">
        <g>
          <defs>
            <marker refX="9.8" refY="6" orient="auto" markerWidth="12" markerHeight="12" markerUnits="strokeWidth" id="arrowSecuenceFlow4d83c682-6dbe-4e1e-af82-fb63c8852f7b">
              <path d="M0 0 L2 6 L0 12 L10 6 z" style="fill:black;"/>
            </marker>
          </defs>
          <path d="M583 153 L602 153 C602 153 608 153 608 147 L608 99 C608 99 608 93 614 93 L633 93" marker-end="url(#arrowSecuenceFlow4d83c682-6dbe-4e1e-af82-fb63c8852f7b)" stroke-width="1px" stroke-linejoin="round" shape-rendering="crispEdges" fill-opacity="0" class="" style="fill:transparent;stroke:black;"/>
        </g>
      </g>
    </g>
  </g>
  <g class="djs-group">
    <g transform="matrix(1, 0, 0, 1, 550, 82)" id="gfx-647dafd7-5481-4b9d-87e7-1bb2ee6ad0db" display="block" class="djs-element djs-shape" data-element-id="647dafd7-5481-4b9d-87e7-1bb2ee6ad0db">
      <g class="djs-visual">
        <rect x="0" y="0" width="90" height="30" fill-opacity="0" stroke-opacity="0" style="fill:transparent;stroke:transparent;"/>
        <svg width="90" height="25" class="djs-svg-text">
          <text font-family="'Segoe UI'" font-size="10.6252px" font-style="normal" font-weight="normal" lineHeight="1.2" textDirection="0" textAlign="center" class="djs-label" style="fill:black;">
            <tspan x="37.02464" y="14.75">NO</tspan>
          </text>
        </svg>
      </g>
    </g>
  </g>
  <g class="djs-group">
    <g id="gfx-d1ef5c25-948f-42d7-b169-7177f419a537" display="block" class="djs-element djs-connection" data-element-id="d1ef5c25-948f-42d7-b169-7177f419a537">
      <g class="djs-visual">
        <g>
          <defs>
            <marker refX="9.8" refY="6" orient="auto" markerWidth="12" markerHeight="12" markerUnits="strokeWidth" id="arrowSecuenceFlowd1ef5c25-948f-42d7-b169-7177f419a537">
              <path d="M0 0 L2 6 L0 12 L10 6 z" style="fill:black;"/>
            </marker>
          </defs>
          <path d="M723 93 L756 93" marker-end="url(#arrowSecuenceFlowd1ef5c25-948f-42d7-b169-7177f419a537)" stroke-width="1px" stroke-linejoin="round" shape-rendering="crispEdges" fill-opacity="0" class="" style="fill:transparent;stroke:black;"/>
        </g>
      </g>
    </g>
  </g>
  <g class="djs-group">
    <g id="gfx-19b8cfd3-7923-4751-9dcf-d36c3f16b557" display="block" class="djs-element djs-connection" data-element-id="19b8cfd3-7923-4751-9dcf-d36c3f16b557">
      <g class="djs-visual">
        <g>
          <defs>
            <marker refX="9.8" refY="6" orient="auto" markerWidth="12" markerHeight="12" markerUnits="strokeWidth" id="arrowSecuenceFlow19b8cfd3-7923-4751-9dcf-d36c3f16b557">
              <path d="M0 0 L2 6 L0 12 L10 6 z" style="fill:black;"/>
            </marker>
          </defs>
          <path d="M723 213 L756 213" marker-end="url(#arrowSecuenceFlow19b8cfd3-7923-4751-9dcf-d36c3f16b557)" stroke-width="1px" stroke-linejoin="round" shape-rendering="crispEdges" fill-opacity="0" class="" style="fill:transparent;stroke:black;"/>
        </g>
      </g>
    </g>
  </g>
  <g class="djs-group">
    <g id="gfx-aafc40f7-d41e-4272-b669-f1b301a99411" display="block" class="djs-element djs-connection" data-element-id="aafc40f7-d41e-4272-b669-f1b301a99411">
      <g class="djs-visual">
        <g>
          <defs>
            <marker refX="9.8" refY="6" orient="auto" markerWidth="12" markerHeight="12" markerUnits="strokeWidth" id="arrowSecuenceFlowaafc40f7-d41e-4272-b669-f1b301a99411">
              <path d="M0 0 L2 6 L0 12 L10 6 z" style="fill:black;"/>
            </marker>
          </defs>
          <path d="M493 153 L543 153" marker-end="url(#arrowSecuenceFlowaafc40f7-d41e-4272-b669-f1b301a99411)" stroke-width="1px" stroke-linejoin="round" shape-rendering="crispEdges" fill-opacity="0" class="" style="fill:transparent;stroke:black;"/>
        </g>
      </g>
    </g>
  </g>
  <g class="djs-group">
    <g id="gfx-15a46f85-f017-4d11-b78b-f3d87b5f660d" display="block" class="djs-element djs-connection" data-element-id="15a46f85-f017-4d11-b78b-f3d87b5f660d">
      <g class="djs-visual">
        <g>
          <defs>
            <marker refX="9.8" refY="6" orient="auto" markerWidth="12" markerHeight="12" markerUnits="strokeWidth" id="arrowSecuenceFlow15a46f85-f017-4d11-b78b-f3d87b5f660d">
              <path d="M0 0 L2 6 L0 12 L10 6 z" style="fill:black;"/>
            </marker>
          </defs>
          <path d="M362 430 L403 430" marker-end="url(#arrowSecuenceFlow15a46f85-f017-4d11-b78b-f3d87b5f660d)" stroke-width="1px" stroke-linejoin="round" shape-rendering="crispEdges" fill-opacity="0" class="" style="fill:transparent;stroke:black;"/>
        </g>
      </g>
    </g>
  </g>
  <g class="djs-group">
    <g id="gfx-8cbb02a7-9baf-4e8d-a7d8-f127ac639b80" display="block" class="djs-element djs-connection" data-element-id="8cbb02a7-9baf-4e8d-a7d8-f127ac639b80">
      <g class="djs-visual">
        <g>
          <defs>
            <marker refX="9.8" refY="6" orient="auto" markerWidth="12" markerHeight="12" markerUnits="strokeWidth" id="arrowSecuenceFlow8cbb02a7-9baf-4e8d-a7d8-f127ac639b80">
              <path d="M0 0 L2 6 L0 12 L10 6 z" style="fill:black;"/>
            </marker>
          </defs>
          <path d="M493 430 L539 430" marker-end="url(#arrowSecuenceFlow8cbb02a7-9baf-4e8d-a7d8-f127ac639b80)" stroke-width="1px" stroke-linejoin="round" shape-rendering="crispEdges" fill-opacity="0" class="" style="fill:transparent;stroke:black;"/>
        </g>
      </g>
    </g>
  </g>
  <g class="djs-group">
    <g id="gfx-ea5eff3c-8b28-4f3b-984b-aadc7ae5b886" display="block" class="djs-element djs-connection" data-element-id="ea5eff3c-8b28-4f3b-984b-aadc7ae5b886">
      <g class="djs-visual">
        <g>
          <defs>
            <marker refX="9.8" refY="6" orient="auto" markerWidth="12" markerHeight="12" markerUnits="strokeWidth" id="arrowSecuenceFlowea5eff3c-8b28-4f3b-984b-aadc7ae5b886">
              <path d="M0 0 L2 6 L0 12 L10 6 z" style="fill:black;"/>
            </marker>
          </defs>
          <path d="M240 430 L272 430" marker-end="url(#arrowSecuenceFlowea5eff3c-8b28-4f3b-984b-aadc7ae5b886)" stroke-width="1px" stroke-linejoin="round" shape-rendering="crispEdges" fill-opacity="0" class="" style="fill:transparent;stroke:black;"/>
        </g>
      </g>
    </g>
  </g>
  
</svg>